<svg width="204" height="202" viewBox="0 0 204 202" fill="none" xmlns="http://www.w3.org/2000/svg">
<g id="Bg decoration" opacity="0.04">
<path id="Vector" d="M199.194 52.4644H164.04C161.554 52.4644 159.538 54.4709 159.538 56.9461V91.9392C159.538 94.4144 161.554 96.421 164.04 96.421H199.194C201.68 96.421 203.696 94.4144 203.696 91.9392V56.9461C203.696 54.4709 201.68 52.4644 199.194 52.4644Z" fill="#161616"/>
<path id="Vector_2" d="M199.194 157.393H164.04C161.554 157.393 159.538 159.4 159.538 161.875V196.868C159.538 199.343 161.554 201.35 164.04 201.35H199.194C201.68 201.35 203.696 199.343 203.696 196.868V161.875C203.696 159.4 201.68 157.393 199.194 157.393Z" fill="#161616"/>
<path id="Vector_3" d="M40.9348 0H4.64747C2.08074 0 0 2.00654 0 4.48172V39.4749C0 41.9501 2.08074 43.9566 4.64747 43.9566H40.9348C43.5015 43.9566 45.5823 41.9501 45.5823 39.4749V4.48172C45.5823 2.00654 43.5015 0 40.9348 0Z" fill="#161616"/>
<path id="Vector_4" d="M164.031 148.885C162.84 148.885 161.697 148.414 160.854 147.576C160.011 146.738 159.538 145.6 159.538 144.415V109.399C159.538 108.214 160.011 107.077 160.854 106.238C161.697 105.4 162.84 104.929 164.031 104.929H199.203C200.394 104.929 201.537 105.4 202.38 106.238C203.223 107.077 203.696 108.214 203.696 109.399C203.696 119.868 199.518 129.908 192.08 137.312C184.642 144.717 174.553 148.879 164.031 148.885Z" fill="#161616"/>
<path id="Vector_5" d="M57.1979 96.421C56.0062 96.421 54.8633 95.95 54.0206 95.1116C53.178 94.2732 52.7046 93.1361 52.7046 91.9504V56.9349C52.7046 55.7492 53.178 54.6121 54.0206 53.7738C54.8633 52.9354 56.0062 52.4644 57.1979 52.4644H92.3691C93.5608 52.4644 94.7037 52.9354 95.5464 53.7738C96.389 54.6121 96.8624 55.7492 96.8624 56.9349C96.8624 67.4034 92.6842 77.4434 85.2463 84.8479C77.8084 92.2523 67.7196 96.415 57.1979 96.421Z" fill="#161616"/>
<path id="Vector_6" d="M199.193 43.9566H164.03C162.839 43.9566 161.696 43.4855 160.854 42.6469C160.011 41.8083 159.538 40.6709 159.538 39.4849C159.538 29.0129 163.717 18.9697 171.156 11.5649C178.595 4.16 188.684 0 199.204 0C200.395 0 201.538 0.471118 202.38 1.30972C203.223 2.14832 203.696 3.28571 203.696 4.47168V39.4737C203.697 40.0628 203.582 40.6464 203.356 41.191C203.13 41.7355 202.799 42.2303 202.38 42.6469C201.962 43.0634 201.465 43.3936 200.918 43.6184C200.371 43.8431 199.784 43.9581 199.193 43.9566Z" fill="#161616"/>
<path id="Vector_7" d="M146.499 96.421C135.987 96.421 125.905 92.2629 118.467 84.8601C111.03 77.4574 106.845 67.4155 106.833 56.9406C106.833 55.7534 107.307 54.6149 108.149 53.7754C108.992 52.936 110.134 52.4644 111.326 52.4644H146.499C147.691 52.4644 148.833 52.936 149.676 53.7754C150.518 54.6149 150.991 55.7534 150.991 56.9406V91.9783C150.982 93.1596 150.505 94.2896 149.664 95.1218C148.822 95.954 147.685 96.421 146.499 96.421Z" fill="#161616"/>
<path id="Vector_8" d="M146.499 201.35C135.987 201.35 125.905 197.192 118.467 189.789C111.03 182.386 106.845 172.344 106.833 161.869C106.833 160.682 107.307 159.544 108.149 158.704C108.992 157.865 110.134 157.393 111.326 157.393H146.499C147.691 157.393 148.833 157.865 149.676 158.704C150.518 159.544 150.991 160.682 150.991 161.869V196.907C150.982 198.088 150.505 199.218 149.664 200.05C148.822 200.883 147.685 201.35 146.499 201.35Z" fill="#161616"/>
<path id="Vector_9" d="M92.3703 148.885C81.858 148.885 71.7757 144.727 64.3383 137.325C56.9008 129.922 52.7165 119.88 52.7046 109.405C52.7046 108.218 53.1779 107.079 54.0203 106.24C54.8627 105.4 56.0053 104.929 57.1967 104.929H92.3703C93.5617 104.929 94.7043 105.4 95.5467 106.24C96.3891 107.079 96.8624 108.218 96.8624 109.405V144.443C96.8535 145.624 96.3763 146.754 95.5348 147.586C94.6934 148.418 93.5558 148.885 92.3703 148.885Z" fill="#161616"/>
<path id="Vector_10" d="M146.488 43.9566H111.326C110.134 43.9566 108.992 43.4861 108.149 42.6485C107.307 41.811 106.833 40.675 106.833 39.4906V4.466C106.833 3.28154 107.307 2.1456 108.149 1.30807C108.992 0.470529 110.134 0 111.326 0C121.845 0.00295963 131.932 4.15863 139.37 11.5534C146.808 18.9483 150.988 28.9769 150.991 39.4348C150.998 40.0269 150.887 40.6145 150.664 41.1636C150.441 41.7126 150.11 42.212 149.691 42.6328C149.272 43.0536 148.773 43.3874 148.223 43.6146C147.673 43.8419 147.083 43.9581 146.488 43.9566Z" fill="#161616"/>
<path id="Vector_11" d="M150.991 126.907C150.991 114.769 141.106 104.929 128.912 104.929C116.719 104.929 106.833 114.769 106.833 126.907C106.833 139.045 116.719 148.885 128.912 148.885C141.106 148.885 150.991 139.045 150.991 126.907Z" fill="#161616"/>
<path id="Vector_12" d="M96.8624 21.9783C96.8624 9.84002 86.9773 0 74.7835 0C62.5897 0 52.7046 9.84002 52.7046 21.9783C52.7046 34.1166 62.5897 43.9566 74.7835 43.9566C86.9773 43.9566 96.8624 34.1166 96.8624 21.9783Z" fill="#161616"/>
</g>
</svg>
