<svg width="16" height="17" viewBox="0 0 16 17" fill="none" xmlns="http://www.w3.org/2000/svg">
<path fill-rule="evenodd" clip-rule="evenodd" d="M4.8001 2.1001C4.58792 2.1001 4.38444 2.18438 4.23441 2.33441C4.08438 2.48444 4.0001 2.68792 4.0001 2.9001V3.7001H3.2001C2.77575 3.7001 2.36878 3.86867 2.06873 4.16873C1.76867 4.46879 1.6001 4.87575 1.6001 5.3001V13.3001C1.6001 13.7244 1.76867 14.1314 2.06873 14.4315C2.36878 14.7315 2.77575 14.9001 3.2001 14.9001H12.8001C13.2244 14.9001 13.6314 14.7315 13.9315 14.4315C14.2315 14.1314 14.4001 13.7244 14.4001 13.3001V5.3001C14.4001 4.87575 14.2315 4.46879 13.9315 4.16873C13.6314 3.86867 13.2244 3.7001 12.8001 3.7001H12.0001V2.9001C12.0001 2.68792 11.9158 2.48444 11.7658 2.33441C11.6158 2.18438 11.4123 2.1001 11.2001 2.1001C10.9879 2.1001 10.7844 2.18438 10.6344 2.33441C10.4844 2.48444 10.4001 2.68792 10.4001 2.9001V3.7001H5.6001V2.9001C5.6001 2.68792 5.51581 2.48444 5.36578 2.33441C5.21575 2.18438 5.01227 2.1001 4.8001 2.1001ZM4.8001 6.1001C4.58792 6.1001 4.38444 6.18438 4.23441 6.33441C4.08438 6.48444 4.0001 6.68792 4.0001 6.9001C4.0001 7.11227 4.08438 7.31575 4.23441 7.46578C4.38444 7.61581 4.58792 7.7001 4.8001 7.7001H11.2001C11.4123 7.7001 11.6158 7.61581 11.7658 7.46578C11.9158 7.31575 12.0001 7.11227 12.0001 6.9001C12.0001 6.68792 11.9158 6.48444 11.7658 6.33441C11.6158 6.18438 11.4123 6.1001 11.2001 6.1001H4.8001Z" fill="#667085"/>
</svg>
