<svg width="25" height="24" viewBox="0 0 25 24" fill="none" xmlns="http://www.w3.org/2000/svg">
<g id="link-external-01">
<path id="Icon" d="M21.75 9L21.75 3M21.75 3H15.75M21.75 3L13.75 11M10.75 5H8.55C6.86984 5 6.02976 5 5.38803 5.32698C4.82354 5.6146 4.3646 6.07354 4.07698 6.63803C3.75 7.27976 3.75 8.11984 3.75 9.8V16.2C3.75 17.8802 3.75 18.7202 4.07698 19.362C4.3646 19.9265 4.82354 20.3854 5.38803 20.673C6.02976 21 6.86984 21 8.55 21H14.95C16.6302 21 17.4702 21 18.112 20.673C18.6765 20.3854 19.1354 19.9265 19.423 19.362C19.75 18.7202 19.75 17.8802 19.75 16.2V14" stroke="white" stroke-width="2" stroke-linecap="round" stroke-linejoin="round"/>
</g>
</svg>
