<svg width="25" height="24" viewBox="0 0 25 24" fill="none" xmlns="http://www.w3.org/2000/svg">
<g id="Coupon_fill">
<path id="Vector" d="M20.95 11.65C20.9497 10.8658 21.2329 10.1079 21.7475 9.51612C22.2621 8.92434 22.9733 8.53858 23.75 8.43C23.75 6.62 23.58 5.58 22.89 4.88C22 4 20.58 4 17.75 4H7.75C4.93 4 3.51 4 2.63 4.88C1.93 5.58 1.75 6.62 1.75 8.43C2.51302 8.55572 3.2065 8.94859 3.70659 9.53844C4.20668 10.1283 4.4808 10.8767 4.48 11.65C4.48116 12.4245 4.20739 13.1742 3.70745 13.7657C3.20751 14.3572 2.51385 14.7521 1.75 14.88C1.75 17.13 1.85 18.35 2.63 19.12C3.41 19.89 4.93 20 7.75 20H17.75C20.58 20 22 20 22.88 19.12C23.76 18.24 23.74 17.12 23.74 14.88C22.9643 14.767 22.2553 14.3783 21.7429 13.7851C21.2305 13.1918 20.949 12.4339 20.95 11.65ZM7.42 9.37C7.42 9.02784 7.52146 8.69336 7.71156 8.40886C7.90165 8.12437 8.17184 7.90263 8.48796 7.77169C8.80407 7.64075 9.15192 7.60649 9.48751 7.67324C9.82309 7.73999 10.1313 7.90476 10.3733 8.14671C10.6152 8.38865 10.78 8.69691 10.8468 9.03249C10.9135 9.36808 10.8793 9.71593 10.7483 10.032C10.6174 10.3482 10.3956 10.6183 10.1111 10.8084C9.82664 10.9985 9.49216 11.1 9.15 11.1C8.92244 11.1013 8.69688 11.0575 8.48639 10.971C8.2759 10.8845 8.08466 10.7572 7.92375 10.5963C7.76284 10.4353 7.63546 10.2441 7.54899 10.0336C7.46251 9.82312 7.41867 9.59756 7.42 9.37ZM9.74 16.37C9.47013 16.3754 9.20476 16.3003 8.97769 16.1544C8.75061 16.0085 8.57209 15.7983 8.46485 15.5506C8.35762 15.3029 8.32652 15.0288 8.37552 14.7634C8.42452 14.498 8.5514 14.2531 8.74 14.06L14.74 8.06C14.8674 7.92802 15.0195 7.82243 15.1877 7.74924C15.3559 7.67606 15.5369 7.63671 15.7203 7.63346C15.9036 7.63021 16.0859 7.66312 16.2566 7.7303C16.4272 7.79748 16.583 7.89762 16.715 8.025C16.847 8.15238 16.9526 8.30451 17.0258 8.4727C17.0989 8.6409 17.1383 8.82186 17.1415 9.00525C17.1448 9.18865 17.1119 9.37089 17.0447 9.54157C16.9775 9.71225 16.8774 9.86802 16.75 10L10.75 16C10.6167 16.125 10.4592 16.2215 10.2872 16.2834C10.1152 16.3453 9.93242 16.3714 9.75 16.36L9.74 16.37ZM16.37 16.37C16.0274 16.372 15.692 16.2722 15.4062 16.0833C15.1203 15.8944 14.897 15.6249 14.7646 15.309C14.6321 14.9931 14.5964 14.6449 14.662 14.3087C14.7276 13.9724 14.8916 13.6632 15.1332 13.4203C15.3747 13.1773 15.6829 13.0116 16.0188 12.944C16.3547 12.8764 16.703 12.9101 17.0197 13.0408C17.3364 13.1714 17.6072 13.3931 17.7977 13.6778C17.9883 13.9625 18.09 14.2974 18.09 14.64C18.0874 15.0954 17.9053 15.5313 17.5833 15.8533C17.2613 16.1753 16.8254 16.3574 16.37 16.36V16.37Z" fill="#029758"/>
</g>
</svg>
