<?xml version="1.0" encoding="UTF-8"?>
<svg id="Layer_1" data-name="Layer 1" xmlns="http://www.w3.org/2000/svg" viewBox="0 0 920.09 585.55">
  <defs>
    <style>
      .cls-1 {
        fill: #58dd85;
        stroke-width: 0px;
      }
    </style>
  </defs>
  <g>
    <path class="cls-1" d="m117.31,503.59l16.56,8.45c-.15.14-1.04,1.2-2.64,3.19-1.61,1.99-4.18,4.16-7.71,6.49-3.53,2.34-8.17,4.43-13.92,6.29-5.75,1.85-12.77,2.78-21.05,2.78-7.82,0-15.57-1.07-23.23-3.19-7.67-2.13-14.53-5.7-20.59-10.72-6.06-5.01-11-11.61-14.84-19.78-3.83-8.17-5.75-18.31-5.75-30.4-4.45-2.47-8.17-4.98-11.16-7.52-2.99-2.54-5.45-4.88-7.36-7.01-1.92-2.13-3.3-3.92-4.14-5.36-.84-1.44-1.34-2.23-1.5-2.37l17.48-6.8v-.21c.15.28.96,1.44,2.42,3.5,1.46,2.06,4.1,4.47,7.94,7.21.77-2.2,2.19-5.46,4.26-9.79s5.25-8.66,9.55-12.98c4.29-4.33,10.01-8.14,17.14-11.44,7.13-3.3,16.14-4.95,27.03-4.95,8.13,0,15.41,1.13,21.85,3.4,6.44,2.27,11.92,5.19,16.45,8.76,4.52,3.57,7.97,7.66,10.35,12.26,2.38,4.61,3.57,9.17,3.57,13.71,0,2.34-.58,5.36-1.72,9.07-1.15,3.71-3.61,7.32-7.36,10.82-3.76,3.5-9.17,6.53-16.22,9.07-7.05,2.54-16.56,3.81-28.52,3.81-8.28,0-15.84-.48-22.66-1.44-6.83-.96-12.92-2.27-18.29-3.92.46,7.15,2.11,13.22,4.95,18.24,2.84,5.02,6.4,9.07,10.7,12.16,4.29,3.09,9.05,5.33,14.26,6.7,5.21,1.38,10.35,2.06,15.41,2.06,5.37,0,9.85-.51,13.46-1.55,3.6-1.03,6.56-2.16,8.86-3.4,2.3-1.24,3.95-2.4,4.95-3.5,1-1.1,1.5-1.72,1.5-1.86v.21Zm-31.51-77.49c-4.29,0-8.59.62-12.88,1.86-4.29,1.24-8.28,3.13-11.96,5.67-3.68,2.54-6.94,5.74-9.78,9.58-2.84,3.85-4.95,8.45-6.33,13.81,4.91,1.65,10.58,3.02,17.02,4.12,6.44,1.1,13.88,1.65,22.31,1.65,4.91,0,9.51-.27,13.8-.83,4.29-.55,7.97-1.44,11.04-2.68,3.07-1.24,5.48-2.85,7.25-4.84,1.76-1.99,2.65-4.43,2.65-7.32,0-2.47-.8-4.95-2.42-7.42-1.61-2.47-3.88-4.74-6.79-6.8-2.92-2.06-6.4-3.71-10.47-4.95-4.07-1.24-8.55-1.86-13.46-1.86Z"/>
    <path class="cls-1" d="m257.86,512.24c-11.35,12.5-28.68,18.75-51.99,18.75-20.55,0-36.27-5.25-47.15-15.77-10.89-10.51-16.33-25.73-16.33-45.65,0-8.93,1.34-17.17,4.03-24.73,2.68-7.55,6.67-14.05,11.96-19.48,5.29-5.43,11.92-9.65,19.9-12.67,7.97-3.02,17.17-4.53,27.6-4.53,17.33,0,31.51,3.92,42.55,11.75l-11.73,13.4c-7.52-5.36-17.79-8.04-30.82-8.04-9.2,0-16.68,1.38-22.43,4.12-5.75,2.75-10.28,6.25-13.57,10.51-3.3,4.26-5.52,9-6.67,14.22-1.15,5.22-1.73,10.38-1.73,15.46,0,15.12,3.57,26.28,10.7,33.49s18.36,10.82,33.7,10.82c17.33,0,29.67-4.12,37.03-12.37l14.95,10.72Z"/>
    <path class="cls-1" d="m321.34,408.17c10.43,0,19.7,1.41,27.83,4.23,8.13,2.82,15.07,6.84,20.82,12.06,5.75,5.22,10.12,11.64,13.11,19.27s4.49,16.25,4.49,25.86c0,7.83-.84,15.42-2.53,22.77-1.69,7.35-4.91,13.91-9.66,19.68-4.75,5.77-11.46,10.38-20.13,13.81-8.67,3.43-19.98,5.15-33.93,5.15s-25-1.79-33.58-5.36c-8.59-3.57-15.3-8.28-20.13-14.12-4.83-5.84-8.09-12.43-9.78-19.78-1.69-7.35-2.53-14.74-2.53-22.15,0-9.34,1.57-17.79,4.72-25.35,3.14-7.55,7.59-14.01,13.34-19.37,5.75-5.36,12.69-9.48,20.82-12.37,8.13-2.88,17.17-4.33,27.14-4.33Zm0,105.72c16.41,0,28.37-3.54,35.88-10.61,7.51-7.07,11.27-18.31,11.27-33.7,0-5.08-.65-10.23-1.96-15.46-1.3-5.22-3.68-9.96-7.13-14.22-3.45-4.26-8.25-7.76-14.38-10.51-6.13-2.75-14.03-4.12-23.69-4.12-15.03,0-26.61,3.85-34.73,11.54-8.13,7.7-12.19,18.62-12.19,32.77,0,29.54,15.64,44.31,46.92,44.31Z"/>
    <path class="cls-1" d="m462.81,408.37c11.81,0,21.89,1.44,30.25,4.33,8.36,2.89,15.22,7.01,20.59,12.37,5.37,5.36,9.28,11.82,11.73,19.37,2.45,7.56,3.68,16.01,3.68,25.35s-1.53,18.21-4.6,25.76c-3.07,7.56-7.36,13.98-12.88,19.27-5.52,5.29-12.19,9.34-20.01,12.16-7.82,2.81-16.49,4.22-25.99,4.22-5.98,0-11.5-.9-16.56-2.68-5.06-1.79-9.59-4.09-13.57-6.9-3.99-2.81-7.48-6.01-10.47-9.58-2.99-3.57-5.41-7.14-7.25-10.72l-1.84-.21v71.1h-19.09v-158.89h19.09v24.73h1.84c4.91-9.07,11.19-16.28,18.86-21.64,7.67-5.36,16.41-8.04,26.22-8.04Zm.46,105.72c9.66,0,17.52-1.37,23.58-4.12,6.06-2.75,10.81-6.25,14.26-10.51,3.45-4.26,5.79-9,7.02-14.22,1.23-5.22,1.84-10.37,1.84-15.46,0-15.39-3.76-26.62-11.27-33.7-7.51-7.08-19.48-10.61-35.88-10.61-7.67,0-14.42,1.51-20.24,4.53-5.83,3.02-10.7,6.73-14.61,11.13-3.91,4.4-6.86,9.17-8.86,14.32-2,5.15-2.99,9.86-2.99,14.12,0,6.32,1.23,12.19,3.68,17.62,2.45,5.43,5.83,10.13,10.12,14.12,4.29,3.99,9.32,7.11,15.07,9.38,5.75,2.27,11.85,3.4,18.29,3.4Z"/>
    <path class="cls-1" d="m600.13,408.17c10.43,0,19.7,1.41,27.83,4.23,8.13,2.82,15.07,6.84,20.82,12.06,5.75,5.22,10.12,11.64,13.11,19.27s4.49,16.25,4.49,25.86c0,7.83-.84,15.42-2.53,22.77-1.69,7.35-4.91,13.91-9.66,19.68-4.75,5.77-11.46,10.38-20.13,13.81-8.67,3.43-19.98,5.15-33.93,5.15s-25-1.79-33.58-5.36c-8.59-3.57-15.3-8.28-20.13-14.12-4.83-5.84-8.09-12.43-9.78-19.78-1.69-7.35-2.53-14.74-2.53-22.15,0-9.34,1.57-17.79,4.72-25.35,3.14-7.55,7.59-14.01,13.34-19.37,5.75-5.36,12.69-9.48,20.82-12.37,8.13-2.88,17.17-4.33,27.14-4.33Zm0,105.72c16.41,0,28.37-3.54,35.88-10.61,7.51-7.07,11.27-18.31,11.27-33.7,0-5.08-.65-10.23-1.96-15.46-1.3-5.22-3.68-9.96-7.13-14.22-3.45-4.26-8.25-7.76-14.38-10.51-6.13-2.75-14.03-4.12-23.69-4.12-15.03,0-26.61,3.85-34.73,11.54-8.13,7.7-12.19,18.62-12.19,32.77,0,29.54,15.64,44.31,46.92,44.31Z"/>
    <path class="cls-1" d="m739.3,408.37c7.21,0,13.26,1.07,18.17,3.19,4.91,2.13,8.89,5.02,11.96,8.66,3.07,3.64,5.33,7.93,6.79,12.88,1.46,4.95,2.18,10.24,2.18,15.87v77.08h-19.09v-77.08c0-6.73-1.46-12.33-4.37-16.8-2.92-4.46-8.13-6.7-15.64-6.7-6.9,0-13.11,1.41-18.63,4.23-5.52,2.82-10.2,6.53-14.03,11.13-3.83,4.61-6.79,9.76-8.86,15.46-2.07,5.7-3.11,11.44-3.11,17.21v52.55h-19.09v-112.94h19.09v24.94h1.84c1.84-3.57,3.99-7.11,6.44-10.61,2.45-3.5,5.37-6.66,8.74-9.48,3.37-2.81,7.32-5.12,11.85-6.9,4.52-1.78,9.78-2.68,15.76-2.68Z"/>
    <path class="cls-1" d="m899.39,503.59l16.56,8.45c-.15.14-1.04,1.2-2.64,3.19-1.61,1.99-4.18,4.16-7.71,6.49-3.53,2.34-8.17,4.43-13.92,6.29-5.75,1.85-12.77,2.78-21.05,2.78-7.82,0-15.57-1.07-23.23-3.19-7.67-2.13-14.53-5.7-20.59-10.72-6.06-5.01-11-11.61-14.84-19.78-3.83-8.17-5.75-18.31-5.75-30.4-4.45-2.47-8.17-4.98-11.16-7.52-2.99-2.54-5.45-4.88-7.36-7.01-1.92-2.13-3.3-3.92-4.14-5.36-.84-1.44-1.34-2.23-1.5-2.37l17.48-6.8v-.21c.15.28.96,1.44,2.42,3.5,1.46,2.06,4.1,4.47,7.94,7.21.77-2.2,2.19-5.46,4.26-9.79s5.25-8.66,9.55-12.98c4.29-4.33,10.01-8.14,17.14-11.44,7.13-3.3,16.14-4.95,27.03-4.95,8.13,0,15.41,1.13,21.85,3.4,6.44,2.27,11.92,5.19,16.45,8.76,4.52,3.57,7.97,7.66,10.35,12.26,2.38,4.61,3.57,9.17,3.57,13.71,0,2.34-.58,5.36-1.72,9.07-1.15,3.71-3.61,7.32-7.36,10.82-3.76,3.5-9.17,6.53-16.22,9.07-7.05,2.54-16.56,3.81-28.52,3.81-8.28,0-15.84-.48-22.66-1.44-6.83-.96-12.92-2.27-18.29-3.92.46,7.15,2.11,13.22,4.95,18.24,2.84,5.02,6.4,9.07,10.7,12.16,4.29,3.09,9.05,5.33,14.26,6.7,5.21,1.38,10.35,2.06,15.41,2.06,5.37,0,9.85-.51,13.46-1.55,3.6-1.03,6.56-2.16,8.86-3.4,2.3-1.24,3.95-2.4,4.95-3.5,1-1.1,1.5-1.72,1.5-1.86v.21Zm-31.51-77.49c-4.29,0-8.59.62-12.88,1.86-4.29,1.24-8.28,3.13-11.96,5.67-3.68,2.54-6.94,5.74-9.78,9.58-2.84,3.85-4.95,8.45-6.33,13.81,4.91,1.65,10.58,3.02,17.02,4.12,6.44,1.1,13.88,1.65,22.31,1.65,4.91,0,9.51-.27,13.8-.83,4.29-.55,7.97-1.44,11.04-2.68,3.07-1.24,5.48-2.85,7.25-4.84,1.76-1.99,2.65-4.43,2.65-7.32,0-2.47-.8-4.95-2.42-7.42-1.61-2.47-3.88-4.74-6.79-6.8-2.92-2.06-6.4-3.71-10.47-4.95-4.07-1.24-8.55-1.86-13.46-1.86Z"/>
  </g>
  <g>
    <circle class="cls-1" cx="371.21" cy="184.44" r="12.26"/>
    <path class="cls-1" d="m671.23,224.59c-9.81-12.3-28.29-35.52-41.93-52.8-5.1-6.47-16.32-6.78-23.89-3.02-.26-.33-.52-.66-.78-.98-5.48-6.94-15.55-8.5-22.93-3.55-.8.54-1.59,1.04-2.38,1.52-4.21-4-10.72-4.61-15.68-1.29-20.99,14.07-34.99,8.65-42.64,2.44-4.7-3.82-11.54-3.55-16.06.48-56.91,50.84-117.69,54.66-117.69,54.66-34.93,1.17-53.04-17.67-51.99-59.31,1.54-51.61,40.05-115.92,115.54-130.17,25.36-1.6,36.33,6.92,30.42,27.34-12.76,39.99-47.18,77.24-91.04,113.29-3.44,2.82-.72,8.35,3.61,7.36,10.72-2.44,21.51-7.26,32.36-13.97,53.75-33.15,93.92-71.62,87.81-128.25-7.86-24.93-36.65-33.39-78.57-23.88-122.47,40.05-197.57,126.71-187.56,223.37,4.59,42.09,40.22,73.75,89.82,91.3,23.06,10.69,49.77,17.89,78.29,21.31,20.15,4.15,41.57,6.3,63.54,6.3,7.98,0,16.04-.28,24.13-.85,55.83-3.93,107.51-20.91,149.44-49.1,5.81-3.9,8.71-11.01,7.24-17.67-4.17-18.85,3.73-34.06,11.09-43.5,4.83-6.2,4.76-14.84-.17-21.03Zm-105.72-19.57c10.63,0,19.26,8.62,19.26,19.26s-8.62,19.26-19.26,19.26-19.26-8.62-19.26-19.26,8.62-19.26,19.26-19.26Zm39.81,90.53c4.24-2.85,6.46-7.97,5.36-12.97-4.71-21.29,4.91-38.22,11.94-47.24,3.55-4.55,3.46-10.94-.14-15.45-8.71-10.93-24.42-30.65-37.42-47.1.55-.35,1.11-.71,1.66-1.08,3.5-2.35,8.27-1.62,10.86,1.65,13.65,17.3,32.15,40.53,41.96,52.84,2.33,2.92,2.37,6.98.11,9.88-7,8.97-17.97,27.53-12.78,50.98.68,3.08-.71,6.4-3.47,8.26-47.53,31.96-104.4,46.35-157.77,47.96,48.72-4.52,98.19-19.81,139.71-47.73Zm58.98-55.47c-7,8.97-17.97,27.53-12.78,50.98.68,3.08-.71,6.4-3.47,8.26-33.18,22.31-70.92,36.06-108.84,42.87,32.65-8.4,62.85-21.69,89.19-39.4,5.8-3.9,8.71-11,7.24-17.67-4.17-18.85,3.73-34.06,11.09-43.5,4.83-6.2,4.76-14.84-.17-21.03-8.31-10.42-22.84-28.66-35.37-44.5,4.14-1.35,9.3-.94,11.04,1.28,13.65,17.3,32.15,40.53,41.96,52.84,2.33,2.92,2.37,6.98.11,9.88Z"/>
  </g>
</svg>