<svg width="32" height="32" viewBox="0 0 32 32" fill="none" xmlns="http://www.w3.org/2000/svg">
<g id="messages01" clip-path="url(#clip0_1907_7822)">
<path id="Vector" d="M22.6667 28.8398H6.66667C5.6058 28.8398 4.58839 28.4184 3.83824 27.6683C3.08809 26.9181 2.66667 25.9007 2.66667 24.8398V14.1732C2.66667 13.8196 2.52619 13.4804 2.27614 13.2304C2.02609 12.9803 1.68696 12.8398 1.33333 12.8398C0.979711 12.8398 0.640573 12.9803 0.390524 13.2304C0.140476 13.4804 0 13.8196 0 14.1732L0 24.8398C0 26.608 0.702379 28.3036 1.95262 29.5539C3.20286 30.8041 4.89856 31.5065 6.66667 31.5065H22.6667C23.0203 31.5065 23.3594 31.366 23.6095 31.116C23.8595 30.8659 24 30.5268 24 30.1732C24 29.8196 23.8595 29.4804 23.6095 29.2304C23.3594 28.9803 23.0203 28.8398 22.6667 28.8398ZM28 4.83984H9.33333C8.27247 4.83984 7.25505 5.26127 6.50491 6.01142C5.75476 6.76156 5.33333 7.77898 5.33333 8.83984V22.1732C5.33333 23.234 5.75476 24.2515 6.50491 25.0016C7.25505 25.7517 8.27247 26.1732 9.33333 26.1732H28C29.0609 26.1732 30.0783 25.7517 30.8284 25.0016C31.5786 24.2515 32 23.234 32 22.1732V8.83984C32 7.77898 31.5786 6.76156 30.8284 6.01142C30.0783 5.26127 29.0609 4.83984 28 4.83984ZM27.4533 7.50651L19.6133 15.3465C19.4894 15.4715 19.3419 15.5707 19.1794 15.6384C19.017 15.7061 18.8427 15.7409 18.6667 15.7409C18.4907 15.7409 18.3164 15.7061 18.1539 15.6384C17.9914 15.5707 17.844 15.4715 17.72 15.3465L9.88 7.50651H27.4533ZM29.3333 22.1732C29.3333 22.5268 29.1929 22.8659 28.9428 23.116C28.6928 23.366 28.3536 23.5065 28 23.5065H9.33333C8.97971 23.5065 8.64057 23.366 8.39052 23.116C8.14048 22.8659 8 22.5268 8 22.1732V9.33318L15.84 17.1732C16.59 17.9222 17.6067 18.343 18.6667 18.343C19.7267 18.343 20.7433 17.9222 21.4933 17.1732L29.3333 9.33318V22.1732Z" fill="#029758"/>
</g>
<defs>
<clipPath id="clip0_1907_7822">
<rect width="32" height="32" fill="white"/>
</clipPath>
</defs>
</svg>
