<svg width="311" height="48" viewBox="0 0 311 48" fill="none" xmlns="http://www.w3.org/2000/svg">
<rect x="0.75" y="0.75" width="309.5" height="46.5" rx="7.25" fill="#1877F2"/>
<rect x="0.75" y="0.75" width="309.5" height="46.5" rx="7.25" stroke="#0C69E0" stroke-width="1.5"/>
<g clip-path="url(#clip0_1750_11059)">
<path d="M79.5 24C79.5 18.4771 75.0229 14 69.5 14C63.9771 14 59.5 18.4771 59.5 24C59.5 28.9912 63.1568 33.1283 67.9375 33.8785V26.8906H65.3984V24H67.9375V21.7969C67.9375 19.2906 69.4305 17.9063 71.7146 17.9063C72.8084 17.9063 73.9531 18.1016 73.9531 18.1016V20.5625H72.6922C71.45 20.5625 71.0625 21.3334 71.0625 22.125V24H73.8359L73.3926 26.8906H71.0625V33.8785C75.8432 33.1283 79.5 28.9912 79.5 24Z" fill="white"/>
</g>
<path d="M94.524 28.528H98.284V30H92.7V18.88H94.524V28.528ZM103.225 30.144C102.393 30.144 101.641 29.9573 100.969 29.584C100.297 29.2 99.7694 28.6667 99.3854 27.984C99.0014 27.2907 98.8094 26.4907 98.8094 25.584C98.8094 24.688 99.0067 23.8933 99.4014 23.2C99.796 22.5067 100.335 21.9733 101.017 21.6C101.7 21.2267 102.463 21.04 103.305 21.04C104.148 21.04 104.911 21.2267 105.593 21.6C106.276 21.9733 106.815 22.5067 107.209 23.2C107.604 23.8933 107.801 24.688 107.801 25.584C107.801 26.48 107.599 27.2747 107.193 27.968C106.788 28.6613 106.233 29.2 105.529 29.584C104.836 29.9573 104.068 30.144 103.225 30.144ZM103.225 28.56C103.695 28.56 104.132 28.448 104.537 28.224C104.953 28 105.289 27.664 105.545 27.216C105.801 26.768 105.929 26.224 105.929 25.584C105.929 24.944 105.807 24.4053 105.561 23.968C105.316 23.52 104.991 23.184 104.585 22.96C104.18 22.736 103.743 22.624 103.273 22.624C102.804 22.624 102.367 22.736 101.961 22.96C101.567 23.184 101.252 23.52 101.017 23.968C100.783 24.4053 100.665 24.944 100.665 25.584C100.665 26.5333 100.905 27.2693 101.385 27.792C101.876 28.304 102.489 28.56 103.225 28.56ZM112.749 21.04C113.431 21.04 114.034 21.1787 114.557 21.456C115.09 21.7227 115.506 22.0587 115.805 22.464V21.184H117.645V30.144C117.645 30.9547 117.474 31.6747 117.133 32.304C116.791 32.944 116.295 33.4453 115.645 33.808C115.005 34.1707 114.237 34.352 113.341 34.352C112.146 34.352 111.154 34.0693 110.365 33.504C109.575 32.9493 109.127 32.192 109.021 31.232H110.829C110.967 31.6907 111.261 32.0587 111.709 32.336C112.167 32.624 112.711 32.768 113.341 32.768C114.077 32.768 114.669 32.544 115.117 32.096C115.575 31.648 115.805 30.9973 115.805 30.144V28.672C115.495 29.088 115.074 29.44 114.541 29.728C114.018 30.0053 113.421 30.144 112.749 30.144C111.981 30.144 111.277 29.952 110.637 29.568C110.007 29.1733 109.506 28.6293 109.133 27.936C108.77 27.232 108.589 26.4373 108.589 25.552C108.589 24.6667 108.77 23.8827 109.133 23.2C109.506 22.5173 110.007 21.9893 110.637 21.616C111.277 21.232 111.981 21.04 112.749 21.04ZM115.805 25.584C115.805 24.976 115.677 24.448 115.421 24C115.175 23.552 114.85 23.2107 114.445 22.976C114.039 22.7413 113.602 22.624 113.133 22.624C112.663 22.624 112.226 22.7413 111.821 22.976C111.415 23.2 111.085 23.536 110.829 23.984C110.583 24.4213 110.461 24.944 110.461 25.552C110.461 26.16 110.583 26.6933 110.829 27.152C111.085 27.6107 111.415 27.9627 111.821 28.208C112.237 28.4427 112.674 28.56 113.133 28.56C113.602 28.56 114.039 28.4427 114.445 28.208C114.85 27.9733 115.175 27.632 115.421 27.184C115.677 26.7253 115.805 26.192 115.805 25.584ZM124.309 20.016C123.978 20.016 123.701 19.904 123.477 19.68C123.253 19.456 123.141 19.1787 123.141 18.848C123.141 18.5173 123.253 18.24 123.477 18.016C123.701 17.792 123.978 17.68 124.309 17.68C124.629 17.68 124.901 17.792 125.125 18.016C125.349 18.24 125.461 18.5173 125.461 18.848C125.461 19.1787 125.349 19.456 125.125 19.68C124.901 19.904 124.629 20.016 124.309 20.016ZM125.205 21.184V30H123.381V21.184H125.205ZM131.639 21.04C132.333 21.04 132.951 21.184 133.495 21.472C134.05 21.76 134.482 22.1867 134.791 22.752C135.101 23.3173 135.255 24 135.255 24.8V30H133.447V25.072C133.447 24.2827 133.25 23.68 132.855 23.264C132.461 22.8373 131.922 22.624 131.239 22.624C130.557 22.624 130.013 22.8373 129.607 23.264C129.213 23.68 129.015 24.2827 129.015 25.072V30H127.191V21.184H129.015V22.192C129.314 21.8293 129.693 21.5467 130.151 21.344C130.621 21.1413 131.117 21.04 131.639 21.04ZM152.762 21.184L150.026 30H148.106L146.33 23.488L144.554 30H142.634L139.882 21.184H141.738L143.578 28.272L145.45 21.184H147.354L149.146 28.24L150.97 21.184H152.762ZM154.645 20.016C154.315 20.016 154.037 19.904 153.813 19.68C153.589 19.456 153.477 19.1787 153.477 18.848C153.477 18.5173 153.589 18.24 153.813 18.016C154.037 17.792 154.315 17.68 154.645 17.68C154.965 17.68 155.237 17.792 155.461 18.016C155.685 18.24 155.797 18.5173 155.797 18.848C155.797 19.1787 155.685 19.456 155.461 19.68C155.237 19.904 154.965 20.016 154.645 20.016ZM155.541 21.184V30H153.717V21.184H155.541ZM159.656 22.672V27.552C159.656 27.8827 159.731 28.1227 159.88 28.272C160.04 28.4107 160.307 28.48 160.68 28.48H161.8V30H160.36C159.539 30 158.909 29.808 158.472 29.424C158.035 29.04 157.816 28.416 157.816 27.552V22.672H156.776V21.184H157.816V18.992H159.656V21.184H161.8V22.672H159.656ZM167.633 21.04C168.305 21.04 168.902 21.184 169.425 21.472C169.958 21.76 170.374 22.1867 170.673 22.752C170.982 23.3173 171.137 24 171.137 24.8V30H169.329V25.072C169.329 24.2827 169.132 23.68 168.737 23.264C168.342 22.8373 167.804 22.624 167.121 22.624C166.438 22.624 165.894 22.8373 165.489 23.264C165.094 23.68 164.897 24.2827 164.897 25.072V30H163.073V18.16H164.897V22.208C165.206 21.8347 165.596 21.5467 166.065 21.344C166.545 21.1413 167.068 21.04 167.633 21.04ZM183.348 18.88V20.368H178.628V23.648H182.308V25.136H178.628V30H176.804V18.88H183.348ZM184.022 25.552C184.022 24.6667 184.204 23.8827 184.566 23.2C184.94 22.5173 185.441 21.9893 186.07 21.616C186.71 21.232 187.414 21.04 188.182 21.04C188.876 21.04 189.478 21.1787 189.99 21.456C190.513 21.7227 190.929 22.0587 191.238 22.464V21.184H193.078V30H191.238V28.688C190.929 29.104 190.508 29.4507 189.974 29.728C189.441 30.0053 188.833 30.144 188.15 30.144C187.393 30.144 186.7 29.952 186.07 29.568C185.441 29.1733 184.94 28.6293 184.566 27.936C184.204 27.232 184.022 26.4373 184.022 25.552ZM191.238 25.584C191.238 24.976 191.11 24.448 190.854 24C190.609 23.552 190.284 23.2107 189.878 22.976C189.473 22.7413 189.036 22.624 188.566 22.624C188.097 22.624 187.66 22.7413 187.254 22.976C186.849 23.2 186.518 23.536 186.262 23.984C186.017 24.4213 185.894 24.944 185.894 25.552C185.894 26.16 186.017 26.6933 186.262 27.152C186.518 27.6107 186.849 27.9627 187.254 28.208C187.67 28.4427 188.108 28.56 188.566 28.56C189.036 28.56 189.473 28.4427 189.878 28.208C190.284 27.9733 190.609 27.632 190.854 27.184C191.11 26.7253 191.238 26.192 191.238 25.584ZM194.458 25.584C194.458 24.6773 194.639 23.8827 195.002 23.2C195.375 22.5067 195.887 21.9733 196.538 21.6C197.189 21.2267 197.935 21.04 198.778 21.04C199.845 21.04 200.725 21.296 201.418 21.808C202.122 22.3093 202.597 23.0293 202.842 23.968H200.874C200.714 23.5307 200.458 23.1893 200.106 22.944C199.754 22.6987 199.311 22.576 198.778 22.576C198.031 22.576 197.434 22.8427 196.986 23.376C196.549 23.8987 196.33 24.6347 196.33 25.584C196.33 26.5333 196.549 27.2747 196.986 27.808C197.434 28.3413 198.031 28.608 198.778 28.608C199.834 28.608 200.533 28.144 200.874 27.216H202.842C202.586 28.112 202.106 28.8267 201.402 29.36C200.698 29.8827 199.823 30.144 198.778 30.144C197.935 30.144 197.189 29.9573 196.538 29.584C195.887 29.2 195.375 28.6667 195.002 27.984C194.639 27.2907 194.458 26.4907 194.458 25.584ZM212.332 25.376C212.332 25.7067 212.311 26.0053 212.268 26.272H205.532C205.585 26.976 205.847 27.5413 206.316 27.968C206.785 28.3947 207.361 28.608 208.044 28.608C209.025 28.608 209.719 28.1973 210.124 27.376H212.092C211.825 28.1867 211.34 28.8533 210.636 29.376C209.943 29.888 209.079 30.144 208.044 30.144C207.201 30.144 206.444 29.9573 205.772 29.584C205.111 29.2 204.588 28.6667 204.204 27.984C203.831 27.2907 203.644 26.4907 203.644 25.584C203.644 24.6773 203.825 23.8827 204.188 23.2C204.561 22.5067 205.079 21.9733 205.74 21.6C206.412 21.2267 207.18 21.04 208.044 21.04C208.876 21.04 209.617 21.2213 210.268 21.584C210.919 21.9467 211.425 22.4587 211.788 23.12C212.151 23.7707 212.332 24.5227 212.332 25.376ZM210.428 24.8C210.417 24.128 210.177 23.5893 209.708 23.184C209.239 22.7787 208.657 22.576 207.964 22.576C207.335 22.576 206.796 22.7787 206.348 23.184C205.9 23.5787 205.633 24.1173 205.548 24.8H210.428ZM215.543 22.496C215.852 22.0693 216.274 21.7227 216.807 21.456C217.351 21.1787 217.954 21.04 218.615 21.04C219.394 21.04 220.098 21.2267 220.727 21.6C221.356 21.9733 221.852 22.5067 222.215 23.2C222.578 23.8827 222.759 24.6667 222.759 25.552C222.759 26.4373 222.578 27.232 222.215 27.936C221.852 28.6293 221.351 29.1733 220.711 29.568C220.082 29.952 219.383 30.144 218.615 30.144C217.932 30.144 217.324 30.0107 216.791 29.744C216.268 29.4773 215.852 29.136 215.543 28.72V30H213.719V18.16H215.543V22.496ZM220.903 25.552C220.903 24.944 220.775 24.4213 220.519 23.984C220.274 23.536 219.943 23.2 219.527 22.976C219.122 22.7413 218.684 22.624 218.215 22.624C217.756 22.624 217.319 22.7413 216.903 22.976C216.498 23.2107 216.167 23.552 215.911 24C215.666 24.448 215.543 24.976 215.543 25.584C215.543 26.192 215.666 26.7253 215.911 27.184C216.167 27.632 216.498 27.9733 216.903 28.208C217.319 28.4427 217.756 28.56 218.215 28.56C218.684 28.56 219.122 28.4427 219.527 28.208C219.943 27.9627 220.274 27.6107 220.519 27.152C220.775 26.6933 220.903 26.16 220.903 25.552ZM227.979 30.144C227.147 30.144 226.395 29.9573 225.723 29.584C225.051 29.2 224.523 28.6667 224.139 27.984C223.755 27.2907 223.563 26.4907 223.563 25.584C223.563 24.688 223.76 23.8933 224.155 23.2C224.549 22.5067 225.088 21.9733 225.771 21.6C226.453 21.2267 227.216 21.04 228.059 21.04C228.901 21.04 229.664 21.2267 230.347 21.6C231.029 21.9733 231.568 22.5067 231.963 23.2C232.357 23.8933 232.555 24.688 232.555 25.584C232.555 26.48 232.352 27.2747 231.947 27.968C231.541 28.6613 230.987 29.2 230.283 29.584C229.589 29.9573 228.821 30.144 227.979 30.144ZM227.979 28.56C228.448 28.56 228.885 28.448 229.291 28.224C229.707 28 230.043 27.664 230.299 27.216C230.555 26.768 230.683 26.224 230.683 25.584C230.683 24.944 230.56 24.4053 230.315 23.968C230.069 23.52 229.744 23.184 229.339 22.96C228.933 22.736 228.496 22.624 228.027 22.624C227.557 22.624 227.12 22.736 226.715 22.96C226.32 23.184 226.005 23.52 225.771 23.968C225.536 24.4053 225.419 24.944 225.419 25.584C225.419 26.5333 225.659 27.2693 226.139 27.792C226.629 28.304 227.243 28.56 227.979 28.56ZM237.774 30.144C236.942 30.144 236.19 29.9573 235.518 29.584C234.846 29.2 234.318 28.6667 233.934 27.984C233.55 27.2907 233.358 26.4907 233.358 25.584C233.358 24.688 233.555 23.8933 233.95 23.2C234.344 22.5067 234.883 21.9733 235.566 21.6C236.248 21.2267 237.011 21.04 237.854 21.04C238.696 21.04 239.459 21.2267 240.142 21.6C240.824 21.9733 241.363 22.5067 241.758 23.2C242.152 23.8933 242.35 24.688 242.35 25.584C242.35 26.48 242.147 27.2747 241.742 27.968C241.336 28.6613 240.782 29.2 240.078 29.584C239.384 29.9573 238.616 30.144 237.774 30.144ZM237.774 28.56C238.243 28.56 238.68 28.448 239.086 28.224C239.502 28 239.838 27.664 240.094 27.216C240.35 26.768 240.478 26.224 240.478 25.584C240.478 24.944 240.355 24.4053 240.11 23.968C239.864 23.52 239.539 23.184 239.134 22.96C238.728 22.736 238.291 22.624 237.822 22.624C237.352 22.624 236.915 22.736 236.51 22.96C236.115 23.184 235.8 23.52 235.566 23.968C235.331 24.4053 235.214 24.944 235.214 25.584C235.214 26.5333 235.454 27.2693 235.934 27.792C236.424 28.304 237.038 28.56 237.774 28.56ZM247.233 25.6L251.297 30H248.833L245.569 26.208V30H243.745V18.16H245.569V25.04L248.769 21.184H251.297L247.233 25.6Z" fill="white"/>
<defs>
<clipPath id="clip0_1750_11059">
<rect width="20" height="20" fill="white" transform="translate(59.5 14)"/>
</clipPath>
</defs>
</svg>
