<svg width="41" height="40" viewBox="0 0 41 40" fill="none" xmlns="http://www.w3.org/2000/svg">
<path d="M34.1665 19.4165C34.166 18.1095 34.6381 16.8463 35.4957 15.86C36.3534 14.8737 37.5387 14.2308 38.8332 14.0498C38.8332 11.0332 38.5498 9.29984 37.3998 8.13317C35.9165 6.6665 33.5498 6.6665 28.8332 6.6665H12.1665C7.4665 6.6665 5.09984 6.6665 3.63317 8.13317C2.4665 9.29984 2.1665 11.0332 2.1665 14.0498C3.4382 14.2594 4.59401 14.9142 5.42749 15.8972C6.26096 16.8803 6.71784 18.1277 6.7165 19.4165C6.71844 20.7073 6.26216 21.9569 5.42892 22.9427C4.59568 23.9286 3.43958 24.5867 2.1665 24.7998C2.1665 28.5498 2.33317 30.5832 3.63317 31.8665C4.93317 33.1498 7.4665 33.3332 12.1665 33.3332H28.8332C33.5498 33.3332 35.9165 33.3332 37.3832 31.8665C38.8498 30.3998 38.8165 28.5332 38.8165 24.7998C37.5237 24.6115 36.3421 23.9636 35.488 22.9749C34.634 21.9862 34.1649 20.723 34.1665 19.4165ZM11.6165 15.6165C11.6165 15.0462 11.7856 14.4888 12.1024 14.0146C12.4193 13.5404 12.8696 13.1709 13.3964 12.9527C13.9233 12.7344 14.503 12.6773 15.0623 12.7886C15.6217 12.8998 16.1354 13.1744 16.5387 13.5777C16.9419 13.9809 17.2165 14.4947 17.3278 15.054C17.439 15.6133 17.3819 16.193 17.1637 16.7199C16.9455 17.2468 16.5759 17.6971 16.1017 18.0139C15.6276 18.3307 15.0701 18.4998 14.4998 18.4998C14.1206 18.5021 13.7446 18.429 13.3938 18.2849C13.043 18.1407 12.7243 17.9284 12.4561 17.6603C12.1879 17.3921 11.9756 17.0733 11.8315 16.7225C11.6874 16.3717 11.6143 15.9958 11.6165 15.6165ZM15.4832 27.2832C15.0334 27.2921 14.5911 27.167 14.2126 26.9238C13.8342 26.6806 13.5367 26.3303 13.3579 25.9174C13.1792 25.5046 13.1274 25.0479 13.209 24.6055C13.2907 24.1631 13.5022 23.755 13.8165 23.4332L23.8165 13.4332C24.0288 13.2132 24.2824 13.0372 24.5627 12.9152C24.843 12.7933 25.1446 12.7277 25.4503 12.7223C25.7559 12.7169 26.0597 12.7717 26.3441 12.8837C26.6286 12.9956 26.8882 13.1625 27.1082 13.3748C27.3281 13.5871 27.5041 13.8407 27.6261 14.121C27.7481 14.4013 27.8136 14.7029 27.8191 15.0086C27.8245 15.3142 27.7696 15.618 27.6577 15.9024C27.5457 16.1869 27.3788 16.4465 27.1665 16.6665L17.1665 26.6665C16.9443 26.8749 16.6818 27.0356 16.3952 27.1388C16.1086 27.242 15.8039 27.2854 15.4998 27.2665L15.4832 27.2832ZM26.5332 27.2832C25.9622 27.2865 25.4031 27.1202 24.9268 26.8054C24.4504 26.4906 24.0783 26.0414 23.8575 25.5148C23.6367 24.9883 23.5772 24.408 23.6866 23.8476C23.7959 23.2872 24.0692 22.7719 24.4718 22.367C24.8743 21.9621 25.3881 21.6858 25.9478 21.5732C26.5076 21.4606 27.0882 21.5167 27.616 21.7344C28.1439 21.9522 28.5952 22.3217 28.9127 22.7962C29.2303 23.2707 29.3998 23.8289 29.3998 24.3998C29.3955 25.1588 29.092 25.8854 28.5554 26.422C28.0187 26.9587 27.2921 27.2621 26.5332 27.2665V27.2832Z" fill="#029758"/>
</svg>
