<svg width="311" height="48" viewBox="0 0 311 48" fill="none" xmlns="http://www.w3.org/2000/svg">
<rect x="0.75" y="0.75" width="309.5" height="46.5" rx="7.25" fill="white"/>
<rect x="0.75" y="0.75" width="309.5" height="46.5" rx="7.25" stroke="#D0D0D0" stroke-width="1.5"/>
<g clip-path="url(#clip0_1750_11060)">
<path d="M89.3052 24.2305C89.3052 23.5507 89.2501 22.8672 89.1325 22.1985H79.7002V26.0493H85.1016C84.8775 27.2913 84.1573 28.3899 83.1027 29.0881V31.5867H86.3252C88.2176 29.845 89.3052 27.2729 89.3052 24.2305Z" fill="#4285F4"/>
<path d="M79.6999 34.0008C82.397 34.0008 84.6714 33.1152 86.3286 31.5867L83.1061 29.088C82.2096 29.698 81.0521 30.0434 79.7036 30.0434C77.0947 30.0434 74.8827 28.2833 74.089 25.917H70.7637V28.4928C72.4613 31.8696 75.9189 34.0008 79.6999 34.0008Z" fill="#34A853"/>
<path d="M74.0856 25.917C73.6668 24.675 73.6668 23.3302 74.0856 22.0882V19.5125H70.7639C69.3456 22.3381 69.3456 25.6671 70.7639 28.4928L74.0856 25.917Z" fill="#FBBC04"/>
<path d="M79.6999 17.9581C81.1256 17.936 82.5035 18.4725 83.536 19.4572L86.3911 16.6022C84.5833 14.9046 82.1838 13.9713 79.6999 14.0007C75.9189 14.0007 72.4613 16.1319 70.7637 19.5123L74.0854 22.0881C74.8754 19.7181 77.0911 17.9581 79.6999 17.9581Z" fill="#EA4335"/>
</g>
<path d="M104.524 28.528H108.284V30H102.7V18.88H104.524V28.528ZM113.225 30.144C112.393 30.144 111.641 29.9573 110.969 29.584C110.297 29.2 109.769 28.6667 109.385 27.984C109.001 27.2907 108.809 26.4907 108.809 25.584C108.809 24.688 109.007 23.8933 109.401 23.2C109.796 22.5067 110.335 21.9733 111.017 21.6C111.7 21.2267 112.463 21.04 113.305 21.04C114.148 21.04 114.911 21.2267 115.593 21.6C116.276 21.9733 116.815 22.5067 117.209 23.2C117.604 23.8933 117.801 24.688 117.801 25.584C117.801 26.48 117.599 27.2747 117.193 27.968C116.788 28.6613 116.233 29.2 115.529 29.584C114.836 29.9573 114.068 30.144 113.225 30.144ZM113.225 28.56C113.695 28.56 114.132 28.448 114.537 28.224C114.953 28 115.289 27.664 115.545 27.216C115.801 26.768 115.929 26.224 115.929 25.584C115.929 24.944 115.807 24.4053 115.561 23.968C115.316 23.52 114.991 23.184 114.585 22.96C114.18 22.736 113.743 22.624 113.273 22.624C112.804 22.624 112.367 22.736 111.961 22.96C111.567 23.184 111.252 23.52 111.017 23.968C110.783 24.4053 110.665 24.944 110.665 25.584C110.665 26.5333 110.905 27.2693 111.385 27.792C111.876 28.304 112.489 28.56 113.225 28.56ZM122.749 21.04C123.431 21.04 124.034 21.1787 124.557 21.456C125.09 21.7227 125.506 22.0587 125.805 22.464V21.184H127.645V30.144C127.645 30.9547 127.474 31.6747 127.133 32.304C126.791 32.944 126.295 33.4453 125.645 33.808C125.005 34.1707 124.237 34.352 123.341 34.352C122.146 34.352 121.154 34.0693 120.365 33.504C119.575 32.9493 119.127 32.192 119.021 31.232H120.829C120.967 31.6907 121.261 32.0587 121.709 32.336C122.167 32.624 122.711 32.768 123.341 32.768C124.077 32.768 124.669 32.544 125.117 32.096C125.575 31.648 125.805 30.9973 125.805 30.144V28.672C125.495 29.088 125.074 29.44 124.541 29.728C124.018 30.0053 123.421 30.144 122.749 30.144C121.981 30.144 121.277 29.952 120.637 29.568C120.007 29.1733 119.506 28.6293 119.133 27.936C118.77 27.232 118.589 26.4373 118.589 25.552C118.589 24.6667 118.77 23.8827 119.133 23.2C119.506 22.5173 120.007 21.9893 120.637 21.616C121.277 21.232 121.981 21.04 122.749 21.04ZM125.805 25.584C125.805 24.976 125.677 24.448 125.421 24C125.175 23.552 124.85 23.2107 124.445 22.976C124.039 22.7413 123.602 22.624 123.133 22.624C122.663 22.624 122.226 22.7413 121.821 22.976C121.415 23.2 121.085 23.536 120.829 23.984C120.583 24.4213 120.461 24.944 120.461 25.552C120.461 26.16 120.583 26.6933 120.829 27.152C121.085 27.6107 121.415 27.9627 121.821 28.208C122.237 28.4427 122.674 28.56 123.133 28.56C123.602 28.56 124.039 28.4427 124.445 28.208C124.85 27.9733 125.175 27.632 125.421 27.184C125.677 26.7253 125.805 26.192 125.805 25.584ZM134.309 20.016C133.978 20.016 133.701 19.904 133.477 19.68C133.253 19.456 133.141 19.1787 133.141 18.848C133.141 18.5173 133.253 18.24 133.477 18.016C133.701 17.792 133.978 17.68 134.309 17.68C134.629 17.68 134.901 17.792 135.125 18.016C135.349 18.24 135.461 18.5173 135.461 18.848C135.461 19.1787 135.349 19.456 135.125 19.68C134.901 19.904 134.629 20.016 134.309 20.016ZM135.205 21.184V30H133.381V21.184H135.205ZM141.639 21.04C142.333 21.04 142.951 21.184 143.495 21.472C144.05 21.76 144.482 22.1867 144.791 22.752C145.101 23.3173 145.255 24 145.255 24.8V30H143.447V25.072C143.447 24.2827 143.25 23.68 142.855 23.264C142.461 22.8373 141.922 22.624 141.239 22.624C140.557 22.624 140.013 22.8373 139.607 23.264C139.213 23.68 139.015 24.2827 139.015 25.072V30H137.191V21.184H139.015V22.192C139.314 21.8293 139.693 21.5467 140.151 21.344C140.621 21.1413 141.117 21.04 141.639 21.04ZM162.762 21.184L160.026 30H158.106L156.33 23.488L154.554 30H152.634L149.882 21.184H151.738L153.578 28.272L155.45 21.184H157.354L159.146 28.24L160.97 21.184H162.762ZM164.645 20.016C164.315 20.016 164.037 19.904 163.813 19.68C163.589 19.456 163.477 19.1787 163.477 18.848C163.477 18.5173 163.589 18.24 163.813 18.016C164.037 17.792 164.315 17.68 164.645 17.68C164.965 17.68 165.237 17.792 165.461 18.016C165.685 18.24 165.797 18.5173 165.797 18.848C165.797 19.1787 165.685 19.456 165.461 19.68C165.237 19.904 164.965 20.016 164.645 20.016ZM165.541 21.184V30H163.717V21.184H165.541ZM169.656 22.672V27.552C169.656 27.8827 169.731 28.1227 169.88 28.272C170.04 28.4107 170.307 28.48 170.68 28.48H171.8V30H170.36C169.539 30 168.909 29.808 168.472 29.424C168.035 29.04 167.816 28.416 167.816 27.552V22.672H166.776V21.184H167.816V18.992H169.656V21.184H171.8V22.672H169.656ZM177.633 21.04C178.305 21.04 178.902 21.184 179.425 21.472C179.958 21.76 180.374 22.1867 180.673 22.752C180.982 23.3173 181.137 24 181.137 24.8V30H179.329V25.072C179.329 24.2827 179.132 23.68 178.737 23.264C178.342 22.8373 177.804 22.624 177.121 22.624C176.438 22.624 175.894 22.8373 175.489 23.264C175.094 23.68 174.897 24.2827 174.897 25.072V30H173.073V18.16H174.897V22.208C175.206 21.8347 175.596 21.5467 176.065 21.344C176.545 21.1413 177.068 21.04 177.633 21.04ZM194.852 22.08C194.564 21.5253 194.164 21.1093 193.652 20.832C193.14 20.544 192.548 20.4 191.876 20.4C191.14 20.4 190.484 20.5653 189.908 20.896C189.332 21.2267 188.879 21.696 188.548 22.304C188.228 22.912 188.068 23.616 188.068 24.416C188.068 25.216 188.228 25.9253 188.548 26.544C188.879 27.152 189.332 27.6213 189.908 27.952C190.484 28.2827 191.14 28.448 191.876 28.448C192.868 28.448 193.673 28.1707 194.292 27.616C194.911 27.0613 195.289 26.3093 195.428 25.36H191.252V23.904H197.38V25.328C197.263 26.192 196.953 26.9867 196.452 27.712C195.961 28.4373 195.316 29.0187 194.516 29.456C193.727 29.8827 192.847 30.096 191.876 30.096C190.831 30.096 189.876 29.856 189.012 29.376C188.148 28.8853 187.46 28.208 186.948 27.344C186.447 26.48 186.196 25.504 186.196 24.416C186.196 23.328 186.447 22.352 186.948 21.488C187.46 20.624 188.148 19.952 189.012 19.472C189.887 18.9813 190.841 18.736 191.876 18.736C193.06 18.736 194.111 19.0293 195.028 19.616C195.956 20.192 196.628 21.0133 197.044 22.08H194.852ZM202.595 30.144C201.763 30.144 201.011 29.9573 200.339 29.584C199.667 29.2 199.139 28.6667 198.755 27.984C198.371 27.2907 198.179 26.4907 198.179 25.584C198.179 24.688 198.376 23.8933 198.771 23.2C199.166 22.5067 199.704 21.9733 200.387 21.6C201.07 21.2267 201.832 21.04 202.675 21.04C203.518 21.04 204.28 21.2267 204.963 21.6C205.646 21.9733 206.184 22.5067 206.579 23.2C206.974 23.8933 207.171 24.688 207.171 25.584C207.171 26.48 206.968 27.2747 206.563 27.968C206.158 28.6613 205.603 29.2 204.899 29.584C204.206 29.9573 203.438 30.144 202.595 30.144ZM202.595 28.56C203.064 28.56 203.502 28.448 203.907 28.224C204.323 28 204.659 27.664 204.915 27.216C205.171 26.768 205.299 26.224 205.299 25.584C205.299 24.944 205.176 24.4053 204.931 23.968C204.686 23.52 204.36 23.184 203.955 22.96C203.55 22.736 203.112 22.624 202.643 22.624C202.174 22.624 201.736 22.736 201.331 22.96C200.936 23.184 200.622 23.52 200.387 23.968C200.152 24.4053 200.035 24.944 200.035 25.584C200.035 26.5333 200.275 27.2693 200.755 27.792C201.246 28.304 201.859 28.56 202.595 28.56ZM212.39 30.144C211.558 30.144 210.806 29.9573 210.134 29.584C209.462 29.2 208.934 28.6667 208.55 27.984C208.166 27.2907 207.974 26.4907 207.974 25.584C207.974 24.688 208.171 23.8933 208.566 23.2C208.961 22.5067 209.499 21.9733 210.182 21.6C210.865 21.2267 211.627 21.04 212.47 21.04C213.313 21.04 214.075 21.2267 214.758 21.6C215.441 21.9733 215.979 22.5067 216.374 23.2C216.769 23.8933 216.966 24.688 216.966 25.584C216.966 26.48 216.763 27.2747 216.358 27.968C215.953 28.6613 215.398 29.2 214.694 29.584C214.001 29.9573 213.233 30.144 212.39 30.144ZM212.39 28.56C212.859 28.56 213.297 28.448 213.702 28.224C214.118 28 214.454 27.664 214.71 27.216C214.966 26.768 215.094 26.224 215.094 25.584C215.094 24.944 214.971 24.4053 214.726 23.968C214.481 23.52 214.155 23.184 213.75 22.96C213.345 22.736 212.907 22.624 212.438 22.624C211.969 22.624 211.531 22.736 211.126 22.96C210.731 23.184 210.417 23.52 210.182 23.968C209.947 24.4053 209.83 24.944 209.83 25.584C209.83 26.5333 210.07 27.2693 210.55 27.792C211.041 28.304 211.654 28.56 212.39 28.56ZM221.913 21.04C222.596 21.04 223.199 21.1787 223.721 21.456C224.255 21.7227 224.671 22.0587 224.969 22.464V21.184H226.809V30.144C226.809 30.9547 226.639 31.6747 226.297 32.304C225.956 32.944 225.46 33.4453 224.809 33.808C224.169 34.1707 223.401 34.352 222.505 34.352C221.311 34.352 220.319 34.0693 219.529 33.504C218.74 32.9493 218.292 32.192 218.185 31.232H219.993C220.132 31.6907 220.425 32.0587 220.873 32.336C221.332 32.624 221.876 32.768 222.505 32.768C223.241 32.768 223.833 32.544 224.281 32.096C224.74 31.648 224.969 30.9973 224.969 30.144V28.672C224.66 29.088 224.239 29.44 223.705 29.728C223.183 30.0053 222.585 30.144 221.913 30.144C221.145 30.144 220.441 29.952 219.801 29.568C219.172 29.1733 218.671 28.6293 218.297 27.936C217.935 27.232 217.753 26.4373 217.753 25.552C217.753 24.6667 217.935 23.8827 218.297 23.2C218.671 22.5173 219.172 21.9893 219.801 21.616C220.441 21.232 221.145 21.04 221.913 21.04ZM224.969 25.584C224.969 24.976 224.841 24.448 224.585 24C224.34 23.552 224.015 23.2107 223.609 22.976C223.204 22.7413 222.767 22.624 222.297 22.624C221.828 22.624 221.391 22.7413 220.985 22.976C220.58 23.2 220.249 23.536 219.993 23.984C219.748 24.4213 219.625 24.944 219.625 25.552C219.625 26.16 219.748 26.6933 219.993 27.152C220.249 27.6107 220.58 27.9627 220.985 28.208C221.401 28.4427 221.839 28.56 222.297 28.56C222.767 28.56 223.204 28.4427 223.609 28.208C224.015 27.9733 224.34 27.632 224.585 27.184C224.841 26.7253 224.969 26.192 224.969 25.584ZM230.621 18.16V30H228.797V18.16H230.621ZM240.688 25.376C240.688 25.7067 240.666 26.0053 240.624 26.272H233.888C233.941 26.976 234.202 27.5413 234.672 27.968C235.141 28.3947 235.717 28.608 236.4 28.608C237.381 28.608 238.074 28.1973 238.48 27.376H240.448C240.181 28.1867 239.696 28.8533 238.992 29.376C238.298 29.888 237.434 30.144 236.4 30.144C235.557 30.144 234.8 29.9573 234.128 29.584C233.466 29.2 232.944 28.6667 232.56 27.984C232.186 27.2907 232 26.4907 232 25.584C232 24.6773 232.181 23.8827 232.544 23.2C232.917 22.5067 233.434 21.9733 234.096 21.6C234.768 21.2267 235.536 21.04 236.4 21.04C237.232 21.04 237.973 21.2213 238.624 21.584C239.274 21.9467 239.781 22.4587 240.144 23.12C240.506 23.7707 240.688 24.5227 240.688 25.376ZM238.784 24.8C238.773 24.128 238.533 23.5893 238.064 23.184C237.594 22.7787 237.013 22.576 236.32 22.576C235.69 22.576 235.152 22.7787 234.704 23.184C234.256 23.5787 233.989 24.1173 233.904 24.8H238.784Z" fill="#161616"/>
<defs>
<clipPath id="clip0_1750_11060">
<rect width="20" height="20" fill="white" transform="translate(69.5 14)"/>
</clipPath>
</defs>
</svg>
