<svg width="25" height="24" viewBox="0 0 25 24" fill="none" xmlns="http://www.w3.org/2000/svg">
<g id="Vertical container">
<g id="Vertical container_2">
<path id="search" d="M21.5412 19.2848L18.1423 15.8958C19.2389 14.4988 19.834 12.7735 19.8318 10.9974C19.8318 9.41569 19.3627 7.86947 18.484 6.5543C17.6052 5.23913 16.3562 4.21408 14.8948 3.60877C13.4335 3.00347 11.8255 2.84509 10.2741 3.15367C8.72277 3.46225 7.29777 4.22393 6.17931 5.34239C5.06085 6.46085 4.29917 7.88586 3.99059 9.43721C3.682 10.9886 3.84038 12.5966 4.44569 14.0579C5.05099 15.5192 6.07604 16.7683 7.39121 17.647C8.70638 18.5258 10.2526 18.9948 11.8343 18.9948C13.6104 18.9971 15.3357 18.402 16.7328 17.3054L20.1217 20.7043C20.2146 20.798 20.3252 20.8724 20.447 20.9231C20.5688 20.9739 20.6995 21 20.8314 21C20.9634 21 21.0941 20.9739 21.2159 20.9231C21.3377 20.8724 21.4483 20.798 21.5412 20.7043C21.6349 20.6114 21.7093 20.5008 21.76 20.379C21.8108 20.2572 21.8369 20.1265 21.8369 19.9945C21.8369 19.8626 21.8108 19.7319 21.76 19.6101C21.7093 19.4883 21.6349 19.3777 21.5412 19.2848ZM5.83627 10.9974C5.83627 9.81112 6.18805 8.65146 6.84713 7.66508C7.50621 6.6787 8.44298 5.90991 9.53898 5.45593C10.635 5.00196 11.841 4.88317 13.0045 5.11461C14.168 5.34605 15.2368 5.91731 16.0756 6.75615C16.9145 7.595 17.4857 8.66375 17.7172 9.82726C17.9486 10.9908 17.8298 12.1968 17.3758 13.2928C16.9219 14.3888 16.1531 15.3256 15.1667 15.9846C14.1803 16.6437 13.0206 16.9955 11.8343 16.9955C10.2436 16.9955 8.71792 16.3636 7.59307 15.2387C6.46821 14.1138 5.83627 12.5882 5.83627 10.9974Z" fill="white"/>
</g>
</g>
</svg>
