<svg width="40" height="40" viewBox="0 0 40 40" fill="none" xmlns="http://www.w3.org/2000/svg">
<path id="Subtract" fill-rule="evenodd" clip-rule="evenodd" d="M31.911 0H8.08896C3.62155 0 0 3.62155 0 8.08896V31.911C0 36.3784 3.62155 40 8.08896 40H31.911C36.3785 40 40 36.3784 40 31.911V8.08896C40 3.62155 36.3785 0 31.911 0ZM15.7205 25.1263H15.7195C13.8226 25.1263 12.2848 26.6641 12.2848 28.561V28.562C12.2848 30.4589 13.8226 31.9967 15.7195 31.9967H15.7205C17.6174 31.9967 19.1552 30.4589 19.1552 28.562V28.561C19.1552 26.6641 17.6174 25.1263 15.7205 25.1263ZM21.0858 31.756C21.2389 31.9094 21.4466 31.9959 21.6633 31.9967C23.2672 31.9918 24.8039 31.3525 25.938 30.2185C27.072 29.0844 27.7113 27.5477 27.7162 25.9438C27.7154 25.7271 27.6289 25.5194 27.4755 25.3662C27.3222 25.2131 27.1144 25.1268 26.8977 25.1263H21.6633C21.4467 25.1268 21.239 25.2131 21.0858 25.3663C20.9326 25.5195 20.8463 25.7272 20.8458 25.9438V31.1782C20.8463 31.3949 20.9326 31.6027 21.0858 31.756ZM18.3376 23.4357C16.7346 23.4298 15.199 22.79 14.0659 21.656C12.9328 20.522 12.2943 18.9859 12.2897 17.3828C12.2904 17.1661 12.3769 16.9584 12.5303 16.8052C12.6837 16.6521 12.8914 16.5658 13.1082 16.5653H18.3425C18.5592 16.5658 18.7668 16.6521 18.92 16.8053C19.0732 16.9585 19.1595 17.1662 19.1601 17.3828V22.6181C19.1598 22.7258 19.1383 22.8324 19.0968 22.9318C19.0554 23.0312 18.9947 23.1215 18.9183 23.1974C18.8419 23.2733 18.7513 23.3334 18.6517 23.3743C18.5521 23.4152 18.4453 23.4361 18.3376 23.4357ZM21.6633 16.5653H26.8986C27.3502 16.5653 27.7162 16.9313 27.7162 17.3828V22.6181C27.7162 23.0697 27.3502 23.4357 26.8986 23.4357H21.6633C21.2118 23.4357 20.8458 23.0697 20.8458 22.6181V17.3828C20.8458 16.9313 21.2118 16.5653 21.6633 16.5653ZM18.3376 14.8747H13.1033C12.8866 14.8742 12.6788 14.7879 12.5254 14.6347C12.3721 14.4815 12.2856 14.2739 12.2848 14.0571V8.82281C12.2856 8.60604 12.3721 8.3984 12.5254 8.24521C12.6788 8.09203 12.8866 8.00576 13.1033 8.00525C14.707 8.00987 16.2436 8.64896 17.3775 9.78291C18.5115 10.9169 19.1506 12.4535 19.1552 14.0571C19.1547 14.2738 19.0684 14.4814 18.9152 14.6347C18.762 14.7879 18.5543 14.8742 18.3376 14.8747ZM21.6633 14.8747H26.8977C27.1141 14.8742 27.3215 14.7882 27.4749 14.6354C27.6282 14.4826 27.7149 14.2755 27.7162 14.0591V8.82476C27.7154 8.608 27.6289 8.40035 27.4755 8.24716C27.3222 8.09398 27.1144 8.00771 26.8977 8.0072C25.2944 8.01182 23.758 8.65064 22.6241 9.78417C21.4902 10.9177 20.8509 12.4538 20.8458 14.0571C20.8463 14.2738 20.9326 14.4814 21.0858 14.6347C21.239 14.7879 21.4467 14.8742 21.6633 14.8747Z" fill="white"/>
</svg>
