<svg width="33" height="32" viewBox="0 0 33 32" fill="none" xmlns="http://www.w3.org/2000/svg">
<path d="M7.16667 28H25.8333C27.3061 28 28.5 26.8061 28.5 25.3333V6.66667C28.5 5.19391 27.3061 4 25.8333 4H7.16667C5.69391 4 4.5 5.19391 4.5 6.66667V25.3333C4.5 26.8061 5.69391 28 7.16667 28ZM7.16667 28L21.8333 13.3333L28.5 20M13.8333 11.3333C13.8333 12.4379 12.9379 13.3333 11.8333 13.3333C10.7288 13.3333 9.83333 12.4379 9.83333 11.3333C9.83333 10.2288 10.7288 9.33333 11.8333 9.33333C12.9379 9.33333 13.8333 10.2288 13.8333 11.3333Z" stroke="#667085" stroke-width="2" stroke-linecap="round" stroke-linejoin="round"/>
</svg>
