<svg width="16" height="16" viewBox="0 0 16 16" fill="none" xmlns="http://www.w3.org/2000/svg">
<g id="Key">
<path id="Vector" d="M14.0001 2.93996L14.4734 2.47329C14.5989 2.34776 14.6695 2.1775 14.6695 1.99996C14.6695 1.82243 14.5989 1.65216 14.4734 1.52663C14.3479 1.40109 14.1776 1.33057 14.0001 1.33057C13.8225 1.33057 13.6523 1.40109 13.5267 1.52663L12.5934 2.46663L10.7067 4.35329L6.50006 8.55329C5.81076 8.09852 4.97718 7.9158 4.16084 8.04055C3.34451 8.1653 2.60354 8.58864 2.08152 9.22853C1.5595 9.86842 1.29359 10.6793 1.33532 11.5041C1.37704 12.3288 1.72343 13.1087 2.30737 13.6927C2.89131 14.2766 3.67121 14.623 4.49597 14.6647C5.32072 14.7064 6.13161 14.4405 6.7715 13.9185C7.41139 13.3965 7.83472 12.6555 7.95947 11.8392C8.08422 11.0228 7.90151 10.1893 7.44673 9.49996L11.1734 5.76663L12.5867 7.18663C12.6489 7.24835 12.7226 7.29722 12.8036 7.33046C12.8847 7.36369 12.9715 7.38064 13.0591 7.38033C13.1467 7.38002 13.2334 7.36246 13.3142 7.32865C13.395 7.29485 13.4683 7.24545 13.5301 7.18329C13.5918 7.12113 13.6407 7.04743 13.6739 6.96638C13.7071 6.88533 13.7241 6.79853 13.7238 6.71094C13.7235 6.62334 13.7059 6.53666 13.6721 6.45585C13.6383 6.37504 13.5889 6.30168 13.5267 6.23996L12.1134 4.82663L13.0601 3.88663L13.5267 4.35329C13.5885 4.41545 13.6618 4.46485 13.7426 4.49865C13.8234 4.53246 13.9101 4.55002 13.9977 4.55033C14.0853 4.55064 14.1721 4.53369 14.2531 4.50046C14.3342 4.46722 14.4079 4.41835 14.4701 4.35663C14.5322 4.29491 14.5816 4.22155 14.6154 4.14074C14.6492 4.05993 14.6668 3.97325 14.6671 3.88565C14.6674 3.79805 14.6505 3.71125 14.6172 3.63021C14.584 3.54916 14.5351 3.47545 14.4734 3.41329L14.0001 2.93996ZM4.66673 13.3333C4.27117 13.3333 3.88449 13.216 3.55559 12.9962C3.22669 12.7765 2.97035 12.4641 2.81897 12.0987C2.6676 11.7332 2.62799 11.3311 2.70516 10.9431C2.78233 10.5552 2.97281 10.1988 3.25252 9.91908C3.53222 9.63938 3.88859 9.44889 4.27655 9.37172C4.66451 9.29455 5.06665 9.33416 5.4321 9.48553C5.79755 9.63691 6.10991 9.89326 6.32967 10.2222C6.54943 10.5511 6.66673 10.9377 6.66673 11.3333C6.66673 11.8637 6.45602 12.3724 6.08094 12.7475C5.70587 13.1226 5.19716 13.3333 4.66673 13.3333Z" fill="#029758"/>
</g>
</svg>
