<svg width="25" height="24" viewBox="0 0 25 24" fill="none" xmlns="http://www.w3.org/2000/svg">
<g id="thumbs-up">
<path id="Icon" d="M7.875 22V11M2.875 13V20C2.875 21.1046 3.77043 22 4.875 22H18.3012C19.782 22 21.0412 20.9197 21.2664 19.4562L22.3433 12.4562C22.6229 10.6389 21.2168 9 19.3782 9H15.875C15.3227 9 14.875 8.55228 14.875 8V4.46584C14.875 3.10399 13.771 2 12.4092 2C12.0843 2 11.79 2.1913 11.6581 2.48812L8.13894 10.4061C7.97844 10.7673 7.62032 11 7.22513 11H4.875C3.77043 11 2.875 11.8954 2.875 13Z" stroke="#161616" stroke-width="2" stroke-linecap="round" stroke-linejoin="round"/>
</g>
</svg>
