<svg width="40" height="40" viewBox="0 0 40 40" fill="none" xmlns="http://www.w3.org/2000/svg">
<g id="Logo">
<path id="Vector" d="M8.08896 0.807227H31.911C36.0243 0.807227 39.35 4.11412 39.35 8.18259V31.8174C39.35 35.8859 36.0243 39.1928 31.911 39.1928H8.08896C3.97569 39.1928 0.65 35.8859 0.65 31.8174V8.18259C0.65 4.11412 3.97569 0.807227 8.08896 0.807227Z" fill="#161616" stroke="#029758" stroke-width="1.3" stroke-miterlimit="10"/>
<path id="Vector_2" d="M15.7204 25.0859H15.7194C13.8224 25.0859 12.2847 26.6116 12.2847 28.4936V28.4946C12.2847 30.3766 13.8224 31.9023 15.7194 31.9023H15.7204C17.6173 31.9023 19.1551 30.3766 19.1551 28.4946V28.4936C19.1551 26.6116 17.6173 25.0859 15.7204 25.0859Z" fill="#FADA37"/>
<path id="Vector_3" d="M21.6633 31.9023C21.4465 31.9016 21.2389 31.8157 21.0857 31.6636C20.9325 31.5114 20.8462 31.3053 20.8457 31.0902V25.8971C20.8462 25.6821 20.9325 25.4761 21.0857 25.3241C21.2389 25.1721 21.4466 25.0864 21.6633 25.0859H26.8976C27.1143 25.0864 27.3221 25.172 27.4755 25.324C27.6288 25.476 27.7153 25.682 27.7161 25.8971C27.7112 27.4883 27.072 29.0129 25.9379 30.1381C24.8038 31.2632 23.2671 31.8975 21.6633 31.9023Z" fill="#068AEE"/>
<path id="Vector_4" d="M18.3375 23.4087C16.7345 23.4028 15.1988 22.7681 14.0658 21.643C12.9327 20.5179 12.2942 18.9939 12.2896 17.4034C12.2903 17.1884 12.3768 16.9823 12.5302 16.8304C12.6836 16.6784 12.8913 16.5928 13.1081 16.5923H18.3424C18.5591 16.5928 18.7667 16.6784 18.9199 16.8304C19.0731 16.9824 19.1594 17.1884 19.16 17.4034V22.5976C19.1597 22.7044 19.1382 22.8102 19.0967 22.9088C19.0553 23.0074 18.9946 23.0969 18.9182 23.1722C18.8418 23.2476 18.7512 23.3072 18.6516 23.3478C18.552 23.3884 18.4452 23.4091 18.3375 23.4087Z" fill="#029758"/>
<path id="Vector_5" d="M26.8986 16.5923H21.6633C21.2117 16.5923 20.8457 16.9554 20.8457 17.4034V22.5975C20.8457 23.0455 21.2117 23.4087 21.6633 23.4087H26.8986C27.3501 23.4087 27.7161 23.0455 27.7161 22.5975V17.4034C27.7161 16.9554 27.3501 16.5923 26.8986 16.5923Z" fill="#029758"/>
<path id="Vector_6" d="M18.3375 14.915H13.1032C12.8864 14.9145 12.6787 14.8289 12.5253 14.677C12.372 14.525 12.2854 14.319 12.2847 14.1039V8.91074C12.2854 8.69568 12.372 8.48967 12.5253 8.33769C12.6787 8.18571 12.8864 8.10012 13.1032 8.09961C14.7068 8.1042 16.2435 8.73826 17.3774 9.86329C18.5114 10.9883 19.1505 12.5129 19.1551 14.1039C19.1546 14.3189 19.0683 14.5249 18.9151 14.6769C18.7618 14.8289 18.5542 14.9145 18.3375 14.915Z" fill="#068AEE"/>
<path id="Vector_7" d="M26.8976 14.9151H21.6633C21.4466 14.9145 21.2389 14.8289 21.0857 14.6769C20.9325 14.5249 20.8462 14.3189 20.8457 14.1039C20.8508 12.5132 21.4902 10.9892 22.624 9.86456C23.7579 8.73995 25.2943 8.10615 26.8976 8.10156C27.1143 8.10207 27.3221 8.18766 27.4755 8.33964C27.6288 8.49162 27.7153 8.69764 27.7161 8.91269V14.1059C27.7148 14.3206 27.6281 14.5261 27.4748 14.6777C27.3215 14.8292 27.114 14.9146 26.8976 14.9151Z" fill="#FADA37"/>
</g>
</svg>
