<svg xmlns="http://www.w3.org/2000/svg" width="36" height="36" viewBox="0 0 36 36">
  <g id="new_group" data-name="new group" transform="translate(-0.68 -5)">
    <rect id="Image" width="36" height="36" rx="10" transform="translate(0.68 5)" fill="#f7f7f7"/>
    <g id="NID" transform="translate(6.681 11)">
      <path id="Vector" d="M0,0H24V24H0Z" transform="translate(24 24) rotate(180)" fill="none" opacity="0"/>
      <g id="Group" transform="translate(-1637.128 -2599)">
        <path id="Vector-2" data-name="Vector" d="M8.048,4.024A4.024,4.024,0,1,1,4.024,0,4.024,4.024,0,0,1,8.048,4.024Z" transform="translate(1641.988 2603)" fill="none" stroke="#000" stroke-linecap="round" stroke-linejoin="round" stroke-width="1"/>
        <path id="Vector-3" data-name="Vector" d="M13.826,5.634C13.826,2.519,10.728,0,6.913,0S0,2.519,0,5.634" transform="translate(1639.128 2613.366)" fill="none" stroke="#000" stroke-linecap="round" stroke-linejoin="round" stroke-width="1"/>
        <path id="Vector-4" data-name="Vector" d="M6.713,3.356A3.356,3.356,0,1,0,3.356,6.713,3.356,3.356,0,0,0,6.713,3.356Z" transform="translate(1656.722 2604.343) rotate(90)" fill="none" stroke="#000" stroke-linecap="round" stroke-linejoin="round" stroke-width="1" stroke-dasharray="11"/>
        <path id="Vector-5" data-name="Vector" d="M5.766,4.7C5.766,2.1,3.182,0,0,0" transform="translate(1653.358 2612.958)" fill="none" stroke="#000" stroke-linecap="round" stroke-linejoin="round" stroke-width="1"/>
      </g>
    </g>
  </g>
</svg>
