<svg width="24" height="25" viewBox="0 0 24 25" fill="none" xmlns="http://www.w3.org/2000/svg">
<g id="notification-circle-svgrepo-com 1">
<path id="secondary" d="M17.9999 13.5V9.49997C17.9999 9.43997 17.9999 9.37997 17.9999 9.31997C17.6792 9.43639 17.3411 9.49727 16.9999 9.49997C16.2043 9.49997 15.4412 9.1839 14.8786 8.62129C14.316 8.05868 13.9999 7.29562 13.9999 6.49997C14.0012 6.08335 14.091 5.67176 14.2634 5.29248C14.4358 4.91319 14.6869 4.57489 14.9999 4.29997C14.0893 3.77025 13.0534 3.49402 11.9999 3.49997C10.4086 3.49997 8.88249 4.13211 7.75728 5.25733C6.63206 6.38255 5.99992 7.90867 5.99992 9.49997V13.5L4.61992 14.88C4.32305 15.1765 4.12084 15.5544 4.03889 15.9659C3.95693 16.3774 3.99892 16.8039 4.15953 17.1915C4.32014 17.5791 4.59215 17.9104 4.94113 18.1433C5.29011 18.3762 5.70035 18.5003 6.11992 18.5H17.8799C18.2995 18.5003 18.7097 18.3762 19.0587 18.1433C19.4077 17.9104 19.6797 17.5791 19.8403 17.1915C20.0009 16.8039 20.0429 16.3774 19.9609 15.9659C19.879 15.5544 19.6768 15.1765 19.3799 14.88L17.9999 13.5Z" fill="#E4FBF2"/>
<g id="primary">
<path d="M17.9999 9.50001V13.5L19.3799 14.88C19.6768 15.1765 19.879 15.5544 19.9609 15.9659C20.0429 16.3774 20.0009 16.8039 19.8403 17.1916C19.6797 17.5792 19.4077 17.9104 19.0587 18.1433C18.7097 18.3762 18.2995 18.5004 17.8799 18.5H6.11992C5.70035 18.5004 5.29011 18.3762 4.94113 18.1433C4.59215 17.9104 4.32014 17.5792 4.15953 17.1916C3.99892 16.8039 3.95693 16.3774 4.03889 15.9659C4.12084 15.5544 4.32305 15.1765 4.61992 14.88L5.99992 13.5V9.50001C5.99992 7.90871 6.63206 6.38259 7.75728 5.25737C8.88249 4.13215 10.4086 3.50001 11.9999 3.50001C13.0059 3.49805 13.9963 3.74908 14.8799 4.23001" fill="#E4FBF2"/>
<path d="M17.9999 9.50001V13.5L19.3799 14.88C19.6768 15.1765 19.879 15.5544 19.9609 15.9659C20.0429 16.3774 20.0009 16.8039 19.8403 17.1916C19.6797 17.5792 19.4077 17.9104 19.0587 18.1433C18.7097 18.3762 18.2995 18.5004 17.8799 18.5H6.11992C5.70035 18.5004 5.29011 18.3762 4.94113 18.1433C4.59215 17.9104 4.32014 17.5792 4.15953 17.1916C3.99892 16.8039 3.95693 16.3774 4.03889 15.9659C4.12084 15.5544 4.32305 15.1765 4.61992 14.88L5.99992 13.5V9.50001C5.99992 7.90871 6.63206 6.38259 7.75728 5.25737C8.88249 4.13215 10.4086 3.50001 11.9999 3.50001C13.0059 3.49805 13.9963 3.74908 14.8799 4.23001" stroke="#01321D" stroke-width="2" stroke-linecap="round" stroke-linejoin="round"/>
</g>
<path id="primary_2" d="M12 21.5C11.2044 21.5 10.4413 21.1839 9.87868 20.6213C9.31607 20.0587 9 19.2956 9 18.5H15C15 19.2956 14.6839 20.0587 14.1213 20.6213C13.5587 21.1839 12.7956 21.5 12 21.5ZM14 6.5C14 7.29565 14.3161 8.05871 14.8787 8.62132C15.4413 9.18393 16.2044 9.5 17 9.5C17.7956 9.5 18.5587 9.18393 19.1213 8.62132C19.6839 8.05871 20 7.29565 20 6.5C20 5.70435 19.6839 4.94129 19.1213 4.37868C18.5587 3.81607 17.7956 3.5 17 3.5C16.2044 3.5 15.4413 3.81607 14.8787 4.37868C14.3161 4.94129 14 5.70435 14 6.5Z" fill="#E4FBF2" stroke="#01321D" stroke-width="2" stroke-linecap="round" stroke-linejoin="round"/>
</g>
</svg>
