<svg width="24" height="25" viewBox="0 0 24 25" fill="none" xmlns="http://www.w3.org/2000/svg">
<g id="delete-alt-2-svgrepo-com 1">
<path id="secondary" d="M16.3219 20.5168L16.3218 20.5175C16.3174 20.5807 16.2891 20.6399 16.2427 20.6831C16.1963 20.7262 16.1352 20.7502 16.0718 20.75H16.07L7.93 20.75L7.92816 20.75C7.86478 20.7502 7.80371 20.7262 7.75729 20.6831C7.71088 20.6399 7.6826 20.5807 7.67816 20.5175L7.67811 20.5168L6.80526 8.25H17.1947L16.3219 20.5168Z" fill="#FEE4E2" stroke="#912018" stroke-width="1.5"/>
<g id="primary">
<path d="M16 7.5V4.5C16 4.23478 15.8946 3.98043 15.7071 3.79289C15.5196 3.60536 15.2652 3.5 15 3.5H9C8.73478 3.5 8.48043 3.60536 8.29289 3.79289C8.10536 3.98043 8 4.23478 8 4.5V7.5" fill="#FEE4E2"/>
<path d="M16 7.5V4.5C16 4.23478 15.8946 3.98043 15.7071 3.79289C15.5196 3.60536 15.2652 3.5 15 3.5H9C8.73478 3.5 8.48043 3.60536 8.29289 3.79289C8.10536 3.98043 8 4.23478 8 4.5V7.5" stroke="#912018" stroke-width="1.5" stroke-linecap="round" stroke-linejoin="round"/>
</g>
<g id="primary_2">
<path d="M12 11.5V17.5V11.5ZM4 7.5H20H4ZM17.07 20.57L18 7.5H6L6.93 20.57C6.94775 20.8229 7.06089 21.0596 7.24653 21.2323C7.43218 21.4049 7.67648 21.5006 7.93 21.5H16.07C16.3235 21.5006 16.5678 21.4049 16.7535 21.2323C16.9391 21.0596 17.0523 20.8229 17.07 20.57Z" fill="#FEE4E2"/>
<path d="M12 11.5V17.5M4 7.5H20M17.07 20.57L18 7.5H6L6.93 20.57C6.94775 20.8229 7.06089 21.0596 7.24653 21.2323C7.43218 21.4049 7.67648 21.5006 7.93 21.5H16.07C16.3235 21.5006 16.5678 21.4049 16.7535 21.2323C16.9391 21.0596 17.0523 20.8229 17.07 20.57Z" stroke="#912018" stroke-width="1.5" stroke-linecap="round" stroke-linejoin="round"/>
</g>
</g>
</svg>
