<svg width="24" height="25" viewBox="0 0 24 25" fill="none" xmlns="http://www.w3.org/2000/svg">
<g id="help-circle-svgrepo-com 1">
<path id="Vector" d="M21 12.5C21 17.4706 16.9706 21.5 12 21.5C7.02944 21.5 3 17.4706 3 12.5C3 7.52944 7.02944 3.5 12 3.5C16.9706 3.5 21 7.52944 21 12.5Z" fill="#E4FBF2"/>
<path id="Vector_2" d="M21 12.5C21 17.4706 16.9706 21.5 12 21.5C7.02944 21.5 3 17.4706 3 12.5C3 7.52944 7.02944 3.5 12 3.5C16.9706 3.5 21 7.52944 21 12.5Z" stroke="#01321D" stroke-width="2"/>
<path id="Vector_3" d="M10.5 9.17709C10.8665 8.76188 11.4027 8.5 12 8.5C13.1046 8.5 14 9.39543 14 10.5C14 11.4337 13.3601 12.218 12.4949 12.4383C12.2273 12.5064 12 12.7239 12 13V13.5" stroke="#01321D" stroke-width="2" stroke-linecap="round" stroke-linejoin="round"/>
<path id="Vector_4" d="M12 16.5H12.01" stroke="#323232" stroke-width="1.5" stroke-linecap="round" stroke-linejoin="round"/>
</g>
</svg>
