<svg width="24" height="25" viewBox="0 0 24 25" fill="none" xmlns="http://www.w3.org/2000/svg">
<g id="contact-book-svgrepo-com 1">
<path id="secondary" d="M18 3.5H4C3.73478 3.5 3.48043 3.60536 3.29289 3.79289C3.10536 3.98043 3 4.23478 3 4.5V20.5C3 20.7652 3.10536 21.0196 3.29289 21.2071C3.48043 21.3946 3.73478 21.5 4 21.5H18C18.2652 21.5 18.5196 21.3946 18.7071 21.2071C18.8946 21.0196 19 20.7652 19 20.5V4.5C19 4.23478 18.8946 3.98043 18.7071 3.79289C18.5196 3.60536 18.2652 3.5 18 3.5ZM14 16.5H8V15.5C8 14.7044 8.31607 13.9413 8.87868 13.3787C9.44129 12.8161 10.2043 12.5 11 12.5C10.6044 12.5 10.2178 12.3827 9.88886 12.1629C9.55996 11.9432 9.30362 11.6308 9.15224 11.2654C9.00086 10.8999 8.96126 10.4978 9.03843 10.1098C9.1156 9.72186 9.30608 9.36549 9.58579 9.08579C9.86549 8.80608 10.2219 8.6156 10.6098 8.53843C10.9978 8.46126 11.3999 8.50087 11.7654 8.65224C12.1308 8.80362 12.4432 9.05996 12.6629 9.38886C12.8827 9.71776 13 10.1044 13 10.5C13 11.0304 12.7893 11.5391 12.4142 11.9142C12.0391 12.2893 11.5304 12.5 11 12.5C11.7956 12.5 12.5587 12.8161 13.1213 13.3787C13.6839 13.9413 14 14.7044 14 15.5V16.5Z" fill="#E4FBF2"/>
<path id="primary" d="M21 9.5H19V7.5H21V9.5ZM21 13.5H19V15.5H21V13.5ZM11 8.5C10.6044 8.5 10.2178 8.6173 9.88886 8.83706C9.55996 9.05682 9.30362 9.36918 9.15224 9.73463C9.00087 10.1001 8.96126 10.5022 9.03843 10.8902C9.1156 11.2781 9.30608 11.6345 9.58579 11.9142C9.86549 12.1939 10.2219 12.3844 10.6098 12.4616C10.9978 12.5387 11.3999 12.4991 11.7654 12.3478C12.1308 12.1964 12.4432 11.94 12.6629 11.6111C12.8827 11.2822 13 10.8956 13 10.5C13 9.96957 12.7893 9.46086 12.4142 9.08579C12.0391 8.71071 11.5304 8.5 11 8.5ZM14 15.5C14 14.7044 13.6839 13.9413 13.1213 13.3787C12.5587 12.8161 11.7956 12.5 11 12.5C10.2044 12.5 9.44129 12.8161 8.87868 13.3787C8.31607 13.9413 8 14.7044 8 15.5V16.5H14V15.5ZM19 20.5V4.5C19 4.23478 18.8946 3.98043 18.7071 3.79289C18.5196 3.60536 18.2652 3.5 18 3.5H4C3.73478 3.5 3.48043 3.60536 3.29289 3.79289C3.10536 3.98043 3 4.23478 3 4.5V20.5C3 20.7652 3.10536 21.0196 3.29289 21.2071C3.48043 21.3946 3.73478 21.5 4 21.5H18C18.2652 21.5 18.5196 21.3946 18.7071 21.2071C18.8946 21.0196 19 20.7652 19 20.5Z" stroke="#01321D" stroke-width="1.5" stroke-linecap="round" stroke-linejoin="round"/>
</g>
</svg>
