<svg width="24" height="25" viewBox="0 0 24 25" fill="none" xmlns="http://www.w3.org/2000/svg">
<g id="sign-in-alt-2-svgrepo-com 1">
<path id="secondary" d="M20.9999 18.7199V6.27994C21.0066 6.05151 20.9348 5.82769 20.7965 5.64574C20.6582 5.46379 20.4618 5.33469 20.2399 5.27994L14.2399 3.77994C14.0902 3.74285 13.9339 3.74091 13.7833 3.77426C13.6327 3.80761 13.4918 3.87536 13.3718 3.9722C13.2517 4.06904 13.1556 4.19234 13.0911 4.33247C13.0266 4.4726 12.9954 4.62575 12.9999 4.77994V20.2199C12.9954 20.3741 13.0266 20.5273 13.0911 20.6674C13.1556 20.8075 13.2517 20.9309 13.3718 21.0277C13.4918 21.1245 13.6327 21.1923 13.7833 21.2256C13.9339 21.259 14.0902 21.257 14.2399 21.2199L20.2399 19.7199C20.4618 19.6652 20.6582 19.5361 20.7965 19.3541C20.9348 19.1722 21.0066 18.9484 20.9999 18.7199Z" fill="#E4FBF2"/>
<path id="primary" d="M6 9.5L9 12.5L6 15.5" stroke="#01321D" stroke-width="2" stroke-linecap="round" stroke-linejoin="round"/>
<path id="primary_2" d="M9 12.4999H2M10 6.49994H13M13 18.4999H10M20.24 19.6899L14.24 21.1899C14.0903 21.227 13.934 21.229 13.7834 21.1956C13.6328 21.1623 13.4919 21.0945 13.3718 20.9977C13.2517 20.9009 13.1557 20.7775 13.0912 20.6374C13.0267 20.4973 12.9955 20.3441 13 20.1899V4.77994C12.9955 4.62575 13.0267 4.4726 13.0912 4.33247C13.1557 4.19234 13.2517 4.06904 13.3718 3.9722C13.4919 3.87536 13.6328 3.80761 13.7834 3.77426C13.934 3.74091 14.0903 3.74285 14.24 3.77994L20.24 5.27994C20.4619 5.33469 20.6583 5.46379 20.7966 5.64574C20.9349 5.82769 21.0067 6.05151 21 6.27994V18.7199C20.9998 18.9433 20.9249 19.1601 20.7872 19.3359C20.6494 19.5117 20.4568 19.6363 20.24 19.6899Z" stroke="#01321D" stroke-width="2" stroke-linecap="round" stroke-linejoin="round"/>
</g>
</svg>
