<svg width="24" height="25" viewBox="0 0 24 25" fill="none" xmlns="http://www.w3.org/2000/svg">
<g id="sign-in-alt-2-svgrepo-com 1">
<path id="secondary" d="M20.9999 18.72V6.28C21.0066 6.05157 20.9348 5.82775 20.7965 5.6458C20.6582 5.46385 20.4618 5.33476 20.2399 5.28L14.2399 3.78C14.0902 3.74292 13.9339 3.74097 13.7833 3.77432C13.6327 3.80768 13.4918 3.87542 13.3718 3.97226C13.2517 4.0691 13.1556 4.1924 13.0911 4.33253C13.0266 4.47266 12.9954 4.62581 12.9999 4.78V20.22C12.9954 20.3742 13.0266 20.5273 13.0911 20.6675C13.1556 20.8076 13.2517 20.9309 13.3718 21.0278C13.4918 21.1246 13.6327 21.1923 13.7833 21.2257C13.9339 21.259 14.0902 21.2571 14.2399 21.22L20.2399 19.72C20.4618 19.6653 20.6582 19.5362 20.7965 19.3542C20.9348 19.1723 21.0066 18.9484 20.9999 18.72Z" fill="#E4FBF2"/>
<path id="primary" d="M6 9.5L9 12.5L6 15.5" stroke="#01321D" stroke-width="2" stroke-linecap="round" stroke-linejoin="round"/>
<path id="primary_2" d="M9 12.5H2M10 6.50001H13M13 18.5H10M20.24 19.69L14.24 21.19C14.0903 21.2271 13.934 21.229 13.7834 21.1957C13.6328 21.1623 13.4919 21.0946 13.3718 20.9978C13.2517 20.9009 13.1557 20.7776 13.0912 20.6375C13.0267 20.4974 12.9955 20.3442 13 20.19V4.78001C12.9955 4.62581 13.0267 4.47266 13.0912 4.33253C13.1557 4.1924 13.2517 4.0691 13.3718 3.97226C13.4919 3.87542 13.6328 3.80768 13.7834 3.77432C13.934 3.74097 14.0903 3.74292 14.24 3.78L20.24 5.28001C20.4619 5.33476 20.6583 5.46385 20.7966 5.6458C20.9349 5.82775 21.0067 6.05157 21 6.28001V18.72C20.9998 18.9433 20.9249 19.1602 20.7872 19.336C20.6494 19.5118 20.4568 19.6364 20.24 19.69Z" stroke="#01321D" stroke-width="2" stroke-linecap="round" stroke-linejoin="round"/>
</g>
</svg>
