<svg width="25" height="24" viewBox="0 0 25 24" fill="none" xmlns="http://www.w3.org/2000/svg">
<g id="shopping-bag-03">
<path id="Icon" d="M16.1246 8C16.1246 9.06087 15.7032 10.0783 14.953 10.8284C14.2029 11.5786 13.1855 12 12.1246 12C11.0637 12 10.0463 11.5786 9.29616 10.8284C8.54602 10.0783 8.12459 9.06087 8.12459 8M3.75781 7.40138L3.05781 15.8014C2.90743 17.6059 2.83224 18.5082 3.13727 19.2042C3.40527 19.8157 3.86962 20.3204 4.45677 20.6382C5.12506 21 6.03045 21 7.84123 21H16.408C18.2187 21 19.1241 21 19.7924 20.6382C20.3796 20.3204 20.8439 19.8157 21.1119 19.2042C21.4169 18.5082 21.3417 17.6059 21.1914 15.8014L20.4914 7.40138C20.362 5.84875 20.2973 5.07243 19.9535 4.48486C19.6507 3.96744 19.1998 3.5526 18.6591 3.29385C18.045 3 17.266 3 15.708 3L8.54123 3C6.98321 3 6.20421 3 5.5901 3.29384C5.04933 3.5526 4.59849 3.96744 4.29571 4.48486C3.95189 5.07243 3.88719 5.84875 3.75781 7.40138Z" stroke="#161616" stroke-width="2" stroke-linecap="round" stroke-linejoin="round"/>
</g>
</svg>
