<svg width="33" height="32" viewBox="0 0 33 32" fill="none" xmlns="http://www.w3.org/2000/svg">
<circle cx="16.5" cy="16" r="14" fill="#FFFA37"/>
<path fill-rule="evenodd" clip-rule="evenodd" d="M21.5255 8.18551C20.5601 6.96879 18.9673 6 16.5118 6C14.4091 6.02071 10.2038 7.18445 10.2038 11.6738C10.2038 12.3294 10.2557 13.2075 10.301 13.8541C10.2476 13.8386 10.1819 13.8095 10.0777 13.7596L10.0633 13.7527C9.87915 13.6643 9.59918 13.5298 9.2098 13.5298C8.81645 13.5298 8.43611 13.6839 8.15375 13.9124C7.87309 14.1394 7.63333 14.4885 7.63333 14.9105C7.63333 15.4384 7.93041 15.7888 8.27778 16.0135C8.58632 16.2131 8.97538 16.3406 9.28337 16.4415L9.31382 16.4514C9.64349 16.5596 9.8851 16.642 10.0517 16.7458C10.1814 16.8267 10.201 16.8778 10.2035 16.9264C10.2018 16.9333 10.1978 16.9482 10.1892 16.9724C10.1714 17.0224 10.1418 17.0899 10.0986 17.1743C10.0124 17.3427 9.88667 17.5498 9.73711 17.7706C9.43539 18.2161 9.06717 18.673 8.79212 18.9376C8.52082 19.1986 8.07562 19.5229 7.61016 19.7811C7.37933 19.9091 7.1536 20.0152 6.95167 20.0881C6.74322 20.1633 6.59047 20.192 6.49608 20.192C6.42136 20.192 6.35669 20.2073 6.32847 20.2144C6.2888 20.2243 6.24774 20.2374 6.20713 20.2527C6.12657 20.2829 6.03056 20.3283 5.93546 20.3923C5.75377 20.5146 5.5 20.7612 5.5 21.1502C5.5 21.3532 5.54766 21.5251 5.63005 21.6742C5.70217 21.8047 5.79487 21.9038 5.84823 21.9608L5.85615 21.9692L5.87091 21.9851C6.16435 22.3008 6.65008 22.5205 7.12162 22.6712C7.52679 22.8007 7.9798 22.8972 8.42122 22.9551C8.42745 22.9836 8.43397 23.0142 8.4411 23.0478L8.4434 23.0587C8.47119 23.1897 8.508 23.3633 8.56221 23.5234C8.61336 23.6744 8.70599 23.8977 8.89564 24.0568C9.13717 24.2593 9.45308 24.2798 9.6592 24.279C9.88047 24.2781 10.1388 24.2469 10.3839 24.2174L10.4048 24.2149C10.7497 24.1733 11.1106 24.1304 11.4843 24.1304C12.1663 24.1304 12.6035 24.4153 13.2894 24.8837L13.294 24.8869C13.5316 25.0492 13.7976 25.2308 14.1 25.4095C15.1122 26.0076 15.9346 26.0025 16.4007 25.9995C16.4315 25.9993 16.4606 25.9992 16.4882 25.9992C16.5158 25.9992 16.5452 25.9993 16.5761 25.9995C17.043 26.0025 17.8873 26.0079 18.9 25.4095C19.2024 25.2308 19.4684 25.0492 19.7059 24.8869L19.7106 24.8837C20.3965 24.4153 20.8337 24.1304 21.5157 24.1304C21.8894 24.1304 22.2503 24.1733 22.5952 24.2149L22.6161 24.2174C22.8612 24.2469 23.1195 24.2781 23.3408 24.279C23.5469 24.2798 23.8628 24.2593 24.1044 24.0568C24.294 23.8977 24.3866 23.6744 24.4378 23.5234C24.492 23.3634 24.5288 23.1898 24.5566 23.0587L24.5589 23.0478C24.566 23.0142 24.5725 22.9836 24.5788 22.9551C25.0202 22.8972 25.4732 22.8007 25.8784 22.6712C26.3499 22.5205 26.8357 22.3007 27.1291 21.985L27.1439 21.9692L27.1517 21.9608C27.2051 21.9038 27.2978 21.8047 27.3699 21.6742C27.4523 21.5251 27.5 21.3532 27.5 21.1502C27.5 20.7612 27.2462 20.5146 27.0645 20.3923C26.9694 20.3283 26.8734 20.2829 26.7929 20.2527C26.7523 20.2374 26.7112 20.2243 26.6715 20.2144C26.6433 20.2073 26.5786 20.192 26.5039 20.192C26.4095 20.192 26.2568 20.1633 26.0483 20.0881C25.8464 20.0152 25.6207 19.9091 25.3898 19.7811C24.9244 19.5229 24.4792 19.1986 24.2079 18.9376C23.9328 18.673 23.5646 18.2161 23.2629 17.7706C23.1133 17.5498 22.9876 17.3427 22.9014 17.1743C22.8582 17.0899 22.8286 17.0224 22.8108 16.9724C22.8022 16.9482 22.7982 16.9333 22.7965 16.9264C22.799 16.8778 22.8186 16.8267 22.9483 16.7458C23.1149 16.642 23.3565 16.5596 23.6862 16.4514L23.7166 16.4415C24.0246 16.3406 24.4137 16.2131 24.7222 16.0135C25.0696 15.7888 25.3667 15.4384 25.3667 14.9105C25.3667 14.4885 25.1269 14.1394 24.8462 13.9124C24.5639 13.6839 24.1835 13.5298 23.7902 13.5298C23.4008 13.5298 23.1209 13.6643 22.9367 13.7527L22.9223 13.7596C22.8181 13.8095 22.7524 13.8386 22.699 13.8541C22.7443 13.2075 22.7962 12.3294 22.7962 11.6738C22.7962 10.7837 22.4726 9.37904 21.5255 8.18551ZM12.2832 8.77274C11.4822 9.77549 11.2077 10.9662 11.2077 11.6738C11.2077 12.3299 11.2633 13.2413 11.3102 13.8949C11.3258 14.1119 11.2813 14.365 11.0917 14.5658C10.8998 14.7691 10.6388 14.8351 10.4056 14.8351C10.0689 14.8351 9.8128 14.7119 9.64898 14.6331L9.62996 14.624C9.44718 14.5363 9.35108 14.4956 9.2098 14.4956C9.08128 14.4956 8.92437 14.5508 8.79994 14.6515C8.67382 14.7535 8.63725 14.8534 8.63725 14.9105C8.63725 15.0269 8.68018 15.1101 8.83794 15.2121C9.02427 15.3326 9.28976 15.4232 9.63779 15.5374L9.66809 15.5473C9.95712 15.642 10.3151 15.7593 10.5976 15.9354C10.9147 16.133 11.2077 16.4507 11.2077 16.9401C11.2077 17.0684 11.1722 17.1919 11.1389 17.2854C11.1028 17.3869 11.054 17.4941 10.9992 17.601C10.8896 17.8152 10.7413 18.0571 10.5783 18.2978C10.2548 18.7754 9.8437 19.2918 9.502 19.6205C9.15655 19.9528 8.63703 20.3263 8.11159 20.6178C7.84696 20.7645 7.57068 20.8961 7.30428 20.9923C7.06581 21.0783 6.8088 21.1457 6.56224 21.1563C6.5561 21.1589 6.54931 21.162 6.5422 21.1655C6.53083 21.1713 6.5202 21.1774 6.51092 21.1837L6.50618 21.187C6.50711 21.1936 6.50817 21.1985 6.50906 21.202C6.51103 21.2097 6.51337 21.2152 6.51652 21.2209C6.52619 21.2384 6.54143 21.2579 6.6031 21.324L6.61928 21.3413C6.73038 21.4609 7.00416 21.616 7.43815 21.7547C7.85148 21.8868 8.34023 21.9822 8.80201 22.026C9.03305 22.0479 9.16621 22.1923 9.22257 22.2701C9.28059 22.3501 9.31377 22.4347 9.33316 22.4908C9.37067 22.5994 9.399 22.7332 9.42135 22.8387L9.42474 22.8547C9.45525 22.9985 9.48194 23.1215 9.51675 23.2242C9.52905 23.2606 9.5404 23.2882 9.55017 23.3085C9.5722 23.3111 9.60599 23.3135 9.65493 23.3133C9.86726 23.3124 10.0798 23.2808 10.2902 23.2554C10.6268 23.2148 11.0433 23.1646 11.4843 23.1646C12.5071 23.1646 13.182 23.6258 13.834 24.0713L13.8706 24.0963C14.1118 24.261 14.3536 24.4259 14.6255 24.5866C15.3917 25.0394 15.9747 25.0361 16.4007 25.0337C16.4306 25.0336 16.4598 25.0334 16.4882 25.0334C16.5164 25.0334 16.5454 25.0336 16.5753 25.0337C17.0059 25.036 17.6085 25.0393 18.3745 24.5866C18.6464 24.4259 18.8882 24.261 19.1294 24.0963L19.166 24.0713C19.818 23.6258 20.4929 23.1646 21.5157 23.1646C21.9567 23.1646 22.3732 23.2148 22.7098 23.2554L22.7199 23.2566C22.9921 23.2894 23.1913 23.3126 23.3451 23.3133C23.394 23.3135 23.4278 23.3111 23.4498 23.3085C23.4596 23.2882 23.4709 23.2606 23.4833 23.2242C23.5181 23.1215 23.5447 22.9985 23.5753 22.8547L23.5787 22.8387C23.601 22.7331 23.6293 22.5994 23.6668 22.4908C23.6862 22.4347 23.7194 22.3501 23.7774 22.2701C23.8338 22.1923 23.967 22.0479 24.198 22.026C24.6598 21.9822 25.1485 21.8868 25.5618 21.7547C25.9958 21.616 26.2696 21.4609 26.3807 21.3414L26.3969 21.324C26.4585 21.2579 26.4738 21.2384 26.4835 21.2209C26.4866 21.2152 26.489 21.2097 26.4909 21.202C26.4918 21.1985 26.4929 21.1936 26.4938 21.187L26.4891 21.1837C26.4798 21.1774 26.4692 21.1713 26.4578 21.1655C26.4507 21.1619 26.4439 21.1589 26.4378 21.1563C26.1912 21.1457 25.9342 21.0783 25.6957 20.9923C25.4293 20.8961 25.153 20.7645 24.8884 20.6178C24.363 20.3263 23.8435 19.9528 23.498 19.6205C23.1563 19.2918 22.7452 18.7754 22.4217 18.2978C22.2587 18.0571 22.1104 17.8152 22.0008 17.601C21.946 17.4941 21.8972 17.3869 21.8611 17.2854C21.8278 17.1919 21.7923 17.0684 21.7923 16.9401C21.7923 16.4507 22.0853 16.133 22.4024 15.9354C22.6849 15.7593 23.0429 15.642 23.3319 15.5473L23.3622 15.5374C23.7102 15.4232 23.9757 15.3326 24.1621 15.2121C24.3198 15.1101 24.3627 15.0269 24.3627 14.9105C24.3627 14.8534 24.3262 14.7535 24.2001 14.6515C24.0756 14.5508 23.9187 14.4956 23.7902 14.4956C23.6489 14.4956 23.5528 14.5363 23.37 14.624L23.351 14.6331C23.1872 14.7119 22.9311 14.8351 22.5944 14.8351C22.3612 14.8351 22.1002 14.7691 21.9083 14.5658C21.7187 14.365 21.6742 14.1119 21.6898 13.8949C21.7367 13.2413 21.7923 12.3299 21.7923 11.6738C21.7923 10.9643 21.5227 9.77352 20.7275 8.77149C19.9508 7.79264 18.6523 6.96575 16.5118 6.96575C14.371 6.96575 13.066 7.79288 12.2832 8.77274Z" fill="black"/>
<path fill-rule="evenodd" clip-rule="evenodd" d="M12.2834 8.77281C11.4823 9.77556 11.2079 10.9662 11.2079 11.6738C11.2079 12.3299 11.2634 13.2414 11.3104 13.895C11.3259 14.112 11.2814 14.365 11.0919 14.5659C10.9 14.7692 10.639 14.8352 10.4058 14.8352C10.0691 14.8352 9.81297 14.712 9.64915 14.6332L9.63013 14.624C9.44735 14.5364 9.35125 14.4956 9.20998 14.4956C9.08145 14.4956 8.92454 14.5509 8.80011 14.6515C8.67399 14.7536 8.63743 14.8535 8.63743 14.9106C8.63743 15.027 8.68035 15.1101 8.83812 15.2122C9.02444 15.3327 9.28993 15.4233 9.63797 15.5374L9.66826 15.5474C9.95729 15.6421 10.3153 15.7593 10.5978 15.9354C10.9149 16.1331 11.2079 16.4508 11.2079 16.9402C11.2079 17.0685 11.1724 17.192 11.1391 17.2855C11.103 17.387 11.0541 17.4942 10.9994 17.6011C10.8897 17.8153 10.7414 18.0572 10.5784 18.2979C10.255 18.7754 9.84387 19.2918 9.50217 19.6206C9.15672 19.9529 8.63721 20.3264 8.11176 20.6178C7.84713 20.7646 7.57086 20.8962 7.30445 20.9923C7.06598 21.0784 6.80897 21.1458 6.56241 21.1563C6.55627 21.1589 6.54948 21.162 6.54237 21.1656C6.531 21.1713 6.52037 21.1775 6.51109 21.1837L6.50635 21.187C6.50728 21.1937 6.50834 21.1986 6.50923 21.2021C6.5112 21.2098 6.51354 21.2153 6.51669 21.221C6.52636 21.2385 6.5416 21.258 6.60327 21.3241L6.61945 21.3414C6.73055 21.4609 7.00433 21.616 7.43832 21.7548C7.85165 21.8869 8.34041 21.9823 8.80218 22.0261C9.03322 22.048 9.16638 22.1924 9.22274 22.2701C9.28076 22.3502 9.31394 22.4348 9.33333 22.4909C9.37084 22.5995 9.39917 22.7332 9.42152 22.8387L9.42492 22.8548C9.45543 22.9986 9.48211 23.1215 9.51692 23.2243C9.52922 23.2606 9.54058 23.2883 9.55034 23.3086C9.57238 23.3111 9.60616 23.3135 9.6551 23.3133C9.86743 23.3125 10.08 23.2808 10.2904 23.2555C10.627 23.2149 11.0435 23.1647 11.4845 23.1647C12.5073 23.1647 13.1822 23.6259 13.8341 24.0713L13.8707 24.0963C14.112 24.2611 14.3538 24.426 14.6257 24.5867C15.3919 25.0395 15.9749 25.0362 16.4008 25.0338C16.4308 25.0336 16.46 25.0335 16.4884 25.0335C16.5166 25.0335 16.5456 25.0336 16.5754 25.0338C17.0061 25.0361 17.6086 25.0394 18.3747 24.5867C18.6466 24.426 18.8884 24.2611 19.1296 24.0963L19.1662 24.0713C19.8182 23.6259 20.4931 23.1647 21.5159 23.1647C21.9569 23.1647 22.3734 23.2149 22.71 23.2555L22.7201 23.2567C22.9923 23.2895 23.1915 23.3127 23.3452 23.3133C23.3942 23.3135 23.428 23.3111 23.45 23.3086C23.4598 23.2883 23.4711 23.2606 23.4834 23.2243C23.5182 23.1215 23.5449 22.9986 23.5754 22.8548L23.5788 22.8387C23.6012 22.7332 23.6295 22.5995 23.667 22.4909C23.6864 22.4347 23.7196 22.3502 23.7776 22.2701C23.834 22.1923 23.9671 22.048 24.1982 22.0261C24.6599 21.9823 25.1487 21.8869 25.562 21.7548C25.996 21.616 26.2698 21.461 26.3809 21.3414L26.3971 21.3241C26.4587 21.258 26.474 21.2385 26.4837 21.221C26.4868 21.2153 26.4891 21.2098 26.4911 21.2021C26.492 21.1986 26.4931 21.1937 26.494 21.187L26.4892 21.1837C26.48 21.1775 26.4693 21.1713 26.458 21.1656C26.4509 21.162 26.4441 21.1589 26.4379 21.1563C26.1914 21.1458 25.9344 21.0784 25.6959 20.9923C25.4295 20.8962 25.1532 20.7646 24.8886 20.6178C24.3631 20.3264 23.8436 19.9529 23.4982 19.6206C23.1565 19.2918 22.7453 18.7754 22.4219 18.2979C22.2589 18.0572 22.1106 17.8153 22.0009 17.6011C21.9462 17.4942 21.8974 17.387 21.8612 17.2855C21.8279 17.192 21.7925 17.0685 21.7925 16.9402C21.7925 16.4508 22.0855 16.1331 22.4026 15.9354C22.6851 15.7593 23.0431 15.6421 23.3321 15.5474L23.3624 15.5374C23.7104 15.4233 23.9759 15.3327 24.1622 15.2122C24.32 15.1101 24.3629 15.027 24.3629 14.9106C24.3629 14.8535 24.3264 14.7536 24.2002 14.6515C24.0758 14.5509 23.9189 14.4956 23.7904 14.4956C23.6491 14.4956 23.553 14.5364 23.3702 14.624L23.3512 14.6332C23.1874 14.712 22.9313 14.8352 22.5946 14.8352C22.3614 14.8352 22.1004 14.7692 21.9085 14.5659C21.7189 14.365 21.6744 14.112 21.69 13.895C21.7369 13.2414 21.7925 12.3299 21.7925 11.6738C21.7925 10.9644 21.5228 9.7736 20.7277 8.77157C19.951 7.79271 18.6525 6.96582 16.5119 6.96582C14.3711 6.96582 13.0662 7.79296 12.2834 8.77281Z" fill="white"/>
</svg>
