<svg width="33" height="32" viewBox="0 0 33 32" fill="none" xmlns="http://www.w3.org/2000/svg">
<g id="Social icon" clip-path="url(#clip0_1907_8211)">
<path id="Vector" d="M10.5634 29.0007C22.6389 29.0007 29.2437 18.9962 29.2437 10.3204C29.2437 10.0362 29.2437 9.75333 29.2245 9.47173C30.5094 8.54233 31.6185 7.39157 32.5 6.07333C31.3019 6.60453 30.0307 6.95273 28.7291 7.10629C30.0998 6.28587 31.1255 4.99533 31.6155 3.47493C30.3268 4.23974 28.9168 4.7787 27.4466 5.06853C26.4567 4.01596 25.1475 3.31898 23.7216 3.08544C22.2957 2.8519 20.8326 3.09481 19.5586 3.7766C18.2847 4.45838 17.271 5.54103 16.6743 6.85699C16.0777 8.17296 15.9314 9.64888 16.2581 11.0564C13.6479 10.9254 11.0943 10.2471 8.76327 9.06533C6.4322 7.88359 4.37569 6.22488 2.7272 4.19685C1.88764 5.64218 1.6305 7.35315 2.00813 8.98141C2.38577 10.6097 3.36979 12.0328 4.75984 12.961C3.71498 12.9304 2.69286 12.6485 1.78 12.1392V12.2224C1.78041 13.7382 2.30513 15.2072 3.26516 16.3803C4.22519 17.5533 5.56141 18.3581 7.0472 18.6583C6.08064 18.9219 5.0665 18.9605 4.08272 18.7709C4.50242 20.0754 5.31924 21.216 6.41899 22.0335C7.51873 22.851 8.84644 23.3044 10.2165 23.3303C8.85525 24.4003 7.29642 25.1913 5.62917 25.6583C3.96191 26.1252 2.21895 26.2589 0.5 26.0516C3.50244 27.9783 6.9959 29.0003 10.5634 28.9956" fill="#1DA1F2"/>
</g>
<defs>
<clipPath id="clip0_1907_8211">
<rect width="32" height="32" fill="white" transform="translate(0.5)"/>
</clipPath>
</defs>
</svg>
