<svg width="25" height="24" viewBox="0 0 25 24" fill="none" xmlns="http://www.w3.org/2000/svg">
<g id="thumbs-down">
<path id="Icon" d="M17.6251 2V13M22.6251 9.8V5.2C22.6251 4.07989 22.6251 3.51984 22.4071 3.09202C22.2153 2.71569 21.9094 2.40973 21.533 2.21799C21.1052 2 20.5452 2 19.4251 2H8.74306C7.28158 2 6.55084 2 5.96063 2.26743C5.44045 2.50314 4.99835 2.88242 4.68629 3.36072C4.33222 3.90339 4.22111 4.62564 3.99888 6.07012L3.4758 9.47012C3.1827 11.3753 3.03614 12.3279 3.31886 13.0691C3.56699 13.7197 4.0337 14.2637 4.63898 14.6079C5.32858 15 6.29239 15 8.21999 15H9.02505C9.58511 15 9.86513 15 10.079 15.109C10.2672 15.2049 10.4202 15.3578 10.5161 15.546C10.6251 15.7599 10.6251 16.0399 10.6251 16.6V19.5342C10.6251 20.896 11.729 22 13.0909 22C13.4157 22 13.7101 21.8087 13.842 21.5119L17.2028 13.9502C17.3556 13.6062 17.432 13.4343 17.5528 13.3082C17.6596 13.1967 17.7908 13.1115 17.936 13.0592C18.1003 13 18.2885 13 18.6648 13H19.4251C20.5452 13 21.1052 13 21.533 12.782C21.9094 12.5903 22.2153 12.2843 22.4071 11.908C22.6251 11.4802 22.6251 10.9201 22.6251 9.8Z" stroke="#161616" stroke-width="2" stroke-linecap="round" stroke-linejoin="round"/>
</g>
</svg>
