<svg width="58" height="40" viewBox="0 0 58 40" fill="none" xmlns="http://www.w3.org/2000/svg">
    <path d="M10.1124 3.34533C9.94316 3.34512 9.77765 3.39432 9.63644 3.48679C9.49522 3.57927 9.38456 3.71092 9.31823 3.86536L5.82703 11.9577L2.38238 3.9217C2.30904 3.75015 2.18641 3.60383 2.02979 3.501C1.87316 3.39817 1.68948 3.34339 1.50166 3.34348C1.34291 3.34359 1.18667 3.38287 1.04703 3.4578C0.907392 3.53273 0.788732 3.64094 0.701739 3.7727C0.614747 3.90445 0.562155 4.05561 0.548701 4.21255C0.535248 4.36949 0.561354 4.52729 0.624671 4.67172L4.78991 14.1532L4.54134 14.7074C4.26949 15.3051 3.97716 15.7235 3.64759 15.9904C3.31802 16.2574 2.85904 16.4052 2.32186 16.4052C1.93468 16.4043 1.55151 16.3274 1.19444 16.1789L1.13951 16.1558C1.03556 16.1107 0.923366 16.0875 0.809939 16.0874C0.664484 16.0871 0.521626 16.1257 0.396438 16.1991C0.271251 16.2726 0.168374 16.3783 0.0986632 16.5049C0.044479 16.6044 0.0117772 16.7141 0.00264094 16.8268C-0.00649536 16.9396 0.00813337 17.053 0.0455963 17.1598C0.0819664 17.2631 0.139909 17.3577 0.21563 17.4373C0.291352 17.5168 0.383148 17.5797 0.485022 17.6216C0.587431 17.6641 0.695427 17.7048 0.806214 17.7417C1.30175 17.9081 1.82107 17.9942 2.3442 17.9966C2.89744 18.0011 3.44701 17.9072 3.96691 17.7195C4.47354 17.521 4.92174 17.1992 5.2703 16.7839C5.67248 16.322 6.04581 15.6893 6.38748 14.8894L10.9046 4.54056C10.9622 4.40998 10.9861 4.2672 10.9741 4.12517C10.962 3.98313 10.9145 3.84631 10.8357 3.72709C10.757 3.60788 10.6495 3.51003 10.523 3.4424C10.3966 3.37477 10.2551 3.3395 10.1114 3.33978L10.1124 3.34533Z" fill="white"/>
    <path d="M29.3971 0.190002C29.1946 0.190002 28.9966 0.249592 28.8282 0.361237C28.6598 0.472881 28.5285 0.631564 28.451 0.817222C28.3735 1.00288 28.3532 1.20717 28.3927 1.40426C28.4322 1.60136 28.5298 1.7824 28.673 1.92449C28.8162 2.06659 28.9987 2.16336 29.1973 2.20256C29.396 2.24177 29.6019 2.22165 29.789 2.14474C29.9762 2.06784 30.1361 1.93761 30.2486 1.77053C30.3612 1.60344 30.4212 1.407 30.4212 1.20604C30.4212 0.936573 30.3133 0.678138 30.1213 0.487593C29.9292 0.297049 29.6687 0.190002 29.3971 0.190002Z" fill="white"/>
    <path d="M29.4027 3.34509C29.1311 3.34509 28.8707 3.45214 28.6786 3.64269C28.4866 3.83323 28.3787 4.09166 28.3787 4.36113V14.3885C28.3787 15.0351 28.2223 15.5404 27.9132 15.8895C27.6041 16.2387 27.1507 16.4289 26.5958 16.4289C26.3353 16.4307 26.0754 16.4028 25.8212 16.3458C25.7678 16.3336 25.7131 16.3274 25.6583 16.3273C25.5254 16.3301 25.3954 16.3664 25.2805 16.4326C25.1656 16.4989 25.0696 16.5931 25.0014 16.7062C24.9331 16.8194 24.895 16.9479 24.8906 17.0797C24.8861 17.2115 24.9155 17.3423 24.9759 17.4598C25.0245 17.5544 25.093 17.6376 25.1769 17.7035C25.2607 17.7695 25.3579 17.8168 25.4619 17.8422L25.5028 17.8523C25.9362 17.9524 26.3799 18.002 26.8248 18.0001C27.9765 18.0001 28.873 17.6704 29.4884 17.0219C30.1038 16.3735 30.4194 15.4609 30.4194 14.3267V4.35559C30.4179 4.08836 30.3104 3.83246 30.1201 3.64332C29.9298 3.45418 29.6721 3.34703 29.4027 3.34509Z" fill="white"/>
    <path d="M42.7154 3.83259C42.0089 3.49822 41.2339 3.33096 40.4513 3.34397C39.5268 3.34397 38.7038 3.5287 38.0037 3.88247C37.5535 4.10892 37.1539 4.42307 36.8288 4.80614L36.3289 5.39822V4.41912C36.3211 4.17205 36.2167 3.93768 36.0378 3.76564C35.8589 3.59359 35.6196 3.49738 35.3704 3.49738C35.1213 3.49738 34.8819 3.59359 34.703 3.76564C34.5241 3.93768 34.4197 4.17205 34.4119 4.41912V12.9446C34.4007 13.0844 34.4187 13.2251 34.4649 13.3576C34.5111 13.4902 34.5844 13.6118 34.6803 13.7148C34.7762 13.8179 34.8926 13.9001 35.0221 13.9564C35.1516 14.0126 35.2914 14.0417 35.4328 14.0417C35.5741 14.0417 35.714 14.0126 35.8435 13.9564C35.973 13.9001 36.0893 13.8179 36.1852 13.7148C36.2811 13.6118 36.3545 13.4902 36.4007 13.3576C36.4468 13.2251 36.4649 13.0844 36.4536 12.9446V8.64955C36.4536 7.86166 36.5951 7.19477 36.8726 6.66735C37.1386 6.14423 37.5614 5.71571 38.0828 5.44071C38.6268 5.16406 39.2312 5.02479 39.8424 5.03521C40.7529 5.03521 41.4781 5.31232 41.9986 5.84712C42.519 6.38193 42.7759 7.18553 42.7759 8.23482V12.9456C42.7965 13.2002 42.9129 13.4378 43.1021 13.6111C43.2913 13.7844 43.5393 13.8806 43.7968 13.8806C44.0542 13.8806 44.3023 13.7844 44.4914 13.6111C44.6806 13.4378 44.7971 13.2002 44.8176 12.9456V7.90784C44.8176 6.84377 44.6314 5.96813 44.2488 5.30216C43.901 4.6684 43.3658 4.15555 42.7154 3.83259Z" fill="white"/>
    <path d="M57.6222 3.73121C57.5444 3.61154 57.4374 3.51331 57.3111 3.44565C57.1848 3.37799 57.0433 3.34309 56.8998 3.34419C56.7305 3.34417 56.5649 3.39343 56.4236 3.48587C56.2823 3.57831 56.1714 3.70986 56.1047 3.86422L52.6154 11.9565L49.1707 3.92056C49.0974 3.74902 48.9747 3.6027 48.8181 3.49987C48.6615 3.39704 48.4778 3.34225 48.29 3.34235C48.1311 3.34222 47.9748 3.38136 47.835 3.45622C47.6952 3.53109 47.5765 3.63932 47.4894 3.77115C47.4024 3.90297 47.3498 4.05424 47.3365 4.21127C47.3231 4.36831 47.3494 4.52617 47.413 4.67059L51.5773 14.1521L51.3297 14.7063C51.0578 15.3039 50.7655 15.7224 50.4359 15.9893C50.1063 16.2562 49.6464 16.404 49.1102 16.404C48.722 16.4027 48.3378 16.3252 47.98 16.1759L47.926 16.1528C47.822 16.1077 47.7098 16.0845 47.5964 16.0844C47.451 16.0841 47.3081 16.1227 47.1829 16.1961C47.0577 16.2696 46.9548 16.3753 46.8851 16.5019C46.8307 16.6014 46.7979 16.711 46.7888 16.8238C46.7796 16.9366 46.7944 17.05 46.8321 17.1568C46.8682 17.2601 46.926 17.3547 47.0016 17.4342C47.0771 17.5138 47.1688 17.5767 47.2706 17.6187C47.3739 17.6621 47.4828 17.7018 47.5927 17.7387C48.0882 17.9052 48.6075 17.9913 49.1307 17.9937C49.6839 17.998 50.2335 17.9042 50.7534 17.7166C51.2598 17.5177 51.708 17.196 52.0568 16.7809C52.459 16.319 52.8323 15.6873 53.1684 14.8864L57.693 4.53943C57.7505 4.40965 57.7742 4.26759 57.7618 4.12634C57.7495 3.98509 57.7015 3.8492 57.6222 3.73121Z" fill="white"/>
    <path d="M23.1589 3.77924C23.0483 3.77839 22.9387 3.79926 22.8362 3.84065C22.7338 3.88205 22.6407 3.94315 22.5622 4.02043C22.4837 4.09771 22.4214 4.18964 22.3789 4.29092C22.3364 4.3922 22.3145 4.50083 22.3145 4.61055L22.307 5.23865L21.8415 4.81376C21.1668 4.19908 20.351 3.75702 19.4651 3.52593C18.5791 3.29485 17.6497 3.28172 16.7575 3.48767C15.8653 3.69363 15.0372 4.11246 14.345 4.70782C13.6529 5.30318 13.1176 6.05711 12.7856 6.90418C12.4536 7.75126 12.335 8.66591 12.4399 9.56878C12.5449 10.4717 12.8703 11.3355 13.3879 12.0853C13.9055 12.8352 14.5997 13.4484 15.4103 13.8719C16.2209 14.2953 17.1233 14.5161 18.0394 14.5151H18.0515C18.0757 14.5151 18.1018 14.5151 18.1362 14.5151C19.5102 14.4936 20.8285 13.9723 21.8406 13.0502L22.3145 12.6188V13.4335C22.3147 13.6555 22.4038 13.8684 22.5621 14.0253C22.7205 14.1822 22.9351 14.2703 23.1589 14.2703C23.3824 14.2699 23.5967 14.1815 23.7548 14.0247C23.9128 13.8679 24.0019 13.6553 24.0024 13.4335V4.61609C24.0019 4.39429 23.9128 4.18172 23.7548 4.02489C23.5967 3.86805 23.3824 3.77973 23.1589 3.77924ZM18.0385 12.8848C17.2504 12.8848 16.48 12.653 15.8247 12.2186C15.1695 11.7842 14.6587 11.1667 14.3571 10.4444C14.0556 9.722 13.9767 8.92711 14.1304 8.16024C14.2841 7.39337 14.6636 6.68896 15.2209 6.13607C15.7782 5.58319 16.4882 5.20667 17.2611 5.05413C18.034 4.90159 18.8352 4.97988 19.5633 5.2791C20.2914 5.57832 20.9137 6.08503 21.3516 6.73515C21.7894 7.38527 22.0231 8.1496 22.0231 8.9315C22.0231 9.97983 21.6034 10.9852 20.8563 11.7266C20.1093 12.468 19.096 12.8846 18.0394 12.8848H18.0385Z" fill="white"/>
    <path d="M35.1612 23.9544C35.356 23.9544 35.5464 23.8971 35.7084 23.7897C35.8703 23.6823 35.9966 23.5297 36.0711 23.3512C36.1456 23.1726 36.1652 22.9761 36.1272 22.7866C36.0891 22.597 35.9953 22.4229 35.8576 22.2863C35.7199 22.1496 35.5444 22.0565 35.3533 22.0188C35.1623 21.9811 34.9642 22.0005 34.7843 22.0744C34.6043 22.1484 34.4505 22.2736 34.3423 22.4343C34.234 22.595 34.1763 22.784 34.1763 22.9772C34.1763 23.2364 34.28 23.4849 34.4647 23.6682C34.6494 23.8514 34.9 23.9544 35.1612 23.9544Z" fill="white"/>
    <path d="M55.6709 34.9163C55.4761 34.9163 55.2857 34.9736 55.1238 35.081C54.9618 35.1884 54.8356 35.341 54.761 35.5195C54.6865 35.6981 54.667 35.8946 54.705 36.0841C54.743 36.2737 54.8368 36.4478 54.9745 36.5844C55.1123 36.7211 55.2877 36.8142 55.4788 36.8519C55.6699 36.8896 55.8679 36.8702 56.0478 36.7963C56.2278 36.7223 56.3816 36.597 56.4899 36.4364C56.5981 36.2757 56.6558 36.0867 56.6558 35.8935C56.6558 35.6343 56.5521 35.3858 56.3674 35.2025C56.1827 35.0193 55.9322 34.9163 55.6709 34.9163Z" fill="white"/>
    <path d="M53.1895 34.9163C52.9947 34.9163 52.8043 34.9736 52.6423 35.0809C52.4803 35.1883 52.3541 35.3409 52.2796 35.5195C52.205 35.698 52.1855 35.8945 52.2235 36.084C52.2615 36.2736 52.3553 36.4477 52.4931 36.5844C52.6308 36.721 52.8063 36.8141 52.9974 36.8518C53.1884 36.8895 53.3864 36.8701 53.5664 36.7962C53.7464 36.7222 53.9002 36.597 54.0084 36.4363C54.1166 36.2756 54.1744 36.0867 54.1744 35.8934C54.1744 35.6343 54.0706 35.3857 53.8859 35.2025C53.7012 35.0192 53.4507 34.9163 53.1895 34.9163Z" fill="white"/>
    <path d="M8.56352 37.8557C8.36872 37.8557 8.1783 37.913 8.01634 38.0204C7.85437 38.1278 7.72813 38.2804 7.65358 38.4589C7.57904 38.6375 7.55954 38.834 7.59754 39.0235C7.63554 39.2131 7.72934 39.3872 7.86708 39.5238C8.00483 39.6605 8.18032 39.7535 8.37137 39.7912C8.56243 39.829 8.76045 39.8096 8.94042 39.7356C9.12039 39.6617 9.27421 39.5364 9.38244 39.3757C9.49066 39.2151 9.54842 39.0261 9.54842 38.8329C9.54842 38.5737 9.44465 38.3252 9.25995 38.1419C9.07524 37.9587 8.82473 37.8557 8.56352 37.8557Z" fill="white"/>
    <path d="M6.08158 37.8557C5.88679 37.8557 5.69637 37.913 5.5344 38.0204C5.37243 38.1278 5.2462 38.2804 5.17165 38.4589C5.09711 38.6375 5.0776 38.834 5.1156 39.0235C5.15361 39.2131 5.24741 39.3872 5.38515 39.5238C5.5229 39.6605 5.69839 39.7535 5.88944 39.7912C6.08049 39.829 6.27852 39.8096 6.45849 39.7356C6.63846 39.6617 6.79228 39.5364 6.9005 39.3757C7.00872 39.2151 7.06649 39.0261 7.06649 38.8329C7.06649 38.5737 6.96272 38.3252 6.77802 38.1419C6.59331 37.9587 6.3428 37.8557 6.08158 37.8557Z" fill="white"/>
    <path d="M47.4375 34.9163C47.2427 34.9163 47.0523 34.9736 46.8904 35.081C46.7284 35.1884 46.6022 35.341 46.5276 35.5195C46.4531 35.6981 46.4336 35.8946 46.4716 36.0841C46.5096 36.2737 46.6034 36.4478 46.7411 36.5844C46.8788 36.7211 47.0543 36.8142 47.2454 36.8519C47.4364 36.8896 47.6345 36.8702 47.8144 36.7963C47.9944 36.7223 48.1482 36.597 48.2565 36.4364C48.3647 36.2757 48.4224 36.0867 48.4224 35.8935C48.4224 35.6343 48.3187 35.3858 48.134 35.2025C47.9493 35.0193 47.6988 34.9163 47.4375 34.9163Z" fill="white"/>
    <path d="M50.9083 32.1562C50.8133 32.1562 50.7222 32.1188 50.6551 32.0522C50.5879 31.9855 50.5502 31.8951 50.5502 31.8009C50.5502 27.8514 48.0503 25.3002 44.1832 25.3002C43.7138 25.2988 43.2453 25.3384 42.7829 25.4183C42.7829 25.4183 40.9276 25.6759 39.8595 26.8334C39.7371 27.0091 39.6798 27.2214 39.6973 27.4343C39.7147 27.6471 39.806 27.8474 39.9554 28.0012C40.1049 28.1549 40.3033 28.2525 40.5171 28.2775C40.7309 28.3025 40.9468 28.2534 41.1282 28.1383L41.9573 27.6053L41.986 27.5876C42.5895 27.2029 43.329 27.0102 44.1975 27.0102C47.0117 27.0102 48.5624 28.6784 48.5624 31.7094C48.5624 31.7414 48.5624 31.7743 48.5624 31.808C48.5624 31.9022 48.5247 31.9926 48.4576 32.0593C48.3904 32.1259 48.2993 32.1633 48.2043 32.1633H37.3453C36.8161 32.1074 36.4616 31.9031 36.2708 31.5415C36.1007 31.2235 36.0166 30.6532 36.0166 29.8484V25.9246C36.0165 25.811 35.9938 25.6985 35.9497 25.5936C35.9056 25.4887 35.841 25.3935 35.7596 25.3135C35.7314 25.2875 35.7015 25.2635 35.6701 25.2415C35.6557 25.2309 35.6432 25.2184 35.6289 25.2078C35.6145 25.1971 35.5725 25.1776 35.5393 25.1625C35.5062 25.1474 35.4981 25.1376 35.4758 25.1278C35.4534 25.118 35.4552 25.1225 35.4444 25.118C35.3467 25.0807 35.243 25.0611 35.1382 25.0603C35.0335 25.0611 34.9297 25.0807 34.832 25.118C34.8221 25.118 34.8105 25.1243 34.8007 25.1278C34.7908 25.1314 34.7586 25.1509 34.7371 25.1625C34.7156 25.174 34.6789 25.19 34.652 25.2078C34.6252 25.2255 34.6234 25.2326 34.6082 25.2442C34.5785 25.2653 34.5504 25.2885 34.524 25.3135C34.4437 25.394 34.3803 25.4894 34.3373 25.5943C34.2942 25.6992 34.2725 25.8114 34.2733 25.9246V29.8395C34.2733 30.6443 34.1891 31.2146 34.019 31.5326C33.7934 31.9644 33.3394 32.1731 32.6303 32.1731H16.6417C15.3757 32.1731 14.8161 31.6552 14.1445 29.9283C13.627 28.602 12.3296 27.4543 11.1406 27.2003C11.0036 27.1689 10.8638 27.151 10.7233 27.147C10.7027 27.147 10.683 27.147 10.6616 27.147C10.5237 27.147 10.401 27.147 10.2918 27.147C10.0918 27.1469 9.89828 27.2168 9.74516 27.3444C9.59204 27.4719 9.48916 27.6489 9.45461 27.8443C9.44479 27.8935 9.43999 27.9434 9.44028 27.9935C9.44051 28.127 9.47338 28.2584 9.53608 28.3764L9.59428 28.4732C9.60274 28.4872 9.61264 28.5003 9.62383 28.5123C9.63188 28.523 9.64173 28.5363 9.65158 28.547L9.65606 28.5523C9.6677 28.5647 9.67934 28.5781 9.69187 28.5905C9.70441 28.6029 9.69814 28.5976 9.70172 28.5985C9.82518 28.7139 9.98152 28.7886 10.1494 28.8126C10.1978 28.8197 10.247 28.8277 10.2936 28.8383C11.3304 29.0444 11.8766 29.8155 11.8766 31.0787C11.8766 33.2107 9.75186 35.1499 7.41854 35.1499C4.61246 35.1499 2.86829 33.1147 2.86829 29.8395V28.9725C2.86758 28.7187 2.76566 28.4756 2.5848 28.2961C2.40394 28.1167 2.15885 28.0156 1.90308 28.0149C1.69228 28.0153 1.49028 28.0987 1.34139 28.2468C1.1925 28.3948 1.10889 28.5954 1.10889 28.8046V30.0793C1.10889 33.892 3.85498 36.8777 7.36392 36.8777C10.0402 36.8777 12.4595 35.1899 13.2465 32.7674C13.2669 32.7094 13.3021 32.6577 13.3486 32.6172C13.3952 32.5768 13.4515 32.549 13.5121 32.5366C13.5727 32.5241 13.6355 32.5275 13.6944 32.5463C13.7533 32.5651 13.8063 32.5987 13.8482 32.6439C14.4937 33.3883 15.4357 33.8218 16.5164 33.876H33.0807H35.1284H53.7001C55.0503 33.876 56.6548 33.2737 56.6548 30.4053V25.9246C56.6548 25.6956 56.5631 25.476 56.3999 25.3141C56.2367 25.1522 56.0153 25.0612 55.7845 25.0612C55.5537 25.0612 55.3323 25.1522 55.1691 25.3141C55.0059 25.476 54.9142 25.6956 54.9142 25.9246V29.8395C54.9142 30.6496 54.8246 31.2111 54.6563 31.5166C54.4343 31.9608 53.9803 32.1562 53.2694 32.1562H50.9083Z" fill="white"/>
</svg>
