<svg width="139" height="52" viewBox="0 0 139 52" fill="none" xmlns="http://www.w3.org/2000/svg">
<g id="Group 5">
<g id="Logo type">
<path id="Vector" d="M73.6705 31.5079C73.4418 31.5076 73.2181 31.5741 73.0272 31.6991C72.8363 31.8241 72.6867 32.0021 72.597 32.2109L67.8774 43.1505L63.2207 32.287C63.1215 32.0551 62.9557 31.8573 62.744 31.7183C62.5323 31.5793 62.2839 31.5052 62.03 31.5054C61.8154 31.5055 61.6042 31.5586 61.4154 31.6599C61.2267 31.7612 61.0663 31.9075 60.9487 32.0856C60.8311 32.2637 60.76 32.4681 60.7418 32.6802C60.7236 32.8924 60.7589 33.1057 60.8445 33.301L66.4753 46.1186L66.1393 46.8678C65.7718 47.6757 65.3766 48.2413 64.931 48.6022C64.4855 48.9631 63.865 49.1629 63.1388 49.1629C62.6154 49.1617 62.0974 49.0577 61.6147 48.8569L61.5405 48.8257C61.3999 48.7648 61.2483 48.7334 61.0949 48.7333C60.8983 48.7328 60.7052 48.785 60.5359 48.8844C60.3667 48.9837 60.2276 49.1265 60.1334 49.2977C60.0601 49.4323 60.0159 49.5805 60.0036 49.7329C59.9912 49.8853 60.011 50.0386 60.0616 50.183C60.1108 50.3227 60.1891 50.4505 60.2915 50.5581C60.3939 50.6657 60.518 50.7506 60.6557 50.8074C60.7941 50.8648 60.9401 50.9198 61.0899 50.9697C61.7598 51.1946 62.4618 51.311 63.169 51.3143C63.9169 51.3203 64.6599 51.1935 65.3627 50.9397C66.0476 50.6713 66.6535 50.2363 67.1247 49.6748C67.6684 49.0505 68.1731 48.1952 68.635 47.1138L74.7416 33.1236C74.8194 32.9471 74.8517 32.7541 74.8354 32.5621C74.8192 32.3701 74.7549 32.1851 74.6484 32.024C74.542 31.8628 74.3967 31.7305 74.2257 31.6391C74.0548 31.5477 73.8635 31.5 73.6693 31.5004L73.6705 31.5079Z" fill="black"/>
<path id="Vector_2" d="M99.7379 27.2437C99.4641 27.2437 99.1965 27.3242 98.9688 27.4751C98.7411 27.6261 98.5637 27.8406 98.4589 28.0916C98.3541 28.3425 98.3267 28.6187 98.3801 28.8852C98.4335 29.1516 98.5654 29.3963 98.759 29.5884C98.9526 29.7805 99.1993 29.9113 99.4679 29.9643C99.7364 30.0173 100.015 29.9901 100.268 29.8862C100.521 29.7822 100.737 29.6062 100.889 29.3803C101.041 29.1544 101.122 28.8889 101.122 28.6172C101.122 28.2529 100.977 27.9035 100.717 27.646C100.457 27.3884 100.105 27.2437 99.7379 27.2437Z" fill="black"/>
<path id="Vector_3" d="M99.7445 31.5078C99.3773 31.5078 99.0252 31.6525 98.7655 31.9101C98.5059 32.1677 98.3601 32.5171 98.3601 32.8814V46.437C98.3601 47.311 98.1486 47.9941 97.7308 48.4661C97.3129 48.9381 96.7 49.1953 95.9499 49.1953C95.5977 49.1977 95.2463 49.16 94.9028 49.0829C94.8305 49.0665 94.7566 49.0581 94.6825 49.0579C94.5029 49.0617 94.3271 49.1107 94.1718 49.2003C94.0165 49.2899 93.8866 49.4172 93.7944 49.5702C93.7022 49.7232 93.6507 49.8969 93.6446 50.0751C93.6386 50.2533 93.6783 50.43 93.76 50.5888C93.8256 50.7168 93.9183 50.8292 94.0316 50.9184C94.145 51.0076 94.2764 51.0715 94.417 51.1058L94.4723 51.1195C95.0582 51.2547 95.658 51.3218 96.2595 51.3193C97.8164 51.3193 99.0284 50.8735 99.8603 49.9969C100.692 49.1204 101.119 47.8867 101.119 46.3533V32.8739C101.117 32.5126 100.972 32.1667 100.714 31.911C100.457 31.6553 100.109 31.5104 99.7445 31.5078Z" fill="black"/>
<path id="Vector_4" d="M117.742 32.1683C116.787 31.7163 115.739 31.4902 114.681 31.5078C113.431 31.5078 112.319 31.7575 111.372 32.2358C110.764 32.5419 110.223 32.9666 109.784 33.4844L109.108 34.2848V32.9612C109.098 32.6272 108.956 32.3104 108.715 32.0778C108.473 31.8452 108.149 31.7152 107.812 31.7152C107.476 31.7152 107.152 31.8452 106.91 32.0778C106.668 32.3104 106.527 32.6272 106.517 32.9612V44.4865C106.501 44.6755 106.526 44.8656 106.588 45.0448C106.651 45.224 106.75 45.3884 106.879 45.5277C107.009 45.667 107.166 45.7782 107.341 45.8542C107.516 45.9303 107.706 45.9695 107.897 45.9695C108.088 45.9695 108.277 45.9303 108.452 45.8542C108.627 45.7782 108.784 45.667 108.914 45.5277C109.043 45.3884 109.143 45.224 109.205 45.0448C109.268 44.8656 109.292 44.6755 109.277 44.4865V38.6802C109.277 37.6151 109.468 36.7135 109.843 36.0005C110.203 35.2933 110.774 34.714 111.479 34.3423C112.215 33.9683 113.032 33.78 113.858 33.7941C115.089 33.7941 116.069 34.1687 116.773 34.8917C117.476 35.6147 117.824 36.701 117.824 38.1195V44.4878C117.851 44.832 118.009 45.1532 118.265 45.3875C118.52 45.6217 118.856 45.7518 119.204 45.7518C119.552 45.7518 119.887 45.6217 120.143 45.3875C120.398 45.1532 120.556 44.832 120.584 44.4878V37.6775C120.584 36.239 120.332 35.0553 119.815 34.155C119.344 33.2982 118.621 32.6049 117.742 32.1683Z" fill="black"/>
<path id="Vector_5" d="M137.894 32.0311C137.789 31.8693 137.644 31.7365 137.473 31.645C137.303 31.5536 137.111 31.5064 136.917 31.5079C136.689 31.5078 136.465 31.5744 136.274 31.6994C136.083 31.8244 135.933 32.0022 135.843 32.2109L131.125 43.1505L126.469 32.287C126.37 32.0551 126.204 31.8573 125.992 31.7183C125.78 31.5793 125.532 31.5052 125.278 31.5054C125.063 31.5052 124.852 31.5581 124.663 31.6593C124.474 31.7605 124.314 31.9068 124.196 32.085C124.078 32.2633 124.007 32.4677 123.989 32.68C123.971 32.8923 124.007 33.1057 124.093 33.301L129.722 46.1186L129.387 46.8678C129.02 47.6757 128.625 48.2414 128.179 48.6022C127.734 48.9631 127.112 49.1629 126.387 49.1629C125.862 49.1611 125.343 49.0563 124.859 48.8545L124.786 48.8232C124.646 48.7623 124.494 48.7309 124.341 48.7308C124.144 48.7303 123.951 48.7825 123.782 48.8819C123.612 48.9812 123.473 49.124 123.379 49.2952C123.305 49.4297 123.261 49.5779 123.249 49.7304C123.236 49.8828 123.256 50.0362 123.307 50.1806C123.356 50.3202 123.434 50.448 123.536 50.5556C123.639 50.6632 123.762 50.7481 123.9 50.8049C124.04 50.8636 124.187 50.9173 124.335 50.9672C125.005 51.1922 125.707 51.3086 126.415 51.3118C127.163 51.3177 127.905 51.1909 128.608 50.9372C129.293 50.6684 129.899 50.2335 130.37 49.6723C130.914 49.048 131.419 48.1939 131.873 47.1113L137.99 33.1237C138.067 32.9482 138.1 32.7562 138.083 32.5652C138.066 32.3743 138.001 32.1906 137.894 32.0311Z" fill="black"/>
<path id="Vector_6" d="M91.3093 32.096C91.1598 32.0948 91.0116 32.1231 90.8731 32.179C90.7347 32.235 90.6088 32.3176 90.5026 32.422C90.3965 32.5265 90.3123 32.6508 90.2548 32.7877C90.1974 32.9246 90.1678 33.0715 90.1678 33.2198L90.1577 34.0689L89.5284 33.4945C88.6162 32.6635 87.5134 32.0659 86.3158 31.7536C85.1181 31.4412 83.8616 31.4234 82.6555 31.7018C81.4493 31.9803 80.3298 32.5464 79.3941 33.3513C78.4584 34.1561 77.7348 35.1753 77.286 36.3205C76.8372 37.4656 76.6768 38.7021 76.8187 39.9226C76.9606 41.1432 77.4005 42.3109 78.1002 43.3246C78.8 44.3383 79.7385 45.1674 80.8342 45.7397C81.93 46.3121 83.15 46.6106 84.3884 46.6093H84.4048C84.4375 46.6093 84.4727 46.6093 84.5193 46.6093C86.3768 46.5803 88.1589 45.8756 89.5272 44.6289L90.1678 44.0458V45.1471C90.1681 45.4473 90.2885 45.735 90.5026 45.9472C90.7166 46.1593 91.0068 46.2784 91.3093 46.2784C91.6115 46.2778 91.9011 46.1584 92.1148 45.9464C92.3285 45.7343 92.4489 45.447 92.4496 45.1471V33.2273C92.4489 32.9275 92.3285 32.6401 92.1148 32.4281C91.9011 32.2161 91.6115 32.0966 91.3093 32.096ZM84.3872 44.4054C83.3218 44.4054 82.2803 44.092 81.3945 43.5047C80.5086 42.9175 79.8182 42.0828 79.4105 41.1063C79.0028 40.1297 78.8961 39.0552 79.104 38.0185C79.3118 36.9818 79.8249 36.0295 80.5782 35.2821C81.3316 34.5347 82.2914 34.0257 83.3363 33.8195C84.3812 33.6132 85.4643 33.7191 86.4486 34.1236C87.4328 34.5281 88.2741 35.2131 88.866 36.092C89.4579 36.9708 89.7738 38.0041 89.7738 39.0611C89.7738 40.4783 89.2065 41.8374 88.1966 42.8397C87.1866 43.8419 85.8168 44.4051 84.3884 44.4054H84.3872Z" fill="black"/>
<path id="Vector_7" d="M107.867 2.75832C108.141 2.75832 108.409 2.67776 108.636 2.52683C108.864 2.37591 109.042 2.16139 109.146 1.91041C109.251 1.65942 109.279 1.38325 109.225 1.11681C109.172 0.850367 109.04 0.605626 108.846 0.413532C108.653 0.221439 108.406 0.0906217 108.137 0.0376233C107.869 -0.0153751 107.591 0.0118256 107.338 0.115786C107.085 0.219746 106.868 0.395796 106.716 0.621674C106.564 0.847552 106.483 1.11311 106.483 1.38477C106.483 1.74906 106.629 2.09843 106.888 2.35601C107.148 2.6136 107.5 2.75832 107.867 2.75832Z" fill="black"/>
<path id="Vector_8" d="M136.697 18.167C136.423 18.167 136.155 18.2475 135.928 18.3985C135.7 18.5494 135.523 18.7639 135.418 19.0149C135.313 19.2659 135.286 19.5421 135.339 19.8085C135.393 20.0749 135.524 20.3197 135.718 20.5118C135.912 20.7039 136.158 20.8347 136.427 20.8877C136.695 20.9407 136.974 20.9135 137.227 20.8095C137.48 20.7056 137.696 20.5295 137.848 20.3036C138 20.0778 138.081 19.8122 138.081 19.5405C138.081 19.1762 137.936 18.8269 137.676 18.5693C137.416 18.3117 137.064 18.167 136.697 18.167Z" fill="black"/>
<path id="Vector_9" d="M133.209 18.167C132.935 18.167 132.667 18.2475 132.439 18.3985C132.212 18.5494 132.034 18.7639 131.93 19.0149C131.825 19.2659 131.797 19.5421 131.851 19.8085C131.904 20.0749 132.036 20.3197 132.23 20.5118C132.423 20.7039 132.67 20.8347 132.939 20.8877C133.207 20.9407 133.485 20.9135 133.738 20.8095C133.991 20.7056 134.208 20.5295 134.36 20.3036C134.512 20.0778 134.593 19.8122 134.593 19.5405C134.593 19.1762 134.447 18.8269 134.188 18.5693C133.928 18.3117 133.576 18.167 133.209 18.167Z" fill="black"/>
<path id="Vector_10" d="M70.4801 22.2988C70.2063 22.2988 69.9387 22.3794 69.711 22.5303C69.4833 22.6812 69.3059 22.8958 69.2011 23.1467C69.0963 23.3977 69.0689 23.6739 69.1223 23.9403C69.1757 24.2068 69.3076 24.4515 69.5012 24.6436C69.6948 24.8357 69.9415 24.9665 70.21 25.0195C70.4786 25.0725 70.757 25.0453 71.0099 24.9414C71.2629 24.8374 71.4791 24.6613 71.6312 24.4355C71.7834 24.2096 71.8646 23.944 71.8646 23.6724C71.8646 23.3081 71.7187 22.9587 71.4591 22.7011C71.1994 22.4435 70.8473 22.2988 70.4801 22.2988Z" fill="black"/>
<path id="Vector_11" d="M66.9914 22.2988C66.7175 22.2988 66.4499 22.3794 66.2222 22.5303C65.9945 22.6812 65.8171 22.8958 65.7123 23.1467C65.6075 23.3977 65.5801 23.6739 65.6335 23.9403C65.687 24.2068 65.8188 24.4515 66.0124 24.6436C66.206 24.8357 66.4527 24.9665 66.7213 25.0195C66.9898 25.0725 67.2682 25.0453 67.5212 24.9414C67.7741 24.8374 67.9903 24.6613 68.1425 24.4355C68.2946 24.2096 68.3758 23.944 68.3758 23.6724C68.3758 23.3081 68.2299 22.9587 67.9703 22.7011C67.7107 22.4435 67.3585 22.2988 66.9914 22.2988Z" fill="black"/>
<path id="Vector_12" d="M125.123 18.167C124.849 18.167 124.582 18.2475 124.354 18.3985C124.126 18.5494 123.949 18.7639 123.844 19.0149C123.739 19.2659 123.712 19.5421 123.765 19.8085C123.819 20.0749 123.951 20.3197 124.144 20.5118C124.338 20.7039 124.585 20.8347 124.853 20.8877C125.122 20.9407 125.4 20.9135 125.653 20.8095C125.906 20.7056 126.122 20.5295 126.274 20.3036C126.426 20.0778 126.508 19.8122 126.508 19.5405C126.508 19.1762 126.362 18.8269 126.102 18.5693C125.842 18.3117 125.49 18.167 125.123 18.167Z" fill="black"/>
<path id="Vector_13" d="M130.002 14.2874C129.868 14.2874 129.74 14.2348 129.646 14.1411C129.551 14.0474 129.498 13.9204 129.498 13.7879C129.498 8.23633 125.984 4.65013 120.549 4.65013C119.889 4.64826 119.23 4.70383 118.58 4.8162C118.58 4.8162 115.973 5.17832 114.471 6.80534C114.299 7.05231 114.218 7.35075 114.243 7.64997C114.268 7.94919 114.396 8.23074 114.606 8.44681C114.816 8.66288 115.095 8.80015 115.395 8.8353C115.696 8.87045 116 8.80132 116.254 8.63965L117.42 7.89044L117.46 7.86547C118.308 7.32479 119.348 7.05383 120.569 7.05383C124.525 7.05383 126.704 9.39884 126.704 13.6593C126.704 13.7043 126.704 13.7505 126.704 13.7979C126.704 13.9304 126.651 14.0574 126.557 14.1511C126.463 14.2448 126.334 14.2974 126.201 14.2974H110.937C110.193 14.2187 109.695 13.9315 109.427 13.4233C109.188 12.9763 109.069 12.1746 109.069 11.0433V5.52795C109.069 5.36818 109.037 5.21001 108.975 5.06256C108.913 4.91511 108.822 4.78131 108.708 4.66886C108.668 4.63235 108.626 4.59856 108.582 4.56772C108.562 4.55273 108.544 4.53525 108.524 4.52027C108.504 4.50528 108.445 4.47781 108.398 4.45659C108.352 4.43536 108.341 4.42162 108.309 4.40789C108.278 4.39415 108.28 4.4004 108.265 4.39415C108.128 4.34162 107.982 4.31412 107.835 4.31299C107.687 4.31412 107.542 4.34162 107.404 4.39415C107.39 4.39415 107.374 4.40289 107.36 4.40789C107.346 4.41288 107.301 4.44035 107.271 4.45659C107.241 4.47282 107.189 4.49529 107.151 4.52027C107.113 4.54524 107.111 4.55523 107.09 4.57146C107.048 4.60118 107.008 4.63373 106.971 4.66886C106.858 4.78202 106.769 4.91616 106.709 5.06357C106.648 5.21099 106.618 5.36879 106.619 5.52795V11.0309C106.619 12.1622 106.501 12.9638 106.261 13.4108C105.944 14.0177 105.306 14.3111 104.309 14.3111H81.8351C80.0555 14.3111 79.2689 13.5831 78.325 11.1557C77.5975 9.29145 75.7738 7.67817 74.1025 7.32105C73.9099 7.27695 73.7135 7.25185 73.516 7.24613C73.487 7.24613 73.4593 7.24613 73.4291 7.24613C73.2353 7.24613 73.0629 7.24613 72.9093 7.24613C72.6283 7.24604 72.3562 7.34429 72.141 7.52357C71.9258 7.70286 71.7812 7.9517 71.7326 8.22634C71.7188 8.29541 71.712 8.36569 71.7124 8.43611C71.7128 8.62367 71.759 8.80835 71.8471 8.97429L71.9289 9.1104C71.9408 9.13009 71.9547 9.1485 71.9705 9.16534C71.9818 9.18032 71.9956 9.19905 72.0095 9.21404L72.0158 9.22153C72.0321 9.23901 72.0485 9.25774 72.0661 9.27522C72.0837 9.2927 72.0749 9.28521 72.0799 9.28646C72.2535 9.44865 72.4732 9.55375 72.7092 9.58739C72.7772 9.59738 72.8464 9.60862 72.9119 9.6236C74.3693 9.91329 75.137 10.9971 75.137 12.7728C75.137 15.7696 72.1504 18.4954 68.8706 18.4954C64.9262 18.4954 62.4746 15.6347 62.4746 11.0309V9.81215C62.4736 9.45546 62.3303 9.11365 62.0761 8.86143C61.8219 8.6092 61.4773 8.46707 61.1178 8.46608C60.8215 8.46674 60.5376 8.58399 60.3283 8.7921C60.119 9.0002 60.0015 9.28218 60.0015 9.57615V11.368C60.0015 16.7273 63.8615 20.9241 68.7938 20.9241C72.5557 20.9241 75.9563 18.5516 77.0626 15.1465C77.0913 15.065 77.1408 14.9923 77.2062 14.9354C77.2716 14.8786 77.3508 14.8395 77.4359 14.822C77.5211 14.8045 77.6094 14.8092 77.6922 14.8357C77.775 14.8621 77.8495 14.9094 77.9084 14.9729C78.8158 16.0193 80.1398 16.6287 81.6589 16.7048H104.942H107.821H133.926C135.824 16.7048 138.079 15.8582 138.079 11.8263V5.52795C138.079 5.20605 137.95 4.89734 137.721 4.66972C137.492 4.44211 137.18 4.31424 136.856 4.31424C136.532 4.31424 136.22 4.44211 135.991 4.66972C135.762 4.89734 135.633 5.20605 135.633 5.52795V11.0309C135.633 12.1696 135.507 12.9588 135.27 13.3884C134.958 14.0127 134.32 14.2874 133.321 14.2874H130.002Z" fill="black"/>
</g>
<g id="Logo icon">
<path id="Vector_14" d="M10.46 0.65H41.2647C46.6874 0.65 51.0747 5.01008 51.0747 10.3777V40.9403C51.0747 46.3079 46.6874 50.668 41.2647 50.668H10.46C5.03722 50.668 0.65 46.3079 0.65 40.9403V10.3777C0.65 5.01008 5.03722 0.65 10.46 0.65Z" fill="#161616" stroke="#029758" stroke-width="1.3" stroke-miterlimit="10"/>
<path id="Vector_15" d="M20.3285 32.2358H20.3272C17.8743 32.2358 15.8857 34.2087 15.8857 36.6423V36.6436C15.8857 39.0773 17.8743 41.0502 20.3272 41.0502H20.3285C22.7815 41.0502 24.77 39.0773 24.77 36.6436V36.6423C24.77 34.2087 22.7815 32.2358 20.3285 32.2358Z" fill="#FADA37"/>
<path id="Vector_16" d="M28.0133 41.0502C27.733 41.0492 27.4644 40.9382 27.2664 40.7414C27.0683 40.5447 26.9567 40.2781 26.9561 40V33.2847C26.9567 33.0067 27.0683 32.7403 27.2664 32.5437C27.4646 32.3472 27.7331 32.2364 28.0133 32.2358H34.7818C35.0621 32.2364 35.3308 32.3471 35.5291 32.5436C35.7274 32.7402 35.8393 33.0066 35.8403 33.2847C35.834 35.3423 35.0073 37.3138 33.5408 38.7688C32.0743 40.2238 30.0872 41.0439 28.0133 41.0502Z" fill="#068AEE"/>
<path id="Vector_17" d="M23.7128 30.0668C21.6399 30.0593 19.6542 29.2385 18.1889 27.7836C16.7237 26.3288 15.8981 24.358 15.8921 22.3013C15.8931 22.0232 16.005 21.7568 16.2033 21.5603C16.4016 21.3638 16.6702 21.2531 16.9505 21.2524H23.7191C23.9993 21.2531 24.2678 21.3638 24.4659 21.5604C24.6641 21.7569 24.7757 22.0234 24.7763 22.3013V29.018C24.776 29.1561 24.7482 29.2929 24.6946 29.4204C24.6409 29.5479 24.5625 29.6637 24.4637 29.7611C24.365 29.8585 24.2478 29.9357 24.119 29.9881C23.9901 30.0406 23.8521 30.0673 23.7128 30.0668Z" fill="#029758"/>
<path id="Vector_18" d="M34.7831 21.2524H28.0133C27.4294 21.2524 26.9561 21.722 26.9561 22.3013V29.0179C26.9561 29.5972 27.4294 30.0668 28.0133 30.0668H34.7831C35.367 30.0668 35.8403 29.5972 35.8403 29.0179V22.3013C35.8403 21.722 35.367 21.2524 34.7831 21.2524Z" fill="#029758"/>
<path id="Vector_19" d="M23.7128 19.0835H16.9442C16.6639 19.0828 16.3953 18.9721 16.1969 18.7756C15.9986 18.5791 15.8867 18.3127 15.8857 18.0346V11.3192C15.8867 11.0411 15.9986 10.7747 16.1969 10.5782C16.3953 10.3817 16.6639 10.271 16.9442 10.2703C19.0179 10.2763 21.0049 11.0962 22.4713 12.551C23.9376 14.0058 24.764 15.9772 24.77 18.0346C24.7693 18.3126 24.6577 18.579 24.4596 18.7755C24.2615 18.9721 23.993 19.0828 23.7128 19.0835Z" fill="#068AEE"/>
<path id="Vector_20" d="M34.7818 19.0835H28.0133C27.7331 19.0828 27.4646 18.9721 27.2664 18.7755C27.0683 18.579 26.9567 18.3126 26.9561 18.0346C26.9627 15.9776 27.7894 14.0068 29.2557 12.5526C30.7219 11.0983 32.7086 10.2788 34.7818 10.2728C35.0621 10.2735 35.3308 10.3842 35.5291 10.5807C35.7274 10.7772 35.8393 11.0436 35.8403 11.3217V18.0371C35.8386 18.3147 35.7265 18.5805 35.5282 18.7765C35.33 18.9725 35.0617 19.0828 34.7818 19.0835Z" fill="#FADA37"/>
</g>
</g>
</svg>
