<svg width="141" height="53" viewBox="0 0 141 53" fill="none" xmlns="http://www.w3.org/2000/svg">
<g id="Frame" clip-path="url(#clip0_1888_2853)">
<g id="Group 4">
<path id="Vector" d="M11.3071 1.49033H42.1119C47.5346 1.49033 51.9218 5.85041 51.9218 11.2181V41.7806C51.9218 47.1483 47.5346 51.5084 42.1119 51.5084H11.3071C5.88439 51.5084 1.49717 47.1483 1.49717 41.7806V11.2181C1.49717 5.85041 5.88439 1.49033 11.3071 1.49033Z" fill="#161616" stroke="#029758" stroke-width="1.3" stroke-miterlimit="10"/>
<path id="Vector_2" d="M21.1757 33.0761H21.1744C18.7214 33.0761 16.7329 35.049 16.7329 37.4827V37.4839C16.7329 39.9176 18.7214 41.8905 21.1744 41.8905H21.1757C23.6286 41.8905 25.6171 39.9176 25.6171 37.4839V37.4827C25.6171 35.049 23.6286 33.0761 21.1757 33.0761Z" fill="#FADA37"/>
<path id="Vector_3" d="M28.8604 41.8905C28.5801 41.8895 28.3116 41.7785 28.1135 41.5818C27.9154 41.385 27.8039 41.1185 27.8032 40.8404V34.125C27.8039 33.847 27.9155 33.5806 28.1136 33.384C28.3117 33.1875 28.5802 33.0768 28.8604 33.0761H35.629C35.9093 33.0768 36.1779 33.1874 36.3763 33.384C36.5746 33.5805 36.6865 33.8469 36.6875 34.125C36.6812 36.1826 35.8545 38.1542 34.388 39.6091C32.9215 41.0641 30.9343 41.8842 28.8604 41.8905Z" fill="#068AEE"/>
<path id="Vector_4" d="M24.56 30.9072C22.4871 30.8996 20.5013 30.0788 19.0361 28.624C17.5709 27.1691 16.7452 25.1983 16.7393 23.1417C16.7403 22.8636 16.8521 22.5972 17.0504 22.4006C17.2488 22.2041 17.5174 22.0934 17.7977 22.0928H24.5663C24.8465 22.0934 25.115 22.2042 25.3131 22.4007C25.5112 22.5973 25.6228 22.8637 25.6235 23.1417V29.8583C25.6232 29.9965 25.5954 30.1332 25.5417 30.2607C25.4881 30.3882 25.4097 30.504 25.3109 30.6014C25.2121 30.6989 25.095 30.776 24.9661 30.8285C24.8373 30.8809 24.6993 30.9077 24.56 30.9072Z" fill="#029758"/>
<path id="Vector_5" d="M35.6303 22.0928H28.8604C28.2765 22.0928 27.8032 22.5624 27.8032 23.1417V29.8583C27.8032 30.4376 28.2765 30.9072 28.8604 30.9072H35.6303C36.2141 30.9072 36.6875 30.4376 36.6875 29.8583V23.1417C36.6875 22.5624 36.2141 22.0928 35.6303 22.0928Z" fill="#029758"/>
<path id="Vector_6" d="M24.56 19.9238H17.7914C17.5111 19.9231 17.2424 19.8125 17.0441 19.6159C16.8458 19.4194 16.7339 19.153 16.7329 18.8749V12.1595C16.7339 11.8814 16.8458 11.615 17.0441 11.4185C17.2424 11.222 17.5111 11.1113 17.7914 11.1107C19.8651 11.1166 21.8521 11.9365 23.3184 13.3913C24.7848 14.8461 25.6112 16.8175 25.6171 18.8749C25.6165 19.1529 25.5049 19.4193 25.3068 19.6159C25.1087 19.8124 24.8401 19.9231 24.56 19.9238Z" fill="#068AEE"/>
<path id="Vector_7" d="M35.629 19.9238H28.8604C28.5802 19.9231 28.3117 19.8124 28.1136 19.6159C27.9155 19.4193 27.8039 19.1529 27.8032 18.8749C27.8099 16.818 28.6366 14.8472 30.1028 13.3929C31.5691 11.9387 33.5558 11.1191 35.629 11.1132C35.9093 11.1138 36.1779 11.2245 36.3763 11.421C36.5746 11.6175 36.6865 11.884 36.6875 12.162V18.8774C36.6858 19.1551 36.5736 19.4208 36.3754 19.6168C36.1771 19.8128 35.9089 19.9232 35.629 19.9238Z" fill="#FADA37"/>
</g>
<path id="Vector_8" d="M76.5827 32.3482C76.3539 32.3479 76.1302 32.4144 75.9393 32.5394C75.7484 32.6644 75.5988 32.8424 75.5091 33.0512L70.7895 43.9908L66.1328 33.1274C66.0336 32.8955 65.8678 32.6977 65.6561 32.5586C65.4444 32.4196 65.1961 32.3456 64.9422 32.3457C64.7275 32.3458 64.5163 32.3989 64.3276 32.5002C64.1388 32.6015 63.9784 32.7478 63.8608 32.9259C63.7432 33.104 63.6721 33.3084 63.6539 33.5206C63.6357 33.7327 63.671 33.946 63.7566 34.1413L69.3874 46.9589L69.0514 47.7081C68.6839 48.516 68.2887 49.0817 67.8432 49.4425C67.3976 49.8034 66.7771 50.0032 66.051 50.0032C65.5275 50.002 65.0095 49.898 64.5268 49.6973L64.4526 49.6661C64.3121 49.6052 64.1604 49.5737 64.007 49.5737C63.8104 49.5732 63.6173 49.6253 63.448 49.7247C63.2788 49.824 63.1397 49.9668 63.0455 50.1381C62.9722 50.2726 62.928 50.4208 62.9157 50.5732C62.9033 50.7256 62.9231 50.8789 62.9737 51.0234C63.0229 51.163 63.1012 51.2909 63.2036 51.3984C63.306 51.506 63.4301 51.591 63.5678 51.6477C63.7062 51.7051 63.8522 51.7601 64.002 51.81C64.6719 52.0349 65.3739 52.1513 66.0812 52.1547C66.8291 52.1607 67.572 52.0338 68.2748 51.7801C68.9597 51.5116 69.5656 51.0766 70.0368 50.5152C70.5805 49.8908 71.0852 49.0355 71.5471 47.9541L77.6537 33.964C77.7316 33.7874 77.7638 33.5944 77.7476 33.4024C77.7313 33.2104 77.667 33.0255 77.5605 32.8643C77.4541 32.7031 77.3088 32.5708 77.1378 32.4794C76.9669 32.388 76.7756 32.3403 76.5814 32.3407L76.5827 32.3482Z" fill="black"/>
<path id="Vector_9" d="M102.65 28.0839C102.376 28.0839 102.109 28.1645 101.881 28.3154C101.653 28.4663 101.476 28.6809 101.371 28.9318C101.266 29.1828 101.239 29.459 101.292 29.7254C101.346 29.9919 101.478 30.2366 101.671 30.4287C101.865 30.6208 102.111 30.7516 102.38 30.8046C102.649 30.8576 102.927 30.8304 103.18 30.7265C103.433 30.6225 103.649 30.4464 103.801 30.2206C103.953 29.9947 104.034 29.7291 104.034 29.4575C104.034 29.0932 103.889 28.7438 103.629 28.4862C103.369 28.2286 103.017 28.0839 102.65 28.0839Z" fill="black"/>
<path id="Vector_10" d="M102.657 32.3481C102.289 32.3481 101.937 32.4929 101.678 32.7504C101.418 33.008 101.272 33.3574 101.272 33.7217V47.2773C101.272 48.1514 101.061 48.8344 100.643 49.3064C100.225 49.7784 99.6121 50.0356 98.862 50.0356C98.5098 50.038 98.1584 50.0003 97.8149 49.9232C97.7426 49.9068 97.6688 49.8984 97.5946 49.8983C97.415 49.902 97.2393 49.951 97.0839 50.0406C96.9286 50.1302 96.7987 50.2575 96.7065 50.4105C96.6143 50.5635 96.5628 50.7372 96.5567 50.9154C96.5507 51.0936 96.5904 51.2704 96.6721 51.4291C96.7377 51.5571 96.8304 51.6695 96.9438 51.7587C97.0571 51.8479 97.1886 51.9118 97.3291 51.9461L97.3845 51.9598C97.9703 52.0951 98.5701 52.1621 99.1716 52.1596C100.728 52.1596 101.94 51.7138 102.772 50.8373C103.604 49.9607 104.031 48.727 104.031 47.1936V33.7142C104.029 33.3529 103.884 33.007 103.626 32.7513C103.369 32.4956 103.021 32.3508 102.657 32.3481Z" fill="black"/>
<path id="Vector_11" d="M120.654 33.0087C119.699 32.5567 118.651 32.3306 117.593 32.3482C116.343 32.3482 115.231 32.5979 114.284 33.0762C113.676 33.3823 113.135 33.807 112.696 34.3248L112.02 35.1252V33.8016C112.01 33.4676 111.869 33.1508 111.627 32.9182C111.385 32.6856 111.061 32.5556 110.724 32.5556C110.388 32.5556 110.064 32.6856 109.822 32.9182C109.58 33.1508 109.439 33.4676 109.429 33.8016V45.3269C109.413 45.5159 109.438 45.706 109.5 45.8852C109.563 46.0644 109.662 46.2288 109.792 46.3681C109.921 46.5074 110.078 46.6186 110.254 46.6946C110.429 46.7707 110.618 46.8099 110.809 46.8099C111 46.8099 111.189 46.7707 111.364 46.6946C111.539 46.6186 111.696 46.5074 111.826 46.3681C111.956 46.2288 112.055 46.0644 112.117 45.8852C112.18 45.706 112.204 45.5159 112.189 45.3269V39.5206C112.189 38.4554 112.38 37.5539 112.755 36.8409C113.115 36.1337 113.686 35.5544 114.391 35.1827C115.127 34.8087 115.944 34.6204 116.77 34.6345C118.001 34.6345 118.981 35.0091 119.685 35.7321C120.388 36.4551 120.736 37.5414 120.736 38.9599V45.3282C120.763 45.6724 120.921 45.9936 121.177 46.2279C121.432 46.4621 121.768 46.5922 122.116 46.5922C122.464 46.5922 122.799 46.4621 123.055 46.2279C123.311 45.9936 123.468 45.6724 123.496 45.3282V38.5179C123.496 37.0794 123.244 35.8957 122.727 34.9954C122.257 34.1386 121.533 33.4453 120.654 33.0087Z" fill="black"/>
<path id="Vector_12" d="M140.806 32.8713C140.701 32.7096 140.556 32.5768 140.386 32.4853C140.215 32.3938 140.024 32.3466 139.829 32.3481C139.601 32.3481 139.377 32.4147 139.186 32.5397C138.995 32.6646 138.845 32.8425 138.755 33.0511L134.038 43.9908L129.381 33.1273C129.282 32.8954 129.116 32.6976 128.904 32.5586C128.692 32.4196 128.444 32.3455 128.19 32.3456C127.976 32.3455 127.764 32.3984 127.575 32.4996C127.386 32.6008 127.226 32.7471 127.108 32.9253C126.99 33.1035 126.919 33.308 126.901 33.5203C126.883 33.7326 126.919 33.946 127.005 34.1412L132.634 46.9589L132.299 47.7081C131.932 48.516 131.537 49.0816 131.091 49.4425C130.646 49.8034 130.024 50.0032 129.299 50.0032C128.774 50.0014 128.255 49.8966 127.771 49.6947L127.698 49.6635C127.558 49.6026 127.406 49.5712 127.253 49.5711C127.056 49.5706 126.863 49.6228 126.694 49.7221C126.524 49.8215 126.385 49.9643 126.291 50.1355C126.218 50.2699 126.173 50.4182 126.161 50.5706C126.148 50.7231 126.168 50.8765 126.219 51.0208C126.268 51.1605 126.346 51.2883 126.448 51.3959C126.551 51.5035 126.675 51.5884 126.812 51.6452C126.952 51.7038 127.099 51.7575 127.248 51.8075C127.917 52.0325 128.62 52.1489 129.327 52.1521C130.075 52.158 130.818 52.0311 131.52 51.7775C132.205 51.5086 132.811 51.0737 133.282 50.5126C133.826 49.8883 134.331 49.0342 134.785 47.9516L140.902 33.9639C140.98 33.7885 141.012 33.5964 140.995 33.4055C140.978 33.2145 140.913 33.0308 140.806 32.8713Z" fill="black"/>
<path id="Vector_13" d="M94.2214 32.9363C94.0719 32.9352 93.9237 32.9634 93.7852 33.0193C93.6468 33.0753 93.5209 33.1579 93.4147 33.2624C93.3086 33.3668 93.2244 33.4911 93.1669 33.628C93.1095 33.765 93.0799 33.9118 93.0799 34.0601L93.0698 34.9092L92.4405 34.3348C91.5283 33.5039 90.4256 32.9063 89.2279 32.5939C88.0302 32.2815 86.7737 32.2637 85.5676 32.5422C84.3614 32.8206 83.2419 33.3868 82.3062 34.1916C81.3706 34.9965 80.6469 36.0157 80.1981 37.1608C79.7493 38.3059 79.5889 39.5424 79.7308 40.7629C79.8727 41.9835 80.3126 43.1513 81.0123 44.165C81.7121 45.1787 82.6506 46.0077 83.7464 46.5801C84.8421 47.1525 86.0622 47.451 87.3005 47.4497H87.3169C87.3496 47.4497 87.3849 47.4497 87.4314 47.4497C89.2889 47.4206 91.071 46.7159 92.4393 45.4693L93.0799 44.8861V45.9875C93.0802 46.2876 93.2006 46.5754 93.4147 46.7875C93.6287 46.9996 93.9189 47.1188 94.2214 47.1188C94.5236 47.1181 94.8133 46.9987 95.027 46.7867C95.2406 46.5747 95.361 46.2873 95.3617 45.9875V34.0676C95.361 33.7678 95.2406 33.4804 95.027 33.2684C94.8133 33.0564 94.5236 32.937 94.2214 32.9363ZM87.2993 45.2458C86.2339 45.2458 85.1924 44.9323 84.3066 44.3451C83.4208 43.7578 82.7303 42.9232 82.3226 41.9466C81.9149 40.9701 81.8083 39.8955 82.0161 38.8588C82.2239 37.8221 82.737 36.8698 83.4903 36.1224C84.2437 35.375 85.2035 34.866 86.2484 34.6598C87.2933 34.4536 88.3764 34.5594 89.3607 34.9639C90.345 35.3684 91.1862 36.0534 91.7781 36.9323C92.37 37.8112 92.6859 38.8444 92.6859 39.9014C92.6859 41.3186 92.1186 42.6778 91.1087 43.68C90.0987 44.6822 88.729 45.2454 87.3005 45.2458H87.2993Z" fill="black"/>
<path id="Vector_14" d="M110.779 3.59871C111.053 3.59871 111.321 3.51815 111.549 3.36722C111.776 3.2163 111.954 3.00178 112.058 2.7508C112.163 2.49982 112.191 2.22364 112.137 1.9572C112.084 1.69076 111.952 1.44602 111.758 1.25393C111.565 1.06183 111.318 0.931015 111.05 0.878016C110.781 0.825018 110.503 0.852219 110.25 0.956179C109.997 1.06014 109.78 1.23619 109.628 1.46207C109.476 1.68795 109.395 1.95351 109.395 2.22517C109.395 2.58945 109.541 2.93882 109.801 3.19641C110.06 3.454 110.412 3.59871 110.779 3.59871Z" fill="black"/>
<path id="Vector_15" d="M139.609 19.0073C139.335 19.0073 139.068 19.0879 138.84 19.2388C138.612 19.3897 138.435 19.6043 138.33 19.8552C138.225 20.1062 138.198 20.3824 138.251 20.6488C138.305 20.9153 138.436 21.16 138.63 21.3521C138.824 21.5442 139.07 21.675 139.339 21.728C139.608 21.781 139.886 21.7538 140.139 21.6499C140.392 21.5459 140.608 21.3698 140.76 21.144C140.912 20.9181 140.993 20.6525 140.993 20.3809C140.993 20.0166 140.848 19.6672 140.588 19.4096C140.328 19.152 139.976 19.0073 139.609 19.0073Z" fill="black"/>
<path id="Vector_16" d="M136.121 19.0073C135.847 19.0073 135.579 19.0879 135.352 19.2388C135.124 19.3897 134.946 19.6043 134.842 19.8552C134.737 20.1062 134.71 20.3824 134.763 20.6488C134.816 20.9153 134.948 21.16 135.142 21.3521C135.335 21.5442 135.582 21.675 135.851 21.728C136.119 21.781 136.398 21.7538 136.651 21.6499C136.904 21.5459 137.12 21.3698 137.272 21.144C137.424 20.9181 137.505 20.6525 137.505 20.3809C137.505 20.0166 137.359 19.6672 137.1 19.4096C136.84 19.152 136.488 19.0073 136.121 19.0073Z" fill="black"/>
<path id="Vector_17" d="M73.3922 23.1392C73.1184 23.1392 72.8508 23.2197 72.6231 23.3706C72.3954 23.5216 72.218 23.7361 72.1132 23.9871C72.0084 24.2381 71.981 24.5142 72.0344 24.7807C72.0878 25.0471 72.2197 25.2919 72.4133 25.4839C72.6069 25.676 72.8536 25.8069 73.1222 25.8599C73.3907 25.9129 73.6691 25.8856 73.922 25.7817C74.175 25.6777 74.3912 25.5017 74.5433 25.2758C74.6955 25.0499 74.7767 24.7844 74.7767 24.5127C74.7767 24.1484 74.6308 23.7991 74.3712 23.5415C74.1115 23.2839 73.7594 23.1392 73.3922 23.1392Z" fill="black"/>
<path id="Vector_18" d="M69.9035 23.1392C69.6297 23.1392 69.362 23.2197 69.1343 23.3706C68.9067 23.5216 68.7292 23.7361 68.6244 23.9871C68.5196 24.2381 68.4922 24.5142 68.5456 24.7807C68.5991 25.0471 68.7309 25.2919 68.9245 25.4839C69.1182 25.676 69.3648 25.8069 69.6334 25.8599C69.9019 25.9129 70.1803 25.8856 70.4333 25.7817C70.6862 25.6777 70.9025 25.5017 71.0546 25.2758C71.2067 25.0499 71.2879 24.7844 71.2879 24.5127C71.2879 24.1484 71.142 23.7991 70.8824 23.5415C70.6228 23.2839 70.2706 23.1392 69.9035 23.1392Z" fill="black"/>
<path id="Vector_19" d="M128.035 19.0073C127.761 19.0073 127.494 19.0879 127.266 19.2388C127.038 19.3897 126.861 19.6043 126.756 19.8552C126.651 20.1062 126.624 20.3824 126.677 20.6488C126.731 20.9153 126.863 21.16 127.056 21.3521C127.25 21.5442 127.497 21.675 127.765 21.728C128.034 21.781 128.312 21.7538 128.565 21.6499C128.818 21.5459 129.034 21.3698 129.186 21.144C129.339 20.9181 129.42 20.6525 129.42 20.3809C129.42 20.0166 129.274 19.6672 129.014 19.4096C128.755 19.152 128.402 19.0073 128.035 19.0073Z" fill="black"/>
<path id="Vector_20" d="M132.914 15.1277C132.78 15.1277 132.652 15.075 132.558 14.9814C132.464 14.8877 132.41 14.7607 132.41 14.6282C132.41 9.0766 128.897 5.4904 123.461 5.4904C122.801 5.48853 122.142 5.5441 121.492 5.65648C121.492 5.65648 118.885 6.01859 117.383 7.64561C117.211 7.89258 117.131 8.19102 117.155 8.49024C117.18 8.78946 117.308 9.07101 117.518 9.28708C117.728 9.50315 118.007 9.64042 118.308 9.67557C118.608 9.71072 118.912 9.64159 119.167 9.47992L120.332 8.73071L120.372 8.70574C121.221 8.16506 122.26 7.8941 123.481 7.8941C127.437 7.8941 129.616 10.2391 129.616 14.4996C129.616 14.5445 129.616 14.5907 129.616 14.6382C129.616 14.7707 129.563 14.8977 129.469 14.9914C129.375 15.085 129.247 15.1377 129.113 15.1377H113.849C113.105 15.059 112.607 14.7718 112.339 14.2636C112.1 13.8166 111.981 13.0149 111.981 11.8836V6.36822C111.981 6.20846 111.949 6.05028 111.887 5.90283C111.825 5.75539 111.735 5.62158 111.62 5.50913C111.581 5.47262 111.539 5.43883 111.494 5.40799C111.474 5.393 111.457 5.37552 111.436 5.36054C111.416 5.34556 111.357 5.31808 111.311 5.29686C111.264 5.27563 111.253 5.26189 111.221 5.24816C111.19 5.23442 111.192 5.24067 111.177 5.23442C111.04 5.18189 110.894 5.15439 110.747 5.15326C110.6 5.15439 110.454 5.18189 110.316 5.23442C110.302 5.23442 110.286 5.24316 110.272 5.24816C110.258 5.25315 110.213 5.28062 110.183 5.29686C110.153 5.31309 110.101 5.33557 110.063 5.36054C110.026 5.38551 110.023 5.3955 110.002 5.41173C109.96 5.44146 109.92 5.474 109.883 5.50913C109.771 5.6223 109.681 5.75643 109.621 5.90384C109.56 6.05126 109.53 6.20907 109.531 6.36822V11.8711C109.531 13.0024 109.413 13.8041 109.174 14.2511C108.856 14.858 108.218 15.1514 107.221 15.1514H84.7472C82.9676 15.1514 82.181 14.4234 81.2371 11.996C80.5096 10.1317 78.686 8.51844 77.0146 8.16132C76.822 8.11722 76.6256 8.09212 76.4281 8.0864C76.3991 8.0864 76.3715 8.0864 76.3412 8.0864C76.1474 8.0864 75.975 8.0864 75.8215 8.0864C75.5404 8.08631 75.2684 8.18456 75.0531 8.36384C74.8379 8.54313 74.6933 8.79197 74.6447 9.06661C74.6309 9.13568 74.6242 9.20596 74.6246 9.27638C74.6249 9.46395 74.6711 9.64863 74.7592 9.81456L74.841 9.95067C74.8529 9.97036 74.8668 9.98877 74.8826 10.0056C74.8939 10.0206 74.9077 10.0393 74.9216 10.0543L74.9279 10.0618C74.9442 10.0793 74.9606 10.098 74.9782 10.1155C74.9958 10.133 74.987 10.1255 74.9921 10.1267C75.1656 10.2889 75.3854 10.394 75.6213 10.4277C75.6893 10.4377 75.7585 10.4489 75.824 10.4639C77.2814 10.7536 78.0491 11.8374 78.0491 13.613C78.0491 16.6098 75.0625 19.3357 71.7827 19.3357C67.8384 19.3357 65.3867 16.475 65.3867 11.8711V10.6524C65.3857 10.2957 65.2424 9.95392 64.9882 9.7017C64.734 9.44948 64.3894 9.30734 64.0299 9.30635C63.7336 9.30701 63.4497 9.42426 63.2404 9.63237C63.0311 9.84047 62.9136 10.1224 62.9136 10.4164V12.2083C62.9136 17.5676 66.7736 21.7644 71.7059 21.7644C75.4678 21.7644 78.8685 19.3919 79.9747 15.9868C80.0034 15.9053 80.0529 15.8326 80.1183 15.7757C80.1837 15.7188 80.2629 15.6798 80.3481 15.6623C80.4332 15.6448 80.5215 15.6495 80.6043 15.676C80.6871 15.7024 80.7616 15.7497 80.8205 15.8132C81.7279 16.8596 83.0519 17.4689 84.571 17.5451H107.855H110.733H136.838C138.736 17.5451 140.991 16.6985 140.991 12.6665V6.36822C140.991 6.04632 140.863 5.73761 140.633 5.51C140.404 5.28238 140.093 5.15451 139.768 5.15451C139.444 5.15451 139.132 5.28238 138.903 5.51C138.674 5.73761 138.545 6.04632 138.545 6.36822V11.8711C138.545 13.0099 138.419 13.7991 138.182 14.2286C137.87 14.853 137.232 15.1277 136.233 15.1277H132.914Z" fill="black"/>
</g>
<defs>
<clipPath id="clip0_1888_2853">
<rect width="141" height="53" fill="white"/>
</clipPath>
</defs>
</svg>
