<svg width="18" height="19" viewBox="0 0 18 19" fill="none" xmlns="http://www.w3.org/2000/svg">
<g id="Home appliances" clip-path="url(#clip0_1730_86074)">
<path id="Vector" d="M0.54541 7.14514H8.74362V16.7586C8.74362 16.9568 8.66488 17.1469 8.52473 17.2871C8.38458 17.4272 8.1945 17.5059 7.9963 17.5059H1.29278C1.19464 17.5059 1.09745 17.4866 1.00678 17.4491C0.916104 17.4115 0.833714 17.3565 0.764313 17.2871C0.694913 17.2177 0.639861 17.1353 0.602301 17.0446C0.564742 16.9539 0.54541 16.8568 0.54541 16.7586V7.14514Z" fill="#9DDDF4"/>
<path id="Vector_2" d="M1.29278 0.751831H7.9963C8.1945 0.751831 8.38458 0.830566 8.52473 0.970715C8.66488 1.11086 8.74362 1.30095 8.74362 1.49915V7.14511H0.54541V1.49915C0.54541 1.40101 0.564742 1.30382 0.602301 1.21315C0.639861 1.12248 0.694913 1.04009 0.764313 0.970697C0.833714 0.901301 0.916104 0.846255 1.00678 0.808702C1.09745 0.771149 1.19464 0.751824 1.29278 0.751831Z" fill="#9DDDF4"/>
<path id="Vector_3" d="M1.92801 2.70837H2.36742V5.21472H1.92801C1.81838 5.21472 1.71324 5.17116 1.63572 5.09364C1.5582 5.01612 1.51465 4.91098 1.51465 4.80135V3.1219C1.51463 3.0676 1.5253 3.01383 1.54607 2.96366C1.56683 2.91349 1.59728 2.8679 1.63566 2.8295C1.67405 2.7911 1.71963 2.76064 1.76979 2.73985C1.81995 2.71907 1.87372 2.70837 1.92801 2.70837Z" fill="#3796B7"/>
<path id="Vector_4" d="M1.92801 8.75427H2.36742V11.4723H1.92801C1.81838 11.4723 1.71324 11.4287 1.63572 11.3512C1.5582 11.2737 1.51465 11.1685 1.51465 11.0589V9.16774C1.51463 9.11345 1.52532 9.05969 1.54608 9.00952C1.56685 8.95936 1.5973 8.91378 1.63568 8.87538C1.67407 8.83699 1.71964 8.80653 1.7698 8.78575C1.81996 8.76497 1.87372 8.75427 1.92801 8.75427Z" fill="#3796B7"/>
<path id="Vector_5" d="M16.4175 9.03528H10.4711C10.1408 9.03528 9.87305 9.30305 9.87305 9.63335V16.9078C9.87305 17.2381 10.1408 17.5059 10.4711 17.5059H16.4175C16.7478 17.5059 17.0156 17.2381 17.0156 16.9078V9.63335C17.0156 9.30305 16.7478 9.03528 16.4175 9.03528Z" fill="#B6DFFC"/>
<path id="Vector_6" d="M13.4442 16.0694C14.8257 16.0694 15.9456 14.9495 15.9456 13.568C15.9456 12.1865 14.8257 11.0667 13.4442 11.0667C12.0628 11.0667 10.9429 12.1865 10.9429 13.568C10.9429 14.9495 12.0628 16.0694 13.4442 16.0694Z" fill="#7BABDB"/>
<path id="Vector_7" d="M13.4444 15.2562C14.3767 15.2562 15.1325 14.5004 15.1325 13.5681C15.1325 12.6358 14.3767 11.88 13.4444 11.88C12.5121 11.88 11.7563 12.6358 11.7563 13.5681C11.7563 14.5004 12.5121 15.2562 13.4444 15.2562Z" fill="#537BB7"/>
<path id="Vector_8" d="M11.5942 9.03528V9.45526C11.5942 9.60169 11.6524 9.74213 11.756 9.84567C11.8595 9.94921 11.9999 10.0074 12.1464 10.0074H14.7425C14.8151 10.0074 14.8869 9.99314 14.9539 9.9654C15.0209 9.93766 15.0818 9.897 15.1331 9.84573C15.1843 9.79446 15.225 9.73358 15.2528 9.66659C15.2805 9.59959 15.2948 9.52778 15.2948 9.45526V9.03528H11.5942Z" fill="#7BABDB"/>
<path id="Vector_9" d="M14.1608 0.584473C13.1644 1.53048 10.8668 1.10091 10.8668 1.10091V4.45294C10.8642 4.84964 10.9365 5.24327 11.08 5.61314C11.9076 7.70485 14.1608 8.12398 14.1608 8.12398C14.1608 8.12398 16.414 7.70485 17.2417 5.61314C17.3851 5.24328 17.4575 4.84965 17.4549 4.45294V1.10091C17.4549 1.10091 15.1573 1.53048 14.1608 0.584473Z" fill="#FFDC6C"/>
<path id="Vector_10" d="M14.1608 0.584473C14 0.732974 13.8139 0.85149 13.6113 0.934414L10.8667 3.67899V4.45294C10.8657 4.75286 10.9064 5.05146 10.9876 5.34018L15.2313 1.09663C14.8248 1.00806 14.4412 0.850767 14.1608 0.584473Z" fill="#FFEDD2"/>
<path id="Vector_11" d="M11.3726 6.19995C11.491 6.39355 11.6265 6.57619 11.7775 6.74566L17.1374 1.40422V1.14661C16.96 1.16778 16.7205 1.18896 16.4498 1.19595L11.3726 6.19995Z" fill="#FFEDD2"/>
<path id="Vector_12" d="M17.2415 5.61314C17.3849 5.24328 17.4573 4.84965 17.4547 4.45294V1.10091C17.4547 1.10091 15.1571 1.53048 14.1606 0.584473V8.12425C14.1606 8.12425 16.4138 7.70485 17.2415 5.61314Z" fill="#FCA742"/>
<path id="Vector_13" d="M10.8667 2.8976L12.5914 1.1731C12.4554 1.18617 12.3206 1.19353 12.1896 1.1966L10.8667 2.51934V2.8976Z" fill="#FFEDD2"/>
<path id="Vector_14" d="M1.29263 17.7177H7.99615C8.25042 17.7174 8.4942 17.6163 8.674 17.4365C8.8538 17.2567 8.95494 17.0129 8.95523 16.7586V1.49917C8.95495 1.24489 8.85382 1.0011 8.67402 0.821291C8.49422 0.641481 8.25043 0.540333 7.99615 0.540039H1.29263C1.03834 0.540319 0.794542 0.641461 0.61473 0.821273C0.434918 1.00108 0.333776 1.24488 0.333496 1.49917V7.14487C0.333496 7.20104 0.355807 7.2549 0.395521 7.29461C0.435234 7.33433 0.489097 7.35664 0.545261 7.35664H8.5317V16.7586C8.53155 16.9006 8.47507 17.0367 8.37467 17.1371C8.27427 17.2375 8.13814 17.294 7.99615 17.2942H1.29263C1.15063 17.294 1.01449 17.2376 0.914074 17.1372C0.813661 17.0368 0.75718 16.9006 0.757025 16.7586V8.05319C0.757025 7.99702 0.734715 7.94316 0.695001 7.90345C0.655287 7.86373 0.601424 7.84142 0.545261 7.84142C0.489097 7.84142 0.435234 7.86373 0.395521 7.90345C0.355807 7.94316 0.333496 7.99702 0.333496 8.05319V16.7586C0.33379 17.0129 0.434938 17.2567 0.614749 17.4365C0.794559 17.6163 1.03835 17.7174 1.29263 17.7177ZM0.757025 6.93311V1.49917C0.75718 1.35717 0.813659 1.22103 0.914071 1.12061C1.01448 1.0202 1.15063 0.963723 1.29263 0.963568H7.99615C8.13814 0.963737 8.27427 1.02022 8.37467 1.12063C8.47507 1.22104 8.53155 1.35718 8.5317 1.49917V6.93311H0.757025Z" fill="#494456"/>
<path id="Vector_15" d="M2.36712 2.49658H1.9277C1.76197 2.49682 1.6031 2.56279 1.48593 2.68001C1.36877 2.79723 1.30289 2.95614 1.30273 3.12187V4.80127C1.30293 4.96702 1.36886 5.12592 1.48606 5.24312C1.60326 5.36033 1.76217 5.42626 1.92792 5.42645H2.36733C2.42349 5.42645 2.47736 5.40414 2.51707 5.36443C2.55678 5.32471 2.57909 5.27085 2.57909 5.21469V2.70835C2.57909 2.68052 2.57361 2.65297 2.56295 2.62726C2.5523 2.60155 2.53668 2.5782 2.51699 2.55853C2.49731 2.53886 2.47394 2.52327 2.44822 2.51264C2.4225 2.50201 2.39494 2.49655 2.36712 2.49658ZM2.15535 5.00276H1.9277C1.87424 5.00269 1.82299 4.98143 1.78519 4.94362C1.74739 4.90582 1.72612 4.85457 1.72605 4.80111V3.12187C1.72608 3.06835 1.74736 3.01703 1.78521 2.9792C1.82307 2.94136 1.8744 2.92011 1.92792 2.92011H2.15556L2.15535 5.00276Z" fill="#494456"/>
<path id="Vector_16" d="M2.36712 11.684C2.42328 11.684 2.47714 11.6617 2.51686 11.622C2.55657 11.5823 2.57888 11.5284 2.57888 11.4722V8.75425C2.57888 8.69808 2.55657 8.64422 2.51686 8.6045C2.47714 8.56479 2.42328 8.54248 2.36712 8.54248H1.9277C1.76198 8.54272 1.60311 8.60868 1.48595 8.72589C1.36879 8.8431 1.3029 9.00199 1.30273 9.16772V11.0589C1.30293 11.2246 1.36886 11.3835 1.48607 11.5007C1.60327 11.6179 1.76217 11.6838 1.92792 11.684H2.36712ZM1.72626 11.0589V9.16772C1.72633 9.11426 1.7476 9.06301 1.78541 9.02522C1.82321 8.98743 1.87446 8.96617 1.92792 8.96612H2.15556V11.2605H1.92792C1.87446 11.2604 1.82321 11.2392 1.78541 11.2014C1.7476 11.1636 1.72633 11.1123 1.72626 11.0589Z" fill="#494456"/>
<path id="Vector_17" d="M16.4175 17.7176C16.6323 17.7174 16.8382 17.632 16.9901 17.4802C17.1419 17.3283 17.2273 17.1224 17.2275 16.9076V9.63336C17.2273 9.4186 17.1419 9.2127 16.9901 9.06084C16.8382 8.90898 16.6323 8.82357 16.4175 8.82336H10.4711C10.2564 8.82356 10.0505 8.90896 9.89859 9.06082C9.74673 9.21269 9.66133 9.4186 9.66113 9.63336V16.9078C9.66133 17.1226 9.74673 17.3285 9.89859 17.4803C10.0505 17.6322 10.2564 17.7176 10.4711 17.7178L16.4175 17.7176ZM15.0828 9.24705V9.45527C15.0827 9.54551 15.0468 9.63203 14.983 9.69584C14.9191 9.75964 14.8326 9.79553 14.7424 9.79563H12.1462C12.056 9.79552 11.9695 9.75962 11.9057 9.69581C11.8419 9.63201 11.806 9.5455 11.8059 9.45527V9.24705H15.0828ZM10.0848 16.9076V9.63336C10.0849 9.53089 10.1256 9.43263 10.1981 9.36017C10.2706 9.2877 10.3688 9.24696 10.4713 9.24689H11.3824V9.45511C11.3826 9.65764 11.4632 9.85181 11.6064 9.99501C11.7496 10.1382 11.9438 10.2188 12.1463 10.219H14.7424C14.945 10.2188 15.1391 10.1382 15.2823 9.99502C15.4256 9.85181 15.5061 9.65764 15.5064 9.45511V9.24689H16.4176C16.5201 9.24698 16.6183 9.28772 16.6908 9.36018C16.7632 9.43264 16.804 9.53089 16.8041 9.63336V16.9078C16.804 17.0103 16.7633 17.1085 16.6908 17.181C16.6183 17.2535 16.5201 17.2942 16.4176 17.2943H10.4711C10.3687 17.2942 10.2704 17.2535 10.198 17.181C10.1255 17.1085 10.0848 17.0103 10.0848 16.9078V16.9076Z" fill="#494456"/>
<path id="Vector_18" d="M13.444 16.2812C13.9806 16.2813 14.5052 16.1221 14.9514 15.824C15.3976 15.5259 15.7453 15.1022 15.9507 14.6064C16.156 14.1107 16.2098 13.5651 16.1051 13.0388C16.0004 12.5125 15.742 12.0291 15.3626 11.6497C14.9831 11.2702 14.4997 11.0118 13.9734 10.9071C13.4471 10.8024 12.9016 10.8562 12.4058 11.0615C11.9101 11.2669 11.4863 11.6146 11.1882 12.0608C10.8901 12.5069 10.731 13.0315 10.731 13.5681C10.7318 14.2874 11.0179 14.977 11.5265 15.4857C12.0351 15.9943 12.7247 16.2804 13.444 16.2812ZM13.444 11.2786C13.8969 11.2786 14.3396 11.4128 14.7161 11.6644C15.0926 11.916 15.3861 12.2736 15.5594 12.6919C15.7327 13.1103 15.778 13.5707 15.6897 14.0148C15.6014 14.459 15.3833 14.8669 15.0631 15.1872C14.7429 15.5074 14.3349 15.7254 13.8908 15.8138C13.4466 15.9021 12.9862 15.8568 12.5679 15.6835C12.1495 15.5102 11.7919 15.2167 11.5403 14.8402C11.2888 14.4636 11.1545 14.021 11.1545 13.5681C11.1552 12.9611 11.3967 12.3792 11.8259 11.95C12.2551 11.5208 12.837 11.2793 13.444 11.2786Z" fill="#494456"/>
<path id="Vector_19" d="M13.4442 15.468C13.7336 15.4677 14.019 15.4015 14.2789 15.2742C14.5387 15.147 14.7661 14.9621 14.9437 14.7337C15.1213 14.5053 15.2444 14.2394 15.3037 13.9562C15.363 13.673 15.3569 13.38 15.2858 13.0995C15.2791 13.0724 15.2672 13.0469 15.2506 13.0245C15.234 13.002 15.2131 12.9831 15.1891 12.9687C15.1652 12.9544 15.1386 12.9449 15.111 12.9408C15.0834 12.9368 15.0552 12.9382 15.0282 12.9451C15.0011 12.952 14.9757 12.9641 14.9533 12.9809C14.931 12.9976 14.9122 13.0186 14.898 13.0426C14.8838 13.0667 14.8744 13.0933 14.8706 13.1209C14.8667 13.1486 14.8683 13.1767 14.8753 13.2037C14.9553 13.5187 14.929 13.8513 14.8004 14.1498C14.6719 14.4483 14.4484 14.6959 14.1646 14.8543C13.8808 15.0127 13.5527 15.0729 13.2312 15.0256C12.9097 14.9783 12.6128 14.8261 12.3866 14.5927C12.1605 14.3593 12.0178 14.0577 11.9807 13.7349C11.9436 13.412 12.0142 13.0859 12.1815 12.8073C12.3488 12.5287 12.6035 12.3132 12.9059 12.1942C13.2083 12.0752 13.5415 12.0594 13.8538 12.1493C13.9078 12.1648 13.9658 12.1583 14.0149 12.1311C14.0641 12.104 14.1004 12.0584 14.116 12.0044C14.1315 11.9504 14.125 11.8925 14.0978 11.8433C14.0707 11.7942 14.0251 11.7578 13.9711 11.7423C13.7098 11.6669 13.4353 11.6485 13.1663 11.6883C12.8972 11.7282 12.6399 11.8253 12.4116 11.9731C12.1833 12.121 11.9894 12.3161 11.8431 12.5453C11.6967 12.7746 11.6012 13.0326 11.5632 13.3019C11.5251 13.5712 11.5452 13.8455 11.6223 14.1063C11.6994 14.3671 11.8316 14.6084 12.0099 14.8137C12.1882 15.0191 12.4086 15.1838 12.656 15.2966C12.9035 15.4095 13.1723 15.4679 13.4442 15.468Z" fill="#494456"/>
<path id="Vector_20" d="M14.5344 12.5728C14.553 12.594 14.5756 12.6113 14.601 12.6236C14.6263 12.636 14.6539 12.6431 14.682 12.6447C14.7102 12.6462 14.7384 12.6421 14.7649 12.6326C14.7915 12.6232 14.8159 12.6085 14.8367 12.5894C14.8575 12.5704 14.8743 12.5474 14.886 12.5218C14.8978 12.4962 14.9044 12.4685 14.9053 12.4403C14.9063 12.4121 14.9016 12.384 14.8915 12.3577C14.8815 12.3313 14.8663 12.3073 14.8468 12.2869C14.8251 12.2632 14.8029 12.24 14.78 12.2174C14.74 12.178 14.686 12.156 14.6299 12.1564C14.5737 12.1567 14.52 12.1794 14.4805 12.2194C14.441 12.2593 14.4191 12.3134 14.4194 12.3695C14.4198 12.4257 14.4425 12.4794 14.4824 12.5189C14.5003 12.5362 14.5176 12.5542 14.5344 12.5728Z" fill="#494456"/>
<path id="Vector_21" d="M10.8665 16.7598H11.7563C11.8124 16.7598 11.8663 16.7375 11.906 16.6978C11.9457 16.6581 11.968 16.6042 11.968 16.5481C11.968 16.4919 11.9457 16.438 11.906 16.3983C11.8663 16.3586 11.8124 16.3363 11.7563 16.3363H10.8665C10.8104 16.3363 10.7565 16.3586 10.7168 16.3983C10.6771 16.438 10.6548 16.4919 10.6548 16.5481C10.6548 16.6042 10.6771 16.6581 10.7168 16.6978C10.7565 16.7375 10.8104 16.7598 10.8665 16.7598Z" fill="#494456"/>
<path id="Vector_22" d="M10.8663 16.111H11.0592C11.1154 16.111 11.1693 16.0887 11.209 16.049C11.2487 16.0093 11.271 15.9554 11.271 15.8993C11.271 15.8431 11.2487 15.7892 11.209 15.7495C11.1693 15.7098 11.1154 15.6875 11.0592 15.6875H10.8661C10.8099 15.6875 10.756 15.7098 10.7163 15.7495C10.6766 15.7892 10.6543 15.8431 10.6543 15.8993C10.6543 15.9554 10.6766 16.0093 10.7163 16.049C10.756 16.0887 10.8099 16.111 10.8661 16.111H10.8663Z" fill="#494456"/>
<path id="Vector_23" d="M17.6666 1.10089C17.6666 1.06979 17.6598 1.03907 17.6465 1.01091C17.6333 0.982758 17.6141 0.95786 17.5901 0.937989C17.5662 0.918117 17.5382 0.903759 17.5081 0.895936C17.478 0.888112 17.4466 0.887015 17.416 0.892722C17.3941 0.896798 15.2123 1.29084 14.3066 0.430863C14.3026 0.427104 14.298 0.424404 14.2938 0.420963C14.2885 0.416463 14.2829 0.411857 14.277 0.407992C14.2711 0.404134 14.2649 0.4006 14.2585 0.397404C14.2525 0.394281 14.2467 0.390998 14.2405 0.388457C14.2343 0.385916 14.227 0.383904 14.2201 0.381892C14.2133 0.379881 14.2077 0.378081 14.2014 0.376598C14.195 0.375116 14.1874 0.374692 14.1802 0.374004C14.173 0.373316 14.1674 0.372681 14.1609 0.372681C14.1544 0.372681 14.147 0.373422 14.14 0.37411C14.1331 0.374798 14.127 0.375275 14.1205 0.376492C14.114 0.37771 14.1071 0.379934 14.1003 0.381787C14.0936 0.383639 14.0876 0.385439 14.0813 0.387928C14.0748 0.390748 14.0685 0.393893 14.0623 0.397351C14.0562 0.400351 14.0503 0.403655 14.0446 0.407251C14.0386 0.411386 14.0329 0.415821 14.0274 0.420539C14.0233 0.423875 14.0188 0.426522 14.0149 0.430228C13.1091 1.29026 10.9274 0.89611 10.9055 0.892087C10.8749 0.886379 10.8435 0.887477 10.8134 0.8953C10.7833 0.903124 10.7552 0.917482 10.7313 0.937353C10.7074 0.957225 10.6881 0.982123 10.6749 1.01028C10.6617 1.03843 10.6549 1.06915 10.6549 1.10025V4.45291C10.652 4.87633 10.7293 5.29646 10.8829 5.69105C11.7438 7.86656 14.0253 8.31417 14.122 8.33212H14.1225C14.135 8.33445 14.1477 8.33564 14.1604 8.33567H14.1609C14.1737 8.33564 14.1864 8.33445 14.1989 8.33212H14.1994C14.2961 8.31417 16.5776 7.86656 17.4384 5.69105C17.5921 5.29647 17.6695 4.87634 17.6666 4.45291V1.10089ZM17.2431 4.45291C17.2459 4.82298 17.1786 5.19024 17.0447 5.53524C16.3292 7.34334 14.4531 7.84019 14.1605 7.90716C13.8671 7.84046 11.9943 7.34832 11.2768 5.53503C11.1429 5.19003 11.0756 4.82277 11.0784 4.4527V1.34775C11.6894 1.42812 13.257 1.55015 14.1607 0.861222C15.0644 1.54999 16.6321 1.42801 17.2431 1.34775V4.45291Z" fill="#494456"/>
<path id="Vector_24" d="M16.162 10.0364C16.2789 10.0364 16.3737 9.94163 16.3737 9.82468C16.3737 9.70773 16.2789 9.61292 16.162 9.61292C16.045 9.61292 15.9502 9.70773 15.9502 9.82468C15.9502 9.94163 16.045 10.0364 16.162 10.0364Z" fill="#494456"/>
<path id="Vector_25" d="M16.162 10.8395C16.2789 10.8395 16.3737 10.7447 16.3737 10.6278C16.3737 10.5108 16.2789 10.416 16.162 10.416C16.045 10.416 15.9502 10.5108 15.9502 10.6278C15.9502 10.7447 16.045 10.8395 16.162 10.8395Z" fill="#494456"/>
</g>
<defs>
<clipPath id="clip0_1730_86074">
<rect width="18" height="18" fill="white" transform="translate(0 0.0454102)"/>
</clipPath>
</defs>
</svg>
