<svg width="18" height="19" viewBox="0 0 18 19" fill="none" xmlns="http://www.w3.org/2000/svg">
<g clip-path="url(#clip0_1730_86063)">
<path d="M8.89273 15.993C12.0997 15.993 14.6995 13.3932 14.6995 10.1862C14.6995 6.97918 12.0997 4.37939 8.89273 4.37939C5.68573 4.37939 3.08594 6.97918 3.08594 10.1862C3.08594 13.3932 5.68573 15.993 8.89273 15.993Z" fill="#6EDCF9"/>
<path d="M5.39275 8.71427C5.39275 7.15231 6.00964 5.73453 7.01286 4.69092C4.72847 5.47209 3.08594 7.63733 3.08594 10.1864C3.08594 13.3933 5.68567 15.993 8.89262 15.993C10.5376 15.993 12.0226 15.3088 13.0792 14.2097C9.31236 15.4977 5.39275 12.6908 5.39275 8.71427Z" fill="#37CAE2"/>
<path d="M13.236 0.602851L13.7654 2.10272H15.019C15.2617 2.10272 15.4585 2.29953 15.4585 2.54221C15.4585 2.78493 15.2617 2.9817 15.019 2.9817H13.7654L13.236 4.48157C13.1626 4.68962 12.9463 4.81098 12.7305 4.76525C12.5176 4.72021 12.3663 4.52432 12.3835 4.30097L12.4869 2.98173H11.568L11.2933 3.41173C11.1626 3.61623 10.8909 3.67614 10.6863 3.54546C10.4818 3.41475 10.4219 3.14317 10.5526 2.93849L10.8057 2.54221L10.5526 2.14596C10.4218 1.94121 10.482 1.66956 10.6863 1.53899C10.8909 1.40832 11.1626 1.46819 11.2933 1.67273L11.568 2.10269H12.4869L12.3835 0.783519C12.366 0.564531 12.5141 0.365054 12.7305 0.319175C12.9463 0.273437 13.1626 0.394831 13.236 0.602851Z" fill="#6EDCF9"/>
<path d="M15.443 2.42627C15.2967 2.58507 14.963 2.54225 14.963 2.54225H10.8062C10.538 2.96216 10.4839 3.01373 10.4839 3.17468C10.4839 3.61068 11.057 3.78225 11.2938 3.4117L11.5685 2.9817H12.4874C12.3774 4.38475 12.3826 4.30892 12.3826 4.33568C12.3826 4.82607 13.0729 4.94521 13.2365 4.48157L13.7659 2.9817H15.0195C15.306 2.98174 15.5204 2.70977 15.443 2.42627Z" fill="#37CAE2"/>
<path d="M16.5221 9.90132C16.3765 9.90107 16.2582 10.0189 16.258 10.1646C16.2515 14.213 12.9818 17.518 8.88092 17.518C4.8197 17.5115 1.52092 14.2022 1.52742 10.1409C1.53382 6.17669 4.68737 2.93954 8.61517 2.79325L8.17881 3.16169C8.06754 3.25563 8.05351 3.42199 8.14745 3.53326C8.24139 3.64456 8.40778 3.65855 8.51905 3.56465L9.51239 2.72596C9.63685 2.62092 9.63709 2.42896 9.51303 2.32356L8.52236 1.48175C8.41141 1.38742 8.24498 1.40085 8.15065 1.51191C8.05636 1.62287 8.06986 1.78933 8.18085 1.88358L8.62948 2.26482C4.40567 2.40028 1.00694 5.86095 1.00001 10.1401C0.996635 12.2483 1.81448 14.2316 3.30282 15.7247C4.74763 17.1742 6.71501 18.0454 8.89305 18.0454C13.2056 18.0454 16.7783 14.565 16.7853 10.1654C16.7856 10.0198 16.6677 9.90156 16.5221 9.90132Z" fill="black"/>
<path d="M10.5449 3.76707C10.8717 3.97583 11.3073 3.87978 11.516 3.55311L11.713 3.24479H12.2022C12.1141 4.36817 12.1189 4.29599 12.1189 4.33505C12.1189 4.71829 12.4325 5.03783 12.8213 5.03783C13.1138 5.03779 13.3846 4.85364 13.4851 4.5687L13.9524 3.24479H15.0195C15.4072 3.24479 15.7226 2.92933 15.7226 2.54163C15.7226 2.15392 15.4072 1.83847 15.0195 1.83847H13.9524L13.4851 0.514482C13.3681 0.182783 13.0203 -0.0122287 12.6763 0.0606151C12.335 0.132931 12.0931 0.451447 12.121 0.803502L12.2022 1.83843H11.713L11.516 1.53015C11.1384 0.939099 10.2203 1.21033 10.2203 1.90913C10.2203 2.15747 10.3298 2.28555 10.4934 2.54156L10.3309 2.79588C10.1241 3.11995 10.2137 3.55536 10.5449 3.76707ZM11.0284 2.39967L10.7753 2.00349C10.7225 1.9207 10.7476 1.81256 10.8288 1.76067C10.9104 1.70853 11.0194 1.73244 11.0716 1.81414L11.3463 2.2441C11.3947 2.3199 11.4785 2.36581 11.5685 2.36581H12.4873C12.6409 2.36581 12.7622 2.23482 12.7502 2.0815C12.7494 2.07099 12.6462 0.758748 12.6462 0.748201C12.6462 0.55217 12.9225 0.505201 12.9878 0.689982L13.5172 2.18985C13.5544 2.29529 13.654 2.36578 13.7658 2.36578H15.0194C15.1163 2.36578 15.1952 2.44463 15.1952 2.54156C15.1952 2.63848 15.1163 2.71734 15.0194 2.71734H13.7658C13.654 2.71734 13.5544 2.78783 13.5172 2.89326L12.9878 4.39317C12.9198 4.58582 12.6311 4.5244 12.6468 4.32088C12.7582 2.89994 12.7853 2.91488 12.6809 2.80199C12.631 2.74803 12.5609 2.71734 12.4873 2.71734H11.5685C11.4785 2.71734 11.3948 2.76325 11.3463 2.83905L11.0716 3.26904C10.9772 3.41684 10.7476 3.3491 10.7476 3.17398C10.7476 3.10631 10.757 3.10838 11.0285 2.68352C11.0838 2.597 11.0838 2.48622 11.0284 2.39967Z" fill="black"/>
<path d="M13.2752 6.79196C13.3645 6.90703 13.5301 6.92798 13.6452 6.83875C13.7603 6.74953 13.7812 6.58387 13.692 6.4688C12.5374 4.9799 10.7913 4.11516 8.89238 4.11523C5.54529 4.11538 2.82227 6.83844 2.82227 10.1856C2.82227 13.5299 5.54259 16.2558 8.89262 16.2558C13.3462 16.2558 16.2975 11.5857 14.3691 7.56406C14.3061 7.43279 14.1486 7.37731 14.0173 7.44031C13.886 7.50328 13.8306 7.66078 13.8935 7.79212C14.2153 8.46315 14.3947 9.17844 14.429 9.92185H12.2043C12.1469 7.41124 11.3221 5.70293 10.5283 4.88688C11.6045 5.21703 12.5619 5.8722 13.2752 6.79196ZM9.15619 15.703V10.4492H11.6768C11.6117 13.1804 10.5124 15.4407 9.15619 15.703ZM8.62881 15.703C7.27315 15.4409 6.17329 13.1827 6.10814 10.4492H8.62881V15.703ZM6.10818 9.92185C6.17325 7.19056 7.27248 4.93023 8.62885 4.66803V9.92185H6.10818ZM7.25375 4.88994C6.45732 5.71066 5.63789 7.42112 5.58073 9.92185H3.35601C3.46759 7.55127 5.07518 5.5655 7.25375 4.88994ZM3.35601 10.4492H5.58073C5.63786 12.9483 6.45633 14.6593 7.25375 15.4811C5.07518 14.8055 3.46759 12.8198 3.35601 10.4492ZM10.5311 15.4812C11.328 14.66 12.1471 12.9485 12.2042 10.4493H14.429C14.3175 12.8199 12.7098 14.8057 10.5311 15.4812ZM11.6768 9.92185H9.15619V4.66803C10.5111 4.93005 11.6117 7.18708 11.6768 9.92185Z" fill="black"/>
</g>
<defs>
<clipPath id="clip0_1730_86063">
<rect width="18" height="18" fill="white" transform="translate(0 0.0454102)"/>
</clipPath>
</defs>
</svg>
